<?xml version="1.0" encoding="iso-8859-1"?>
<!-- Generator: Adobe Illustrator 19.0.0, SVG Export Plug-In . SVG Version: 6.00 Build 0)  -->
<svg version="1.1" id="Capa_1" xmlns="http://www.w3.org/2000/svg" xmlns:xlink="http://www.w3.org/1999/xlink" x="0px" y="0px"
	 viewBox="0 0 512 512" style="enable-background:new 0 0 512 512;" xml:space="preserve">
<g>
	<g>
		<polygon points="302.572,87.658 209.428,87.658 202.926,184.886 309.074,184.886 		"/>
	</g>
</g>
<g>
	<g>
		<polygon points="318.585,327.114 193.415,327.114 186.912,424.342 325.088,424.342 		"/>
	</g>
</g>
<g>
	<g>
		<polygon points="311.08,214.886 200.92,214.886 195.421,297.114 316.579,297.114 		"/>
	</g>
</g>
<g>
	<g>
		<polygon points="46.546,214.886 28.273,297.114 165.354,297.114 170.853,214.886 		"/>
	</g>
</g>
<g>
	<g>
		<polygon points="21.606,327.114 0,424.342 156.845,424.342 163.347,327.114 		"/>
	</g>
</g>
<g>
	<g>
		<polygon points="465.454,214.886 341.147,214.886 346.646,297.114 483.727,297.114 		"/>
	</g>
</g>
<g>
	<g>
		<polygon points="437.182,87.658 332.639,87.658 339.141,184.886 458.788,184.886 		"/>
	</g>
</g>
<g>
	<g>
		<polygon points="74.818,87.658 53.212,184.886 172.859,184.886 179.361,87.658 		"/>
	</g>
</g>
<g>
	<g>
		<polygon points="490.394,327.114 348.653,327.114 355.155,424.342 512,424.342 		"/>
	</g>
</g>
<g>
</g>
<g>
</g>
<g>
</g>
<g>
</g>
<g>
</g>
<g>
</g>
<g>
</g>
<g>
</g>
<g>
</g>
<g>
</g>
<g>
</g>
<g>
</g>
<g>
</g>
<g>
</g>
<g>
</g>
</svg>
