<svg id="Flat"  xmlns="http://www.w3.org/2000/svg"><path d="m14 40v-28l-10-8v56h56v-56l-10 8v28z" fill="#b8c3d5"/><path d="m14 12h36v28h-36z" fill="#9dabc4" transform="matrix(-1 0 0 -1 64 52)"/><path d="m14 40h36l10 20h-56z" fill="#c3967b"/><path d="m57.17 54.33-1-2h-11.06l-1.16-4.66h9.89l-1-2h-9.39l-1.42-5.67h-2.06l1.42 5.67h-8.39v-5.67h-2v5.67h-8.39l1.42-5.67h-2.06l-1.42 5.67h-9.38l-1 2h9.88l-1.16 4.66h-11.05l-1 2h11.55l-1.42 5.67h2.06l1.42-5.67h10.55v5.67h2v-5.67h10.55l1.42 5.67h2.06l-1.42-5.67zm-26.17-2h-10.05l1.16-4.66h8.89zm2 0v-4.66h8.89l1.16 4.66z" fill="#894c3d"/></svg>