<svg id="Capa_1" enable-background="new 0 0 512 512"  xmlns="http://www.w3.org/2000/svg"><g><path d="m90 180h150v-90h-150zm30-60h90v30h-90z"/><path d="m496.979 423.088c-10.031-10.224-23.961-16.088-38.22-16.088h-76.259c-12.172 0-22.263-9.894-22.496-22.055-.112-5.876 2.172-11.504 6.432-15.847 4.426-4.511 10.551-7.098 16.805-7.098h16.259c28.949 0 52.5-23.551 52.5-52.5v-42.08c17.459-6.192 30-22.865 30-42.42v-40.839c0-24.813-20.187-45-45-45s-45 20.187-45 45v40.839c0 19.555 12.541 36.228 30 42.42v42.08c0 12.407-10.093 22.5-22.5 22.5h-16.259c-14.258 0-28.188 5.864-38.219 16.088-9.948 10.14-15.279 23.433-15.012 37.43.264 13.812 5.841 26.752 15.704 36.439 9.877 9.7 22.941 15.042 36.786 15.042h76.259c6.254 0 12.379 2.587 16.805 7.098 4.26 4.342 6.544 9.97 6.432 15.847-.233 12.162-10.324 22.056-22.496 22.056h-257c-12.407 0-22.5-10.093-22.5-22.5v-97.5h30v60h30c33.084 0 60-26.916 60-60v-85.787l30-30v-246.213h-330v246.213l30 30v85.787c0 33.084 26.916 60 60 60h30v-60h30v97.5c0 28.949 23.551 52.5 52.5 52.5h257c13.845 0 26.909-5.342 36.786-15.042 9.863-9.687 15.44-22.628 15.704-36.439.268-13.998-5.063-27.29-15.011-37.431zm-316.979-93.088h-30v-30h30zm0-60h-30v-30h30zm60 30h-30v-30h30zm-120 0h-30v-30h30zm-60-90v-150h210v150z"/></g></svg>