<svg id="_2_Solid"  xmlns="http://www.w3.org/2000/svg" data-name="2 Solid"><path d="m14 57a3.989 3.989 0 0 0 .422-7.957 4 4 0 1 0 -6.844 0 3.989 3.989 0 0 0 .422 7.957 3.894 3.894 0 0 0 2-.572v4.572h2v-4.572a3.894 3.894 0 0 0 2 .572z"/><path d="m52 45h6v16h-6z"/><path d="m52 39h8v4h-8z"/><path d="m14 41.809a5.924 5.924 0 0 1 2.944 5.966 6 6 0 0 1 -2.944 11.225v2h11v-14h6v14h2v-14h6v14h11v-58h-36zm28-34.809h4v6h-4zm0 10h4v6h-4zm0 10h4v6h-4zm0 10h4v6h-4zm-8-30h4v6h-4zm0 10h4v6h-4zm0 10h4v6h-4zm0 10h4v6h-4zm-8-30h4v6h-4zm0 10h4v6h-4zm0 10h4v6h-4zm0 10h4v6h-4zm-8-30h4v6h-4zm0 10h4v6h-4zm0 10h4v6h-4zm0 10h4v6h-4z"/></svg>