<svg id="Layer_1" enable-background="new 0 0 508 508"  xmlns="http://www.w3.org/2000/svg"><path d="m206.193 51.053v-50.994h24.526v50.995h-24.526zm95.614 0v-50.994h-24.526v50.995h24.526zm-113.35 290.578h131.086c6.07 0 11.591-2.486 15.596-6.491s6.492-9.527 6.492-15.596v-131.088c0-6.07-2.486-11.591-6.492-15.596-4.005-4.005-9.527-6.492-15.596-6.492h-131.086c-6.07 0-11.591 2.487-15.597 6.492-4.005 4.005-6.491 9.527-6.491 15.596v131.087c0 6.07 2.486 11.591 6.491 15.596s9.527 6.492 15.597 6.492zm159.913-290.578h24.526v-50.994h-24.526zm-222.141 88.992c4.252 0 8.102-1.724 10.888-4.509 2.786-2.786 4.509-6.636 4.509-10.888s-1.724-8.101-4.509-10.887c-2.786-2.786-6.636-4.509-10.888-4.509s-8.101 1.724-10.888 4.509c-2.786 2.786-4.509 6.635-4.509 10.887s1.723 8.102 4.509 10.888c2.787 2.785 6.636 4.509 10.888 4.509zm-75.176-4.941h-50.994v24.526h50.995v-24.526zm84.051-84.051h24.526v-50.994h-24.526zm-60.316 382.158c-9.549-9.549-15.477-22.717-15.477-37.199v-284.025c0-14.481 5.927-27.65 15.477-37.199 9.55-9.55 22.718-15.477 37.199-15.477h284.025c14.482 0 27.65 5.928 37.199 15.477s15.477 22.717 15.477 37.199v284.025c0 14.482-5.927 27.65-15.477 37.199-9.549 9.549-22.718 15.477-37.199 15.477h-284.025c-14.481 0-27.649-5.927-37.199-15.477zm283.328-308.563c0 6.532 2.648 12.446 6.929 16.726 4.28 4.28 10.194 6.929 16.726 6.929s12.446-2.648 16.726-6.929 6.928-10.194 6.928-16.726c0-6.531-2.648-12.446-6.928-16.726-4.281-4.28-10.195-6.929-16.726-6.929-6.532 0-12.445 2.648-16.726 6.929-4.281 4.28-6.929 10.194-6.929 16.726zm-200.005 194.895c0 8.349 3.413 15.937 8.911 21.435s13.086 8.911 21.436 8.911h131.086c8.349 0 15.937-3.413 21.435-8.911s8.911-13.086 8.911-21.435v-131.087c0-8.349-3.413-15.937-8.911-21.435s-13.086-8.911-21.435-8.911h-131.087c-8.349 0-15.937 3.413-21.436 8.911-5.498 5.498-8.911 13.086-8.911 21.435v131.087zm-55.536-194.895c0 6.532 2.648 12.446 6.928 16.726 4.281 4.28 10.195 6.929 16.726 6.929 6.532 0 12.446-2.648 16.727-6.929 4.28-4.281 6.929-10.194 6.929-16.726 0-6.531-2.648-12.446-6.929-16.726s-10.195-6.929-16.727-6.929c-6.531 0-12.446 2.648-16.726 6.929s-6.928 10.195-6.928 16.726zm279.195 15.397c4.252 0 8.102-1.724 10.888-4.509 2.786-2.786 4.509-6.636 4.509-10.888s-1.723-8.101-4.509-10.887-6.636-4.509-10.888-4.509-8.101 1.724-10.887 4.509c-2.786 2.786-4.509 6.635-4.509 10.887s1.724 8.102 4.509 10.888c2.786 2.785 6.635 4.509 10.887 4.509zm126.171 137.236h-50.995v24.526h50.995zm0-71.088h-50.995v24.526h50.995zm0 142.177h-50.995v24.526h50.995zm-456.888-142.177h-50.994v24.526h50.995v-24.526zm456.888-71.089h-50.995v24.526h50.995zm-456.888 142.178h-50.994v24.526h50.995v-24.526zm0 71.088h-50.994v24.526h50.995v-24.526zm84.051 159.571h24.526v-50.995h-24.526zm237.792-50.995h-24.526v50.995h24.526zm-71.088 0h-24.526v50.995h24.526zm-95.615 50.995h24.526v-50.995h-24.526z"/></svg>