<svg xmlns="http://www.w3.org/2000/svg"><g id="_x31_3"><path d="m14 11h-3.300293l4.1743164-7.5146484c.1723633-.3095703.1674805-.6875-.012207-.9921875-.1796875-.3056641-.5073242-.4931641-.8618164-.4931641h-5c-.3657227 0-.7026367.2001953-.8779297.5214844l-6 11c-.1689453.3095703-.1621094.6855469.0180664.9892578.1801758.3027344.506836.4892578.8598633.4892578h4.612793l-4.5615235 13.6835938c-.1616211.4853516.0688477 1.0146484.534668 1.2265625.1337891.0605468.2749023.0898437.4135742.0898437.3447266 0 .6772461-.1787109.8623047-.4931641l10-17c.1821289-.3085938.184082-.6923828.0063477-1.0029297-.1782227-.3115234-.5092774-.5039062-.8681641-.5039062z"/><path d="m29.4964027 22.4003906-1.4663086-.8398438c.0161133-.1879882.0239258-.3745116.0239258-.5605468s-.0078125-.3725586-.0239258-.5605469l1.4663086-.8398438c.2314453-.1323242.4003906-.3515625.4692383-.6088867s.0322266-.5317383-.1015625-.762207l-2.0180664-3.4638672c-.2773438-.4750977-.8857422-.637207-1.3608398-.3647461l-1.4790039.8466797c-.3154297-.2138672-.6533203-.4052734-1.0063477-.5693359v-1.6772461c0-.5522461-.4477539-1-1-1h-4c-.5522461 0-1 .4477539-1 1v1.6772461c-.3530273.1640625-.690918.3554688-1.0063477.5693359l-1.479003-.8466797c-.4760742-.2714844-1.0830078-.1103516-1.3608398.3647461l-2.0180664 3.4638672c-.1337891.2304688-.1704102.5048828-.1015625.762207s.237793.4765625.4692383.6088867l1.4663086.8398438c-.0161133.1879883-.0239258.3745117-.0239258.5605469s.0078125.3725586.0239258.5605469l-1.4663086.8398438c-.2314453.1323242-.4003906.3515625-.4692383.6088867s-.0322266.5317383.1015625.762207l2.0180664 3.4638672c.2773438.4746094.8842773.6367188 1.3608398.3647461l1.479003-.8461914c.3154297.2138672.6533203.4047852 1.0063477.5688477v1.677246c0 .5522461.4477539 1 1 1h4c.5522461 0 1-.4477539 1-1v-1.6772461c.3530273-.1640625.690918-.3549805 1.0063477-.5688477l1.4790039.8461914c.4775391.2729492 1.0844727.1103516 1.3608398-.3647461l2.0180664-3.4638672c.1337891-.2304688.1704102-.5048828.1015625-.762207s-.2377929-.4765625-.4692383-.6088867zm-8.496582 2.5996094c-2.2091064 0-4-1.7908936-4-4 0-2.2091675 1.7908936-4 4-4 2.2091675 0 4 1.7908325 4 4 0 2.2091064-1.7908325 4-4 4z"/><circle cx="21" cy="21" r="3"/></g></svg>