<svg id="Layer_1" enable-background="new 0 0 56 56"  xmlns="http://www.w3.org/2000/svg"><g id="_x37_5"><g><g><g><g enable-background="new"><g><g><path d="m43.2 36.8-6.9-4c.2-.1.3-.4.3-.6l6.9 4c0 .3-.1.5-.3.6z" fill="#c9cee2"/></g></g><g><g><path d="m27.5 45.9-6.9-4.1 15.7-9 6.9 4z" fill="#c9cee2"/></g></g><g><g><path d="m27.3 45.9-6.9-4h.2l6.9 4s-.1 0-.2 0z" fill="#c9cee2"/></g></g><g><g><path d="m27.9 45-6.9-4c-.1-.1-.2-.2-.2-.4l6.9 4c0 .2 0 .3.2.4z" fill="#c9cee2"/></g></g><g><g><path d="m43.5 36.3-6.9-4.1-.1-24.9 7 4z" fill="#c9cee2"/></g></g><g><g><path d="m36.4 7.1 6.9 4c.1 0 .1.1.1.2l-6.9-4c0-.1 0-.2-.1-.2z" fill="#c9cee2"/></g></g><g><g><path d="m35.9 8 6.9 4c-.1-.1-.3-.1-.5 0l-6.9-4z" fill="#c9cee2"/></g></g><g><g><path d="m27.7 44.6-7-4.1v-23.2l6.9 4.1z" fill="#c9cee2"/></g></g><g><g><path d="m28.2 20.3-6.9-4.1 14.1-8.1 7 4z" fill="#c9cee2"/></g></g><g><g><path d="m27.6 21.4-6.9-4c0-.4.3-.9.6-1.1l6.9 4c-.3.2-.6.7-.6 1.1z" fill="#c9cee2"/></g></g><g><g><path d="m43.4 8.4c1.3-.8 2.4-.2 2.4 1.4l.1 25.5c0 1.5-1.1 3.4-2.4 4.1l-16.2 9.3c-1.3.8-2.4.2-2.4-1.4l-.1-25.5c0-1.5 1.1-3.4 2.4-4.1zm.1 27.9-.1-24.9c0-.2-.1-.3-.3-.2l-15.7 9.1c-.2.1-.3.3-.3.6l.1 24.9c0 .2.1.3.3.2l15.7-9.1c.2-.2.3-.4.3-.6" fill="#c9cee2"/></g></g><g><g><path d="m42.4 12.1c.4-.2.6 0 .6.4l.1 23.2c0 .4-.3.9-.6 1.1l-14.1 8.2c-.4.2-.6 0-.6-.4l-.1-23.2c0-.4.3-.9.6-1.1z" fill="#c9cee2"/></g></g><g><g><path d="m45.1 8.2c-.4-.3-1-.2-1.7.2l-16.2 9.3c-1.3.8-2.4 2.6-2.4 4.1l.1 25.5c0 .8.3 1.3.7 1.5l-6.9-4c-.5-.3-.7-.8-.7-1.5l-.1-25.5c0-1.5 1.1-3.4 2.4-4.1l16.2-9.3c.7-.4 1.3-.4 1.7-.2z" fill="#c9cee2"/></g></g></g></g><g><g><path d="m31.1 33.2c-.2 0-.5-.1-.6-.3-.2-.3-.2-.7 0-1.1l4-10.1c.1-.4.4-.7.7-.8.2-.1.3-.1.5-.1s.4.1.6.3l4 5.5c.2.2.2.5.1.8-.1.5-.4.9-.8 1.1l-8 4.6c-.2 0-.4.1-.5.1z" fill="#c9cee2"/></g><g><path d="m35.3 21.2c.2-.1.4-.1.5 0l4 5.5c.2.3 0 1.1-.5 1.4l-8 4.6c-.5.3-.8-.1-.5-.8l4-10.1c.1-.3.3-.5.5-.6z" fill="#c9cee2"/></g></g><g><path d="m36.6 24.4-1.2 2.5 1.1-.6-1.7 3.2.7-2.3-.8.5.6-2.6z" fill="#c9cee2"/></g><g><g><g><path d="m40.5 34.4c.3-.2.6 0 .6.3 0 .4-.2.8-.6 1l-9.5 5.5c-.3.2-.6 0-.6-.3 0-.4.2-.8.6-1z" fill="#c9cee2"/></g></g><g><g><path d="m40.5 31.6c.3-.2.6 0 .6.3 0 .4-.2.8-.6 1l-9.5 5.5c-.3.2-.6 0-.6-.3 0-.4.2-.8.6-1z" fill="#c9cee2"/></g></g></g></g><g><g enable-background="new"><g><g><path d="m28.3 34.8.7-.5.4.3-.8.4z" fill="#c9cee2"/></g></g><g><g><path d="m29.3 29.6.5-.3v6.4l-.5.4z" fill="#c9cee2"/></g></g><g><g><path d="m28.3 29.1.5-.4 1 .6-.5.3z" fill="#c9cee2"/></g></g><g><g><path d="m29.3 29.6v6.5l-1-.6v-.7l.3.2.1-5-.4-.2v-.7z" fill="#c9cee2"/></g></g></g></g></g><g><g><g><g><g enable-background="new"><g><g><path d="m48.2 39.3-7.2-4.2c.2-.1.3-.4.3-.6l7.3 4.2c-.1.2-.2.5-.4.6z" fill="#b0b8cf"/></g></g><g><g><path d="m31.8 48.8-7.2-4.3 16.4-9.4 7.2 4.2z" fill="#9ea9c9"/></g></g><g><g><path d="m31.6 48.8-7.3-4.2h.2l7.3 4.2c-.1 0-.1 0-.2 0z" fill="#9ea9c9"/></g></g><g><g><path d="m32.2 47.8-7.3-4.2c-.1-.1-.2-.2-.2-.4l7.3 4.2c0 .2 0 .3.2.4z" fill="#e3e7f0"/></g></g><g><g><path d="m48.5 38.7-7.2-4.2-.1-26 7.3 4.2z" fill="#9ea9c9"/></g></g><g><g><path d="m41.1 8.3 7.3 4.2c.1 0 .1.1.1.2l-7.3-4.2c0-.1 0-.2-.1-.2z" fill="#9ea9c9"/></g></g><g><g><path d="m40.6 9.2 7.3 4.2c-.1-.1-.3-.1-.5 0l-7.3-4.2z" fill="#e3e7f0"/></g></g><g><g><path d="m32 47.4-7.3-4.2-.1-24.2 7.3 4.2z" fill="#e3e7f0"/></g></g><g><g><path d="m32.6 22-7.3-4.2 14.8-8.5 7.2 4.2z" fill="#e3e7f0"/></g></g><g><g><path d="m31.9 23.2-7.3-4.2c0-.4.3-.9.7-1.2l7.3 4.2c-.4.2-.7.8-.7 1.2z" fill="#e3e7f0"/></g></g><g><g><path d="m48.4 9.6c1.4-.8 2.5-.2 2.5 1.4l.1 26.6c0 1.6-1.1 3.5-2.5 4.3l-16.9 9.7c-1.4.8-2.5.2-2.5-1.4l-.1-26.6c0-1.6 1.1-3.5 2.5-4.3zm.1 29.1-.1-26c0-.2-.2-.3-.3-.2l-16.4 9.5c-.2.1-.3.4-.3.6l.1 26c0 .2.2.3.3.2l16.4-9.5c.2-.1.3-.4.3-.6" fill="#c9cee2"/></g></g><g><g><path d="m47.3 13.5c.4-.2.7 0 .7.4l.1 24.2c0 .4-.3.9-.7 1.2l-14.8 8.5c-.4.2-.7 0-.7-.4l-.1-24.2c0-.4.3-.9.7-1.2z" fill="#c9cee2"/></g></g><g><g><path d="m50.1 9.4c-.5-.3-1.1-.2-1.8.2l-16.9 9.7c-1.3.8-2.4 2.7-2.4 4.3l.1 26.6c0 .8.3 1.3.7 1.6l-7.3-4.2c-.4-.3-.7-.8-.7-1.6l-.1-26.6c0-1.6 1.1-3.5 2.5-4.3l16.9-9.7c.7-.4 1.3-.4 1.8-.2z" fill="#e3e7f0"/></g></g></g></g><g><g><path d="m35.5 35.5c-.2 0-.5-.1-.6-.3-.2-.3-.2-.7 0-1.1l4.1-10.6c.2-.4.4-.7.7-.9.2-.1.3-.1.5-.1s.5.1.6.3l4.2 5.7c.2.2.2.5.1.9-.1.5-.4.9-.8 1.2l-8.3 4.7c-.1.1-.3.2-.5.2z" fill="#1d2943"/></g><g><path d="m40 23c.2-.1.4-.1.6 0l4.2 5.7c.3.3-.1 1.1-.5 1.4l-8.5 4.9c-.5.3-.8-.2-.6-.8l4.2-10.5c.1-.4.3-.6.6-.7z" fill="#febc1f"/></g></g><g><path d="m41.3 26.3-1.3 2.6 1.2-.6-1.8 3.3.8-2.4-.9.5.6-2.6z" fill="#1d2943"/></g><g><g><g><path d="m45.4 36.7c.3-.2.6 0 .6.3 0 .4-.3.8-.6 1l-9.9 5.7c-.3.2-.6 0-.6-.3 0-.4.3-.8.6-1z" fill="#9ea9c9"/></g></g><g><g><path d="m45.4 33.9c.3-.2.6 0 .6.3 0 .4-.3.8-.6 1l-9.9 5.7c-.3.2-.6 0-.6-.3 0-.4.3-.8.6-1z" fill="#9ea9c9"/></g></g></g></g><g><g enable-background="new"><g><g><path d="m32.6 37.2.8-.5.4.2-.8.5z" fill="#4c5c75"/></g></g><g><g><path d="m33.6 31.8.6-.3v6.7l-.6.3c-.2-2.5-.2-4.8 0-6.7z" fill="#111d33"/></g></g><g><g><path d="m32.6 31.2.6-.3 1 .6-.6.3c-.3 0-.7-.2-1-.6z" fill="#4c5c75"/></g></g><g><g><path d="m33.6 31.8v6.7l-1-.6v-.7l.4.2v-5.2l-.4-.3v-.7z" fill="#1d2943"/></g></g></g></g></g><g><g enable-background="new"><g><g><path d="m11.4 27.5c-.1.1-.2.2-.3.2l-2.6 1.5c.1-.1.2-.1.3-.2.9-.5 1.8-1 2.6-1.5z" fill="#e74c3c"/></g></g><g><g><path d="m11.8 26.4c0 .5-.1.8-.3 1.1-.9.5-1.7 1-2.6 1.5.2-.2.3-.6.3-1.1.8-.5 1.7-1 2.6-1.5z" fill="#3293c9"/></g></g><g><g><path d="m11.4 25c.2.5.3 1 .3 1.5-.9.5-1.7 1-2.6 1.5 0-.5-.1-1-.3-1.5.8-.5 1.9-1.1 2.6-1.5z" fill="#3293c9"/></g></g><g><g><path d="m11.4 25-2.6 1.5c-.4-.9-1.5-1.1-2.3-1.5-.6-.3-.6-1-1-.7.8-.5 1.8-1.1 2.6-1.5.4-.2.9-.2 1.5.1.8.4 1.5 1.2 1.8 2.1z" fill="#f45170"/></g></g><g><g><path d="m7.1 24.4c.7.4 1.4 1.2 1.7 2.1.2.5.3 1 .3 1.5s-.1.8-.3 1.1c-.4.5-1 .5-1.7.1-1.1-.7-2.1-2.3-2.1-3.6.1-1.3 1-1.9 2.1-1.2z" fill="#df3260"/></g></g><g><g><path d="m20.3 34.1 2.6-1.5c0 1.1.1 1.4.2 1.7l-2.6 1.5c-.1-.3-.2-.7-.2-1.7z" fill="#3293c9"/></g></g><g><g><path d="m20.5 33.2 2.6-1.5c-.1.2-.2.5-.2.9l-2.6 1.5c0-.3.1-.6.2-.9z" fill="#3293c9"/></g></g><g><g><path d="m20.5 33.2c-.1.3-.2.5-.2.9.1 1.1.1 1.4.2 1.7l-11.7-6.8c.2-.3.3-.6.3-1.1s-.1-1-.3-1.5l2.6-1.5 11.7 6.7z" fill="#111d33"/></g></g><g><g><path d="m8.9 26.5 2.5-1.5 11.7 6.7-2.6 1.5z" fill="#4c5c75"/></g></g><g><g><path d="m20.5 33.2c-.1.2-.2.5-.2.9 0 1.1.1 1.4.2 1.7l-11.7-6.8c.2-.2.3-.6.3-1.1s-.1-1-.3-1.5z" fill="#1d2943"/></g></g><g><g><path d="m28.7 36.2c0 .9-.3 1.6-.8 1.9l-2.6 1.5c.5-.3-.4-.9-.4-1.9 0-1.8-.8-3.2-2.4-4.2-.8-.5-.8-1.4-1.3-1 .8-.5 1.8-1.1 2.6-1.5.5-.3 1.3-.3 2.1.2 1.5.9 2.8 3.2 2.8 5z" fill="#5ec363"/></g></g><g><g><path d="m23.2 32.7c1.6.9 2.9 3.2 2.9 5s-1.3 2.6-2.9 1.7c-1.2-.7-2.3-2.2-2.7-3.6-.1-.3-.2-.6-.2-.9 0-.5 0-.5 0-.5 0-.6.1-.9.2-1.1.4-1 1.5-1.3 2.7-.6z" fill="#78e75a"/></g></g></g></g></g></g></svg>