<svg clip-rule="evenodd" fill-rule="evenodd"  stroke-linejoin="round" stroke-miterlimit="2"  xmlns="http://www.w3.org/2000/svg"><path d="m50.885 52.036c.011-.096-.048-.185-.14-.214-.091-.028-.19.013-.235.097-1.465 2.747-5.79 10.856-7.118 13.346-.082.155-.078.342.013.492.09.151.253.243.428.243h5.05c.284 0 .555.121.745.333s.28.495.249.777c-.195 1.756-.572 5.147-.762 6.854-.011.096.048.185.14.214.091.028.19-.013.235-.097 1.465-2.747 5.79-10.856 7.118-13.346.082-.155.078-.342-.013-.492-.09-.151-.253-.243-.428-.243-1.258 0-3.643 0-5.05 0-.284 0-.555-.121-.745-.333s-.28-.495-.249-.777c.195-1.756.572-5.147.762-6.854z"/><path d="m22 42c-.552 0-1 .448-1 1v41c0 .265.105.52.293.707.187.188.442.293.707.293h56c.265 0 .52-.105.707-.293.188-.187.293-.442.293-.707 0 0 0-34.631 0-41 0-.552-.448-1-1-1-7.031 0-48.969 0-56 0zm51 6c0-.552-.448-1-1-1-6.071 0-37.929 0-44 0-.552 0-1 .448-1 1v30c0 .552.448 1 1 1h44c.552 0 1-.448 1-1 0-4.775 0-25.225 0-30z"/><path d="m82 38c0-.552-.448-1-1-1-7.474 0-54.526 0-62 0-.552 0-1 .448-1 1v2c0 .552.448 1 1 1h62c.552 0 1-.448 1-1 0-.611 0-1.389 0-2z"/><path d="m27 86c-.552 0-1 .448-1 1v3c0 .265.105.52.293.707.187.188.442.293.707.293h10c.265 0 .52-.105.707-.293.188-.187.293-.442.293-.707 0 0 0-1.815 0-3 0-.552-.448-1-1-1-2.26 0-7.74 0-10 0zm36 0c-.552 0-1 .448-1 1v3c0 .265.105.52.293.707.187.188.442.293.707.293h10c.265 0 .52-.105.707-.293.188-.187.293-.442.293-.707 0 0 0-1.815 0-3 0-.552-.448-1-1-1-2.26 0-7.74 0-10 0z"/><path d="m20 45c0-.265-.105-.52-.293-.707-.187-.188-.442-.293-.707-.293-1.934 0-6 0-6 0-.552 0-1 .448-1 1v36c0 .552.448 1 1 1h6c.265 0 .52-.105.707-.293.188-.187.293-.442.293-.707 0-5.36 0-30.64 0-36zm61-1c-.265 0-.52.105-.707.293-.188.187-.293.442-.293.707v36c0 .265.105.52.293.707.187.188.442.293.707.293h6c.552 0 1-.448 1-1 0-5.36 0-30.64 0-36 0-.552-.448-1-1-1 0 0-4.066 0-6 0z"/><path d="m68 34c-.265 0-.52.105-.707.293-.188.187-.293.442-.293.707s.105.52.293.707c.187.188.442.293.707.293h4c.265 0 .52-.105.707-.293.188-.187.293-.442.293-.707s-.105-.52-.293-.707c-.187-.188-.442-.293-.707-.293-1.11 0-2.89 0-4 0zm-20 0c-.265 0-.52.105-.707.293-.188.187-.293.442-.293.707s.105.52.293.707c.187.188.442.293.707.293h4c.265 0 .52-.105.707-.293.188-.187.293-.442.293-.707s-.105-.52-.293-.707c-.187-.188-.442-.293-.707-.293-1.11 0-2.89 0-4 0zm-20 0c-.265 0-.52.105-.707.293-.188.187-.293.442-.293.707s.105.52.293.707c.187.188.442.293.707.293h4c.265 0 .52-.105.707-.293.188-.187.293-.442.293-.707s-.105-.52-.293-.707c-.187-.188-.442-.293-.707-.293-1.11 0-2.89 0-4 0zm19-22.999c0 .265.105.519.293.706.187.188.441.293.706.293h4.002c.265 0 .519-.105.706-.293.188-.187.293-.441.293-.706 0-.001 0-.001 0-.001 0-1.105-.895-2-2-2-.644 0-1.356 0-2 0-1.105 0-2 .895-2 2zm20 0c0 .265.105.519.293.706.187.188.441.293.706.293h4.002c.265 0 .519-.105.706-.293.188-.187.293-.441.293-.706 0-.001 0-.001 0-.001 0-1.105-.895-2-2-2-.644 0-1.356 0-2 0-1.105 0-2 .895-2 2zm-40 0c0 .265.105.519.293.706.187.188.441.293.706.293h4.002c.265 0 .519-.105.706-.293.188-.187.293-.441.293-.706 0-.001 0-.001 0-.001 0-1.105-.895-2-2-2-.644 0-1.356 0-2 0-1.105 0-2 .895-2 2z"/><path d="m53.351 28c.43 0 .857-.069 1.265-.205.391-.131.907-.303 1.358-.453.613-.204 1.026-.777 1.026-1.423 0-.273 0-.565 0-.838 0-.646-.413-1.219-1.026-1.423-.451-.15-.967-.322-1.358-.453-.408-.136-.835-.205-1.265-.205.43 0 .857-.069 1.265-.205.391-.131.907-.303 1.358-.453.613-.204 1.026-.777 1.026-1.423 0-.273 0-.565 0-.838 0-.646-.413-1.219-1.026-1.423-.451-.15-.967-.322-1.358-.453-.408-.136-.835-.205-1.265-.205.43 0 .857-.069 1.265-.205.391-.131.907-.303 1.358-.453.613-.204 1.026-.777 1.026-1.423 0-.273 0-.565 0-.838 0-.646-.413-1.219-1.026-1.423-.451-.15-.967-.322-1.358-.453-.408-.136-.835-.205-1.265-.205-1.502 0-5.2 0-6.702 0-.43 0-.857.069-1.265.205-.391.131-.907.303-1.358.453-.613.204-1.026.777-1.026 1.423v.838c0 .646.413 1.219 1.026 1.423.451.15.967.322 1.358.453.408.136.835.205 1.265.205-.43 0-.857.069-1.265.205-.391.131-.907.303-1.358.453-.613.204-1.026.777-1.026 1.423v.838c0 .646.413 1.219 1.026 1.423.451.15.967.322 1.358.453.408.136.835.205 1.265.205-.43 0-.857.069-1.265.205-.391.131-.907.303-1.358.453-.613.204-1.026.777-1.026 1.423v.838c0 .646.413 1.219 1.026 1.423.451.15.967.322 1.358.453.408.136.835.205 1.265.205-.43 0-.857.069-1.265.205-.391.131-.907.303-1.358.453-.613.204-1.026.777-1.026 1.423v.838c0 .646.413 1.219 1.026 1.423.451.15.967.322 1.358.453.408.136.835.205 1.265.205h6.702c.43 0 .857-.069 1.265-.205.391-.131.907-.303 1.358-.453.613-.204 1.026-.777 1.026-1.423 0-.273 0-.565 0-.838 0-.646-.413-1.219-1.026-1.423-.451-.15-.967-.322-1.358-.453-.408-.136-.835-.205-1.265-.205z"/><path d="m33.351 28c.43 0 .857-.069 1.265-.205.391-.131.907-.303 1.358-.453.613-.204 1.026-.777 1.026-1.423 0-.273 0-.565 0-.838 0-.646-.413-1.219-1.026-1.423-.451-.15-.967-.322-1.358-.453-.408-.136-.835-.205-1.265-.205.43 0 .857-.069 1.265-.205.391-.131.907-.303 1.358-.453.613-.204 1.026-.777 1.026-1.423 0-.273 0-.565 0-.838 0-.646-.413-1.219-1.026-1.423-.451-.15-.967-.322-1.358-.453-.408-.136-.835-.205-1.265-.205.43 0 .857-.069 1.265-.205.391-.131.907-.303 1.358-.453.613-.204 1.026-.777 1.026-1.423 0-.273 0-.565 0-.838 0-.646-.413-1.219-1.026-1.423-.451-.15-.967-.322-1.358-.453-.408-.136-.835-.205-1.265-.205-1.502 0-5.2 0-6.702 0-.43 0-.857.069-1.265.205-.391.131-.907.303-1.358.453-.613.204-1.026.777-1.026 1.423v.838c0 .646.413 1.219 1.026 1.423.451.15.967.322 1.358.453.408.136.835.205 1.265.205-.43 0-.857.069-1.265.205-.391.131-.907.303-1.358.453-.613.204-1.026.777-1.026 1.423v.838c0 .646.413 1.219 1.026 1.423.451.15.967.322 1.358.453.408.136.835.205 1.265.205-.43 0-.857.069-1.265.205-.391.131-.907.303-1.358.453-.613.204-1.026.777-1.026 1.423v.838c0 .646.413 1.219 1.026 1.423.451.15.967.322 1.358.453.408.136.835.205 1.265.205-.43 0-.857.069-1.265.205-.391.131-.907.303-1.358.453-.613.204-1.026.777-1.026 1.423v.838c0 .646.413 1.219 1.026 1.423.451.15.967.322 1.358.453.408.136.835.205 1.265.205h6.702c.43 0 .857-.069 1.265-.205.391-.131.907-.303 1.358-.453.613-.204 1.026-.777 1.026-1.423 0-.273 0-.565 0-.838 0-.646-.413-1.219-1.026-1.423-.451-.15-.967-.322-1.358-.453-.408-.136-.835-.205-1.265-.205z"/><path d="m73.351 28c.43 0 .857-.069 1.265-.205.391-.131.907-.303 1.358-.453.613-.204 1.026-.777 1.026-1.423 0-.273 0-.565 0-.838 0-.646-.413-1.219-1.026-1.423-.451-.15-.967-.322-1.358-.453-.408-.136-.835-.205-1.265-.205.43 0 .857-.069 1.265-.205.391-.131.907-.303 1.358-.453.613-.204 1.026-.777 1.026-1.423 0-.273 0-.565 0-.838 0-.646-.413-1.219-1.026-1.423-.451-.15-.967-.322-1.358-.453-.408-.136-.835-.205-1.265-.205.43 0 .857-.069 1.265-.205.391-.131.907-.303 1.358-.453.613-.204 1.026-.777 1.026-1.423 0-.273 0-.565 0-.838 0-.646-.413-1.219-1.026-1.423-.451-.15-.967-.322-1.358-.453-.408-.136-.835-.205-1.265-.205-1.502 0-5.2 0-6.702 0-.43 0-.857.069-1.265.205-.391.131-.907.303-1.358.453-.613.204-1.026.777-1.026 1.423v.838c0 .646.413 1.219 1.026 1.423.451.15.967.322 1.358.453.408.136.835.205 1.265.205-.43 0-.857.069-1.265.205-.391.131-.907.303-1.358.453-.613.204-1.026.777-1.026 1.423v.838c0 .646.413 1.219 1.026 1.423.451.15.967.322 1.358.453.408.136.835.205 1.265.205-.43 0-.857.069-1.265.205-.391.131-.907.303-1.358.453-.613.204-1.026.777-1.026 1.423v.838c0 .646.413 1.219 1.026 1.423.451.15.967.322 1.358.453.408.136.835.205 1.265.205-.43 0-.857.069-1.265.205-.391.131-.907.303-1.358.453-.613.204-1.026.777-1.026 1.423v.838c0 .646.413 1.219 1.026 1.423.451.15.967.322 1.358.453.408.136.835.205 1.265.205h6.702c.43 0 .857-.069 1.265-.205.391-.131.907-.303 1.358-.453.613-.204 1.026-.777 1.026-1.423 0-.273 0-.565 0-.838 0-.646-.413-1.219-1.026-1.423-.451-.15-.967-.322-1.358-.453-.408-.136-.835-.205-1.265-.205z"/></svg>