<svg id="Capa_1" enable-background="new 0 0 512 512"  xmlns="http://www.w3.org/2000/svg"><g><g><path d="m156.229 374.49c1.88-10.814 9.511-19.707 19.914-23.208l41.88-14.093 8.589-8.689c.652-.66 1.559-1.039 2.487-1.039h53.018c.884 0 1.728.331 2.375.931l9.506 8.804 41.859 14.085c10.403 3.501 18.033 12.394 19.914 23.208l3.056 17.574h136.349l-21.147-76.973c-1.789-6.513-7.71-11.026-14.464-11.026h-407.13c-6.754 0-12.675 4.514-14.464 11.026l-21.147 76.973h136.349z" fill="#cbe5e8"/><path d="m56.824 392.065 21.147-76.973c1.789-6.513 7.71-11.026 14.464-11.026h-40c-6.754 0-12.675 4.514-14.464 11.026l-21.147 76.973z" fill="#a8d3d8"/><g><g><circle cx="344.5" cy="331.565" fill="#fff" r="7.5"/></g><g><circle cx="370.5" cy="331.565" fill="#8ebac5" r="7.5"/></g><g><circle cx="396.5" cy="331.565" fill="#fff" r="7.5"/></g><g><circle cx="422.5" cy="331.565" fill="#8ebac5" r="7.5"/></g><g><circle cx="448.5" cy="331.565" fill="#8ebac5" r="7.5"/></g></g><g><g><circle cx="352.5" cy="355.565" fill="#fff" r="7.5"/></g><g><circle cx="378.5" cy="355.565" fill="#8ebac5" r="7.5"/></g><g><circle cx="404.5" cy="355.565" fill="#8ebac5" r="7.5"/></g><g><circle cx="430.5" cy="355.565" fill="#fff" r="7.5"/></g><g><circle cx="456.5" cy="355.565" fill="#8ebac5" r="7.5"/></g></g><path d="m189.294 54.565h133.411v82.615h-133.411z" fill="#c8effe"/><path d="m287.295 101.77 35.41 35.41h.001v-82.615h-35.411z" fill="#dff6fd"/><path d="m189.294 54.565h18.706v82.615h-18.706z" fill="#99e6fc"/><path d="m322.705 137.18-35.41-35.41h-98.001v35.41z" fill="#ffe177"/><path d="m189.294 101.77h18.706v35.41h-18.706z" fill="#ffd15b"/><g><path d="m324.206 151.18h-136.412c-6.893 0-12.5-5.607-12.5-12.5v-85.615c0-6.893 5.607-12.5 12.5-12.5h136.411c6.893 0 12.5 5.607 12.5 12.5v85.615c.001 6.892-5.607 12.5-12.499 12.5zm-133.912-15h131.411v-80.615h-131.411z" fill="#678d98"/></g><path d="m364.589 54.565h133.411v82.615h-133.411z" fill="#c8effe"/><path d="m364.589 54.565h19v82.615h-19z" fill="#99e6fc"/><path d="m364.589 106.065h133.411v31.115h-133.411z" fill="#8ebac5"/><path d="m364.589 106.065h19v31.115h-19z" fill="#7ca1b1"/><g><path d="m14 178.696h133.411v82.615h-133.411z" fill="#c8effe"/><path d="m147.411 178.696h-69.411v47.369l33.35 35.247h36.061z" fill="#dff6fd"/><path d="m14 178.696h18.589v82.615h-18.589z" fill="#99e6fc"/><path d="m111.35 261.312-33.35-35.247h-64v35.247z" fill="#ffe177"/><g><path d="m110 178.696h15v82.615h-15z" fill="#8ebac5"/></g><path d="m14 226.065h18.589v35.247h-18.589z" fill="#ffd15b"/><path d="m364.589 178.696h133.411v82.615h-133.411z" fill="#ffe177"/><path d="m432 178.696h66v41.368h-66z" fill="#7ca1b1"/><path d="m432 178.696h-67.411v82.616h3.562l63.849-41.247z" fill="#8ebac5"/><path d="m384 178.696h-19.411v82.616h3.562l15.849-10.239z" fill="#7ca1b1"/></g><g fill="#8ebac5"><path d="m499.5 391.065h-140.847l8.346 48h132.501c2.761 0 5-2.239 5-5v-38c0-2.762-2.239-5-5-5z"/><path d="m153.347 391.065h-140.847c-2.761 0-5 2.239-5 5v38c0 2.761 2.239 5 5 5h132.501z"/></g><g><path d="m48 434.065v-38c0-2.761 2.239-5 5-5h-40.5c-2.761 0-5 2.239-5 5v38c0 2.761 2.239 5 5 5h40.5c-2.761 0-5-2.239-5-5z" fill="#7ca1b1"/></g><g fill="#678d98"><path d="m479 407.565h-117.478l2.608 15h114.87c4.142 0 7.5-3.358 7.5-7.5s-3.358-7.5-7.5-7.5z"/><path d="m150.478 407.565h-117.478c-4.142 0-7.5 3.358-7.5 7.5s3.358 7.5 7.5 7.5h114.87z"/></g><g><path d="m317.776 252.17h-1.864l-14.823 9.426c-7.09 4.509-13.01 10.766-17.119 18.095l-3.963 7.069c-1.591 2.836-4.599 4.599-7.851 4.599h-32.926c-3.094 0-5.932-1.558-7.593-4.168l-6.325-9.938c-3.701-5.815-8.459-10.744-14.141-14.649l-15.181-10.434h-1.766c-5.019 3.028-8.376 8.532-8.376 14.821v5.808c0 9.553 7.744 17.297 17.297 17.297h4.875c1.649 11.838 10.004 21.526 21.105 25.103 2.074.668 3.491 2.58 3.491 4.759v7.504h46.766v-7.504c0-2.179 1.417-4.091 3.491-4.759 11.101-3.577 19.456-13.265 21.105-25.103h4.875c9.553 0 17.297-7.744 17.297-17.297v-5.808c.002-6.289-3.355-11.794-8.374-14.821z" fill="#ffcebf"/><g><path d="m280.727 172.196h-49.454c-20.462 0-37.049 16.587-37.049 37.049v42.924l16.381 11.258c5.54 3.807 10.255 8.692 13.864 14.362l6.325 9.938c1.836 2.884 5.018 4.631 8.436 4.631h32.926c3.618 0 6.953-1.954 8.723-5.11l3.963-7.069c4.042-7.21 9.809-13.305 16.784-17.74l16.15-10.27v-42.924c0-20.461-16.588-37.049-37.049-37.049z" fill="#bb5d4c"/></g><g><path d="m264.569 287.728-6.324-9.938c-3.609-5.671-8.324-10.556-13.864-14.362l-9.877-6.788c-4.072-2.798-6.504-7.422-6.504-12.362v-35.032c0-20.462 16.587-37.049 37.049-37.049h-33.776c-20.462 0-37.049 16.587-37.049 37.049v42.924l16.382 11.258c5.539 3.807 10.254 8.691 13.863 14.362l6.325 9.938c1.836 2.884 5.018 4.631 8.437 4.631h32.926c.139 0 .275-.022.413-.028-3.251-.143-6.244-1.843-8.001-4.603z" fill="#a44f3e"/></g><path d="m371.869 461.239-15.113-86.92c-1.941-11.164-9.84-20.37-20.58-23.984l-41.655-14.017-9.348-8.658c-.831-.77-1.923-1.198-3.056-1.198h-53.018c-1.202 0-2.353.481-3.198 1.336l-8.422 8.52-41.655 14.017c-10.74 3.614-18.639 12.819-20.58 23.984l-15.113 86.92c-.926 5.324 3.173 10.197 8.577 10.197h35.06v-52.086c0-11.416 9.287-20.703 20.702-20.703h103.06c11.415 0 20.702 9.287 20.702 20.703v52.086h35.06c5.404-.001 9.503-4.873 8.577-10.197z" fill="#60b7ff"/><g><g><path d="m225.901 327.798-8.422 8.52-41.655 14.017c-10.74 3.614-18.639 12.819-20.58 23.984l-15.113 86.92c-.926 5.324 3.173 10.197 8.577 10.197h16.487l14.049-80.802c1.941-11.164 9.84-20.37 20.58-23.984l41.655-14.017 26.094-26.17h-38.475c-1.201-.001-2.352.48-3.197 1.335z" fill="#26a6fe"/></g></g><g><path d="m329.232 471.435h-146.464v-52.086c0-11.986 9.717-21.703 21.703-21.703h103.059c11.986 0 21.703 9.717 21.703 21.703v52.086z" fill="#fd5426"/></g><g><path d="m246.703 397.647h-42.233c-11.986 0-21.703 9.717-21.703 21.703v52.086h42.233v-52.086c0-11.987 9.717-21.703 21.703-21.703z" fill="#ef4424"/></g></g><g><path d="m129 338.565h-64c-4.142 0-7.5-3.358-7.5-7.5s3.358-7.5 7.5-7.5h64c4.142 0 7.5 3.358 7.5 7.5s-3.358 7.5-7.5 7.5z" fill="#8ebac5"/></g><g><path d="m170 338.565h-18c-4.142 0-7.5-3.358-7.5-7.5s3.358-7.5 7.5-7.5h18c4.142 0 7.5 3.358 7.5 7.5s-3.358 7.5-7.5 7.5z" fill="#8ebac5"/></g><g><path d="m125 362.565h-64c-4.142 0-7.5-3.358-7.5-7.5s3.358-7.5 7.5-7.5h64c4.142 0 7.5 3.358 7.5 7.5s-3.358 7.5-7.5 7.5z" fill="#8ebac5"/></g><g><path d="m14 54.565h133.411v82.615h-133.411z" fill="#c8effe"/><path d="m14 54.565h18.589v82.615h-18.589z" fill="#99e6fc"/><g><path d="m130.956 96.565v-42h-15v42h-13.5v-42h-15v42h-13.5v-42h-15v42h-13.5v-42h-15v42h-16.456v15h133.411v-15z" fill="#8ebac5"/></g></g></g><g><path d="m499.5 275.312h-136.411c-6.893 0-12.5-5.607-12.5-12.5v-85.615c0-6.893 5.607-12.5 12.5-12.5h136.411c6.893 0 12.5 5.607 12.5 12.5v85.615c0 6.892-5.607 12.5-12.5 12.5zm-133.911-15h131.411v-80.615h-131.411z" fill="#678d98"/></g><g><path d="m499.5 151.18h-136.411c-6.893 0-12.5-5.607-12.5-12.5v-85.615c0-6.893 5.607-12.5 12.5-12.5h136.411c6.893 0 12.5 5.607 12.5 12.5v85.615c0 6.892-5.607 12.5-12.5 12.5zm-133.911-15h131.411v-80.615h-131.411z" fill="#678d98"/></g><g><path d="m148.911 151.18h-136.411c-6.893 0-12.5-5.607-12.5-12.5v-85.615c0-6.893 5.607-12.5 12.5-12.5h136.411c6.893 0 12.5 5.607 12.5 12.5v85.615c0 6.892-5.608 12.5-12.5 12.5zm-133.911-15h131.411v-80.615h-131.411z" fill="#678d98"/></g><g><path d="m148.911 275.312h-136.411c-6.893 0-12.5-5.607-12.5-12.5v-85.615c0-6.893 5.607-12.5 12.5-12.5h136.411c6.893 0 12.5 5.607 12.5 12.5v85.615c0 6.892-5.608 12.5-12.5 12.5zm-133.911-15h131.411v-80.615h-131.411z" fill="#678d98"/></g></g></svg>