<svg  xmlns="http://www.w3.org/2000/svg"><g><g><rect fill="#57565c" height="448" rx="20" width="368" x="72.701" y="8.29"/><path d="m400.701 264.29v152h-288v-368h288v152" fill="#c6c5ca"/><path d="m384.701 200.29h32v64h-32z" fill="#ffda44"/><path d="m200.701 264.29h112v48h-112z" fill="#57565c"/><g fill="#ffda44"><path d="m240.701 216.29v-64h-24l64-64-8 64h24z"/><path d="m48.701 48.29h24v64h-24z"/><path d="m440.701 48.29h24v64h-24z"/><path d="m48.701 352.29h24v64h-24z"/><path d="m440.701 352.29h24v64h-24z"/><path d="m240.701 456.29h32v48h-32z"/><path d="m336.701 456.29h32v48h-32z"/><path d="m144.701 456.29h32v48h-32z"/></g></g><g><path d="m416 192h-8v-144a8 8 0 0 0 -8-8h-288a8 8 0 0 0 -8 8v368a8 8 0 0 0 8 8h288a8 8 0 0 0 8-8v-144h8a8 8 0 0 0 8-8v-64a8 8 0 0 0 -8-8zm-24 216h-272v-352h272v136h-8a8 8 0 0 0 -8 8v64a8 8 0 0 0 8 8h8zm16-152h-16v-48h16z"/><path d="m200 320h112a8 8 0 0 0 8-8v-48a8 8 0 0 0 -8-8h-112a8 8 0 0 0 -8 8v48a8 8 0 0 0 8 8zm8-48h96v32h-96z"/><path d="m328 336h-144a8 8 0 0 0 0 16h144a8 8 0 0 0 0-16z"/><path d="m296 368h-80a8 8 0 0 0 0 16h80a8 8 0 0 0 0-16z"/><path d="m464 120a8 8 0 0 0 8-8v-64a8 8 0 0 0 -8-8h-16v-12a28.031 28.031 0 0 0 -28-28h-328a28.031 28.031 0 0 0 -28 28v12h-16a8 8 0 0 0 -8 8v64a8 8 0 0 0 8 8h16v224h-16a8 8 0 0 0 -8 8v64a8 8 0 0 0 8 8h16v12a28.031 28.031 0 0 0 28 28h44v40a8 8 0 0 0 8 8h32a8 8 0 0 0 8-8v-40h48v40a8 8 0 0 0 8 8h32a8 8 0 0 0 8-8v-40h48v40a8 8 0 0 0 8 8h32a8 8 0 0 0 8-8v-40h44a28.031 28.031 0 0 0 28-28v-12h16a8 8 0 0 0 8-8v-64a8 8 0 0 0 -8-8h-16v-224zm-16-64h8v48h-8zm-384 352h-8v-48h8zm0-304h-8v-48h8zm104 392h-16v-32h16zm96 0h-16v-32h16zm96 0h-16v-32h16zm72-60a12.01 12.01 0 0 1 -12 12h-328a12.01 12.01 0 0 1 -12-12v-408a12.01 12.01 0 0 1 12-12h328a12.01 12.01 0 0 1 12 12zm24-76v48h-8v-48z"/><path d="m303.29 148.69a8.019 8.019 0 0 0 -7.29-4.69h-14.94l6.88-55.01a8 8 0 0 0 -13.6-6.65l-64 64a8 8 0 0 0 5.66 13.66h16v56a8 8 0 0 0 14.02 5.27l56-64a8.019 8.019 0 0 0 1.27-8.58zm-55.29 46.02v-42.71a8 8 0 0 0 -8-8h-4.69l33.86-33.86-5.11 40.87a8 8 0 0 0 7.94 8.99h6.37z"/></g></g></svg>