<svg id="Layer_1" xmlns="http://www.w3.org/2000/svg"><path d="m84.846 28.32 5.155-3.818-1.974-4.753-6.283.938c-.717-.9-1.543-1.68-2.436-2.383l.945-6.327-4.755-1.977-3.795 5.127c-1.111-.127-2.244-.102-3.387.029l-3.818-5.15-4.753 1.97.938 6.282c-.898.717-1.68 1.547-2.383 2.435l-6.328-.944-1.973 4.756 5.125 3.796c-.127 1.11-.102 2.243.029 3.386l-5.15 3.818 1.969 4.753 6.283-.938c.715.898 1.545 1.676 2.434 2.383l-.943 6.328 4.757 1.976 3.795-5.13c1.111.13 2.244.104 3.387-.026l3.815 5.149 4.754-1.969-.938-6.283c.898-.716 1.68-1.546 2.383-2.435l6.328.944 1.974-4.757-5.126-3.795c.127-1.11.102-2.243-.029-3.385zm-14.846 6.682c-2.76 0-5-2.242-5-5 0-2.764 2.24-5 5-5s5 2.236 5 5c0 2.758-2.24 5-5 5z"/><path d="m30 30c-11.047 0-20.001 8.955-20.001 20 0 5.524 2.237 10.524 5.86 14.141 0 0 .932.932 2.07 2.07s2.071 3.207 2.071 4.596v.859h20c0-.27 0-.553 0-.859 0-1.389.931-3.457 2.07-4.596s2.07-2.07 2.07-2.07c3.623-3.617 5.858-8.617 5.858-14.141.001-11.045-8.952-20-19.998-20z"/><path d="m20 76.666v6.666c0 1.834 1.5 3.334 3.333 3.334h1.667l1.666 3.334h6.666l1.668-3.334h1.667c1.832 0 3.333-1.5 3.333-3.334v-6.666z"/><path d="m49.999 18.333-13.332-8.333v5c-9.649-.014-19.298 3.672-26.668 11.041l4.715 4.713c5.864-5.859 13.69-9.088 21.953-9.088v5z"/><path d="m70 51.666-8.335 13.334h5.001c0 10.123-8.958 18.332-19.999 18.332v6.668c14.723 0 26.667-11.195 26.667-25h4.998z"/></svg>