<svg clip-rule="evenodd" fill-rule="evenodd"  image-rendering="optimizeQuality" shape-rendering="geometricPrecision" text-rendering="geometricPrecision"  xmlns="http://www.w3.org/2000/svg"><g id="Layer_x0020_1"><path d="m237 102c-27 0-14 0-41 0-7 0-12-5-12-12v-57c0-18 15-33 32-33 9 0 17 4 23 10 7 6 10 14 10 23v57c0 7-6 12-12 12z" fill="#ff8274"/><path d="m248 136c-15 0-48 0-63 0-6 0-12-5-12-12v-34c0-6 6-12 12-12h63c6 0 12 6 12 12v34c0 7-6 12-12 12z" fill="#ceced6"/><path d="m335 512h-158c-21 0-37-17-38-37l-13-303c-1-15 5-30 16-41 11-12 27-19 43-19h142c16 0 32 7 43 19 11 11 17 26 16 41l-13 302c-1 21-17 38-38 38z" fill="#848d9c"/><path d="m131 287-1-24h252l-1 24z" fill="#929ba4"/><path d="m342 240h-172c-7 0-12-6-12-12v-65c0-7 5-12 12-12h172c7 0 12 5 12 12v65c0 6-5 12-12 12z" fill="#4cc6de"/><g fill="#ffbd2a"><path d="m256 426c-20 0-36-16-36-36s16-36 36-36 36 16 36 36-16 36-36 36zm0-48c-7 0-12 6-12 12 0 7 5 12 12 12s12-5 12-12c0-6-5-12-12-12z"/><path d="m272 384c-1 0-3 0-4-1-6-1-10-8-8-14l8-27h-24l8 27c2 6-2 13-8 14-7 2-13-1-15-8l-13-41c-1-4 0-8 2-11s6-5 10-5h56c4 0 8 2 10 5s3 7 2 11l-13 41c-1 6-6 9-11 9z"/><path d="m294 457c-4 0-7-2-9-4l-30-32c-4-5-4-12 1-17 4-4 12-4 17 1l18 20 13-21-27-7c-7-1-11-8-9-14 1-7 8-11 14-9l43 10c3 1 7 3 8 7 2 3 1 7-1 11l-28 49c-2 3-5 5-9 6z"/><path d="m218 457h-1c-4-1-7-3-9-6l-28-49c-2-4-3-8-1-11 2-4 5-6 8-7l43-10c6-2 13 2 14 9 2 6-2 13-9 14l-27 7 13 21 18-20c5-5 13-5 17-1 5 5 5 12 1 17l-30 32c-2 2-5 4-9 4z"/></g><path d="m264 355 4-13h-24l4 13c2-1 5-1 8-1s6 0 8 1z" fill="#464646"/><path d="m291 400c-2 6-5 11-9 15l9 10 13-21z" fill="#464646"/><path d="m230 415c-4-4-7-9-9-15l-13 4 13 21z" fill="#464646"/><path d="m244 390c0 5 3 10 8 12h4c7 0 12-5 12-12 0-6-5-12-12-12s-12 6-12 12z" fill="#464646"/></g></svg>