<svg  xmlns="http://www.w3.org/2000/svg"><g id="Page-1" fill="none" fill-rule="evenodd"><g id="026---Electrolytic-Capacitor" fill-rule="nonzero"><path id="Shape" d="m18 37h4v19c0 1.1045695-.8954305 2-2 2s-2-.8954305-2-2z" fill="#bdc3c7"/><path id="Shape" d="m20 0c1.1045695 0 2 .8954305 2 2v19h-4v-19c0-1.1045695.8954305-2 2-2z" fill="#bdc3c7"/><rect id="Rectangle-path" fill="#285680" height="6" rx="1" width="40" y="19"/><rect id="Rectangle-path" fill="#285680" height="6" rx="1" width="40" y="33"/><rect id="Rectangle-path" fill="#464f5d" height="4" rx="2" width="10" y="46"/><path id="Shape" d="m8 8h-1v-1c0-1.1045695-.8954305-2-2-2s-2 .8954305-2 2v1h-1c-1.1045695 0-2 .8954305-2 2s.8954305 2 2 2h1v1c0 1.1045695.8954305 2 2 2s2-.8954305 2-2v-1h1c1.1045695 0 2-.8954305 2-2s-.8954305-2-2-2z" fill="#e64c3c"/></g></g></svg>