<svg id="Layer_1" enable-background="new 0 0 56 56"  xmlns="http://www.w3.org/2000/svg"><g id="_x34_3"><g><g><path d="m34 9.8v30.2l-20.3 11.8-9.7-5.6.1-30.2 20.3-11.8z" fill="#dedffb"/></g></g><g><g><g><g><g><g enable-background="new"><g><g><path d="m34 9.8v30.2l-20.3 11.8v-30.2z" fill="#e9e7fc"/></g><g><g><path d="m31.6 12.8v25.8l-16.6 9.6v1.2l17.6-10.2.1-27z" fill="#fff"/></g><g><path d="m31.6 12.8-16.5 9.6-.1 25.8 16.6-9.6z" fill="#b0b8cf"/></g></g></g><g><g><path d="m13.7 21.6v30.2l-9.7-5.6.1-30.2z" fill="#dedffb"/></g></g><g><g><path d="m34 9.8-20.3 11.8-9.6-5.6 20.3-11.8z" fill="#f3f1fc"/></g></g></g></g><g><path d="m32.6 26.8-17.6 10.2v-1.2l16.6-9.6z" fill="#fff"/></g><g><path d="m32.6 26.8v1l-17.6 10.2v-1z" fill="#e9e7fc"/></g><g><g><g><g><g><g><path d="m26.4 24.5.2-2.1z" fill="#f8f9fe"/></g></g></g><g><g><g><path d="m27.1 27.1 1.9-1.1v-2.1l-1.9 1.1z" fill="#f3f1fc"/></g></g></g><g><g><g><path d="m28.5 25.4c0 .3-.2.6-.4.7s-.3.1-.4 0c0-.1-.1-.1-.1-.2 0-.3.2-.6.4-.7.1-.1.2-.1.3 0 .2-.1.2 0 .2.2z" fill="#4c5c75"/></g></g></g><g><g><g><path d="m28.3 25.7 1.9-1.1v-1.4l-1.9 1.1z" fill="#e9e7fc"/></g></g></g><g><g><g><path d="m28.5 24.3 1.9-1.1c.1-.1.1-.2.1-.3 0-.3-.2-.7-.4-.8l-1.9 1.1c.2.1.4.5.4.8.1.1 0 .2-.1.3z" fill="#f3f1fc"/></g></g></g><g><g><g><path d="m28.7 24.2 1.5-.9c.1-.1.1-.2.1-.3 0-.3-.2-.7-.4-.8l-1.5.9c.2.1.4.5.4.8.1.1 0 .2-.1.3z" fill="#f45170"/></g></g></g><g><g><g><path d="m28.3 23.2 1.9-1.1v-1.4l-1.9 1.1z" fill="#e9e7fc"/></g></g><g><g><path d="m29.9 21.4v-.3l-1.3.7v.3z" fill="#4c5c75"/></g></g><g><g><path d="m29.9 22v-.3l-1.3.7v.3z" fill="#4c5c75"/></g></g></g><g><g><g><path d="m28.3 21.8 1.9-1.1-1.2-.7-1.8 1.1z" fill="#f8f9fe"/></g></g></g><g><g><g><path d="m26.4 26.6.8.5v-2.1l1.1.7v-1.4c.2.1.4 0 .4-.3s-.2-.7-.4-.8v-1.4l-1.1-.7v-2.1l-.8-.5v2.1 3.8z" fill="#dedffb"/></g><g><path d="m26.5 26.5v-1.7-4.2-1.7l.4.2v2.1l1.1.7v1.4l.1.1c.2.1.3.4.3.6 0 .1 0 .2-.1.2 0 0 0 0-.1 0l-.1-.2v1.4l-1.1-.7v2.1z" fill="#e9e7fc"/></g></g></g><g><g><g><path d="m27.2 21.1 1.8-1.1v-2.1l-1.8 1.1z" fill="#e9e7fc"/></g></g></g><g><g><g><path d="m27.2 19 1.8-1.1-.7-.4-1.9 1.1z" fill="#fff"/></g></g></g><g><g enable-background="new"><g><g><g><path d="m30.1 24.7c.1-.7-.3-1.1-1.1-1.2l-.1.2 1.1 1.2z" fill="#df3260"/></g></g></g><g><g><g><path d="m31.1 24.1-1.1-1.2-1 .6 1.1 1.2c.3-.1.6-.3 1-.6z" fill="#e93565"/></g></g></g><g><g><g><path d="m30.1 24.7-.2.2 1.1-.6.1-.2z" fill="#cc104a"/></g></g></g></g></g><g><g><g><path d="m28.5 19.3c0 .2-.2.5-.4.6-.1.1-.3.1-.3 0 0 0 0-.1 0-.2 0-.2.2-.5.4-.6.1-.1.2-.1.3 0z" fill="#4c5c75"/></g></g></g></g></g><g><g><g><g><g><path d="m24.5 25.6.2-2.1z" fill="#f8f9fe"/></g></g></g><g><g><g><path d="m25.2 28.2 1.9-1.1v-2.1l-1.8 1.1z" fill="#f3f1fc"/></g></g></g><g><g><g><path d="m26.6 26.5c0 .3-.2.6-.4.7s-.3.1-.4 0c0-.1-.1-.1-.1-.2 0-.3.2-.6.4-.7.1-.1.2-.1.3 0 .2-.1.2 0 .2.2z" fill="#4c5c75"/></g></g></g><g><g><g><path d="m26.4 26.8 1.9-1.1v-1.4l-1.9 1.1z" fill="#e9e7fc"/></g></g></g><g><g><g><path d="m26.7 25.4 1.9-1.1c.1-.1.1-.2.1-.3 0-.3-.2-.7-.4-.8l-1.9 1.1c.2.1.4.5.4.8 0 .1-.1.2-.1.3z" fill="#f3f1fc"/></g></g></g><g><g><g><path d="m26.8 25.3 1.5-.9c.1-.1.1-.2.1-.3 0-.3-.2-.7-.4-.8l-1.5.9c.2.1.4.5.4.8.1.1 0 .2-.1.3z" fill="#f45170"/></g></g></g><g><g><g><path d="m26.4 24.3 1.9-1.1v-1.4l-1.9 1.1z" fill="#e9e7fc"/></g></g><g><g><path d="m28 22.5v-.3l-1.3.7v.3z" fill="#4c5c75"/></g></g><g><g><path d="m28 23.1v-.3l-1.3.7v.3z" fill="#4c5c75"/></g></g></g><g><g><g><path d="m26.4 22.9 1.9-1.1-1.1-.7-1.9 1.1z" fill="#f8f9fe"/></g></g></g><g><g><g><path d="m24.5 27.7.8.5v-2.1l1.1.7v-1.4c.2.1.4 0 .4-.3s-.2-.7-.4-.8v-1.4l-1.1-.7v-2.1l-.8-.5v2.1 3.8z" fill="#dedffb"/></g><g><path d="m24.6 27.6v-1.7-4.2-1.7l.4.2v2.1l1.1.7v1.4l.1.1c.2.1.3.4.3.6 0 .1 0 .2-.1.2 0 0 0 0-.1 0l-.3-.2v1.4l-1.1-.7v2.1z" fill="#e9e7fc"/></g></g></g><g><g><g><path d="m25.3 22.2 1.9-1.1v-2.1l-1.9 1.1z" fill="#e9e7fc"/></g></g></g><g><g><g><path d="m25.3 20.1 1.9-1.1-.8-.4-1.9 1.1z" fill="#fff"/></g></g></g><g><g enable-background="new"><g><g><g><path d="m28.2 25.8c.1-.7-.4-1-1.1-1.2l-.1.2 1.1 1.2z" fill="#df3260"/></g></g></g><g><g><g><path d="m29.2 25.2-1.1-1.2-1 .6 1.1 1.2c.3-.1.6-.3 1-.6z" fill="#e93565"/></g></g></g><g><g><g><path d="m28.2 25.8-.1.2 1-.6.1-.2z" fill="#cc104a"/></g></g></g></g></g><g><g><g><path d="m26.6 20.4c0 .2-.2.5-.4.6-.1.1-.3.1-.3 0 0 0 0-.1 0-.2 0-.2.2-.5.4-.6.1-.1.2-.1.3 0z" fill="#4c5c75"/></g></g></g></g></g><g><g><g><g><g><path d="m22.6 26.7.2-2.1z" fill="#f8f9fe"/></g></g></g><g><g><g><path d="m23.4 29.3 1.8-1.1.1-2.1-1.9 1.1z" fill="#f3f1fc"/></g></g></g><g><g><g><path d="m24.7 27.6c0 .3-.2.6-.4.7s-.3.1-.4 0c0-.1-.1-.1-.1-.2 0-.3.2-.6.4-.7.1-.1.2-.1.3 0 .2-.1.2 0 .2.2z" fill="#4c5c75"/></g></g></g><g><g><g><path d="m24.5 27.9 1.9-1.1v-1.4l-1.9 1.1z" fill="#e9e7fc"/></g></g></g><g><g><g><path d="m24.8 26.5 1.9-1.1c.1-.1.1-.2.1-.3 0-.3-.2-.7-.4-.8l-1.9 1.1c.2.1.4.5.4.8 0 .1 0 .2-.1.3z" fill="#f3f1fc"/></g></g></g><g><g><g><path d="m25 26.4 1.5-.9c.1-.1.1-.2.1-.3 0-.3-.2-.7-.4-.8l-1.5.9c.2.1.4.5.4.8 0 .1-.1.2-.1.3z" fill="#f45170"/></g></g></g><g><g><g><path d="m24.5 25.4 1.9-1.1v-1.4l-1.9 1.1z" fill="#e9e7fc"/></g></g><g><g><path d="m26.1 23.6v-.3l-1.3.7v.3z" fill="#4c5c75"/></g></g><g><g><path d="m26.1 24.1v-.2l-1.3.7v.3z" fill="#4c5c75"/></g></g></g><g><g><g><path d="m24.5 24 1.9-1.1-1.1-.7-1.9 1.1z" fill="#f8f9fe"/></g></g></g><g><g><g><path d="m22.6 28.8.8.5v-2.1l1.1.7v-1.4c.2.1.4 0 .4-.3s-.2-.7-.4-.8v-1.4l-1.1-.7v-2.1l-.8-.5v2.1 3.8z" fill="#dedffb"/></g><g><path d="m22.8 28.7v-1.7-4.2-1.7l.4.2v2.1l1.1.7v1.4l.1.1c.2.1.3.4.3.6 0 .1 0 .2-.1.2 0 0 0 0-.1 0l-.3-.2v1.4l-1.1-.7v2.1z" fill="#e9e7fc"/></g></g></g><g><g><g><path d="m23.4 23.3 1.9-1.1v-2.1l-1.9 1.1z" fill="#e9e7fc"/></g></g></g><g><g><g><path d="m23.4 21.2 1.9-1.1-.8-.4-1.9 1.1z" fill="#fff"/></g></g></g><g><g enable-background="new"><g><g><g><path d="m26.3 26.9c-.2-.4-.6-.8-1.1-1.2l-.1.2 1.1 1.2z" fill="#df3260"/></g></g></g><g><g><g><path d="m27.3 26.3-1.1-1.2-1 .6 1.1 1.2c.3-.1.7-.3 1-.6z" fill="#e93565"/></g></g></g><g><g><g><path d="m26.3 26.9-.1.2 1-.6.1-.2z" fill="#cc104a"/></g></g></g></g></g><g><g><g><path d="m24.8 21.5c0 .2-.2.5-.4.6-.1.1-.3.1-.3 0 0 0 0-.1 0-.2 0-.2.2-.5.4-.6.1-.1.2-.1.3 0-.1 0 0 .1 0 .2z" fill="#4c5c75"/></g></g></g></g></g><g><g><g><g><g><path d="m20.7 27.8.2-2.1z" fill="#f8f9fe"/></g></g></g><g><g><g><path d="m21.5 30.4 1.9-1.1v-2.1l-1.9 1.1z" fill="#f3f1fc"/></g></g></g><g><g><g><path d="m22.8 28.6c0 .3-.2.6-.4.7s-.3.1-.4 0c0-.1-.1-.1-.1-.2 0-.3.2-.6.4-.7.1-.1.2-.1.3 0 .2 0 .2.1.2.2z" fill="#4c5c75"/></g></g></g><g><g><g><path d="m22.6 29 1.9-1.1v-1.4l-1.9 1.1z" fill="#e9e7fc"/></g></g></g><g><g><g><path d="m22.9 27.6 1.9-1.1c.1-.1.1-.2.1-.3 0-.3-.2-.7-.4-.8l-1.9 1.1c.2.1.4.5.4.8 0 .1 0 .2-.1.3z" fill="#f3f1fc"/></g></g></g><g><g><g><path d="m23.1 27.5 1.5-.9c.1-.1.1-.2.1-.3 0-.3-.2-.7-.4-.8l-1.5.9c.2.1.4.5.4.8 0 .1 0 .2-.1.3z" fill="#f45170"/></g></g></g><g><g><g><path d="m22.6 26.5 1.9-1.1v-1.4l-1.9 1.1z" fill="#e9e7fc"/></g></g><g><g><path d="m24.2 24.7v-.3l-1.3.7v.3z" fill="#4c5c75"/></g></g><g><g><path d="m24.2 25.2v-.2l-1.3.7v.3z" fill="#4c5c75"/></g></g></g><g><g><g><path d="m22.6 25.1 1.9-1.1-1.1-.7-1.9 1.1z" fill="#f8f9fe"/></g></g></g><g><g><g><path d="m20.7 29.9.8.5v-2.1l1.1.7v-1.4c.2.1.4 0 .4-.3s-.2-.7-.4-.8v-1.4l-1.1-.7v-2.1l-.8-.5v2.1 3.8z" fill="#dedffb"/></g><g><path d="m20.9 29.8v-1.7-4.2-1.7l.4.2v2.1l1.1.7v1.4l.1.1c.2.1.3.4.3.6 0 .1 0 .2-.1.2 0 0 0 0-.1 0l-.3-.2v1.4l-1-.7v2.1z" fill="#e9e7fc"/></g></g></g><g><g><g><path d="m21.5 24.4 1.9-1.1v-2.1l-1.9 1.1z" fill="#e9e7fc"/></g></g></g><g><g><g><path d="m21.5 22.3 1.9-1.1-.8-.4-1.9 1.1z" fill="#fff"/></g></g></g><g><g enable-background="new"><g><g><g><path d="m24.4 28c-.1-.4-.6-.8-1.1-1.2l-.1.2 1.1 1.2z" fill="#df3260"/></g></g></g><g><g><g><path d="m25.4 27.4-1.1-1.2-1 .6 1.1 1.2c.4-.2.8-.4 1-.6z" fill="#e93565"/></g></g></g><g><g><g><path d="m24.4 28-.1.2 1-.6.1-.2z" fill="#cc104a"/></g></g></g></g></g><g><g><g><path d="m22.9 22.6c0 .2-.2.5-.4.6-.1.1-.3.1-.3 0 0 0 0-.1 0-.2 0-.2.2-.5.4-.6.1-.1.2-.1.3 0-.1 0 0 .1 0 .2z" fill="#4c5c75"/></g></g></g></g></g><g><g><g><g><g><path d="m18.8 28.9.2-2.1z" fill="#f8f9fe"/></g></g></g><g><g><g><path d="m19.6 31.5 1.9-1.1v-2.1l-1.9 1.1z" fill="#f3f1fc"/></g></g></g><g><g><g><path d="m21 29.7c0 .3-.2.6-.4.7s-.3.1-.4 0c0-.1-.1-.1-.1-.2 0-.3.2-.6.4-.7.1-.1.2-.1.3 0 .1 0 .2.1.2.2z" fill="#4c5c75"/></g></g></g><g><g><g><path d="m20.7 30 1.9-1v-1.4l-1.9 1.1z" fill="#e9e7fc"/></g></g></g><g><g><g><path d="m21 28.7 1.9-1.1c.1-.1.1-.2.1-.3 0-.3-.2-.7-.4-.8l-1.9 1.1c.2.1.4.5.4.8 0 .1 0 .2-.1.3z" fill="#f3f1fc"/></g></g></g><g><g><g><path d="m21.2 28.6 1.5-.9c.1-.1.1-.2.1-.3 0-.3-.2-.7-.4-.8l-1.5.9c.2.1.4.5.4.8 0 .1 0 .2-.1.3z" fill="#f45170"/></g></g></g><g><g><g><path d="m20.7 27.6 1.9-1.1v-1.4l-1.9 1.1z" fill="#e9e7fc"/></g></g><g><g><path d="m22.3 25.8v-.3l-1.2.7v.3z" fill="#4c5c75"/></g></g><g><g><path d="m22.3 26.3v-.2l-1.2.7v.3z" fill="#4c5c75"/></g></g></g><g><g><g><path d="m20.7 26.2 1.9-1.1-1.1-.7-1.9 1.1z" fill="#f8f9fe"/></g></g></g><g><g><g><path d="m18.8 31 .8.5v-2.1l1.1.7v-1.4c.2.1.4 0 .4-.3s-.2-.7-.4-.8v-1.4l-1.1-.7v-2.1l-.8-.4v2.1 3.8z" fill="#dedffb"/></g><g><path d="m19 30.9v-1.7-4.2-1.7l.4.2v2.1l1.1.7v1.4l.1.1c.2.1.3.4.3.6 0 .1 0 .2-.1.2 0 0 0 0-.1 0l-.3-.2v1.4l-1.1-.7v2.1z" fill="#e9e7fc"/></g></g></g><g><g><g><path d="m19.6 25.5 1.9-1.1v-2.1l-1.9 1.1z" fill="#e9e7fc"/></g></g></g><g><g><g><path d="m19.6 23.4 1.9-1.1-.8-.4-1.9 1.1z" fill="#fff"/></g></g></g><g><g enable-background="new"><g><g><g><path d="m22.5 29.1c-.2-.4-.6-.8-1.1-1.2l-.1.2 1.1 1.2z" fill="#df3260"/></g></g></g><g><g><g><path d="m23.5 28.5-1.1-1.2-1 .6 1.1 1.2c.4-.2.7-.4 1-.6z" fill="#e93565"/></g></g></g><g><g><g><path d="m22.5 29.1-.1.2 1-.6.1-.2z" fill="#cc104a"/></g></g></g></g></g><g><g><g><path d="m21 23.7c0 .2-.2.5-.4.6-.1.1-.3.1-.3 0 0 0 0-.1 0-.2 0-.2.2-.5.4-.6.1-.1.2-.1.3 0-.1 0 0 .1 0 .2z" fill="#4c5c75"/></g></g></g></g></g><g><g><g><g><g><path d="m16.9 30 .3-2.1z" fill="#f8f9fe"/></g></g></g><g><g><g><path d="m17.7 32.6 1.9-1.1v-2.1l-1.9 1.1z" fill="#f3f1fc"/></g></g></g><g><g><g><path d="m19.1 30.8c0 .3-.2.6-.4.7s-.3.1-.4 0c0-.1-.1-.1-.1-.2 0-.3.2-.6.4-.7.1-.1.2-.1.3 0 .1 0 .2.1.2.2z" fill="#4c5c75"/></g></g></g><g><g><g><path d="m18.8 31.1 1.9-1.1v-1.3l-1.8 1z" fill="#e9e7fc"/></g></g></g><g><g><g><path d="m19.1 29.8 1.9-1.1c.1-.1.1-.2.1-.3 0-.3-.2-.7-.4-.8l-1.9 1.1c.2.1.4.5.4.8.1.1 0 .2-.1.3z" fill="#f3f1fc"/></g></g></g><g><g><g><path d="m19.3 29.7 1.5-.9c.1-.1.1-.2.1-.3 0-.3-.2-.7-.4-.8l-1.5.8c.2.1.4.5.4.8 0 .2 0 .3-.1.4z" fill="#f45170"/></g></g></g><g><g><g><path d="m18.9 28.6 1.8-1v-1.4l-1.8 1.1z" fill="#e9e7fc"/></g></g><g><g><path d="m20.4 26.9v-.3l-1.2.7v.3z" fill="#4c5c75"/></g></g><g><g><path d="m20.4 27.4v-.3l-1.2.8v.3z" fill="#4c5c75"/></g></g></g><g><g><g><path d="m18.9 27.3 1.8-1.1-1.1-.7-1.9 1.1z" fill="#f8f9fe"/></g></g></g><g><g><g><path d="m16.9 32.1.8.5v-2.1l1.1.7v-1.4c.2.1.4 0 .4-.3s-.2-.7-.4-.8v-1.4l-1.1-.7v-2.1l-.8-.5v2.1 3.8z" fill="#dedffb"/></g><g><path d="m17.1 32v-1.7-4.2-1.7l.4.2v2.1l1.1.7v1.4l.1.1c.2.1.3.4.3.6 0 .1 0 .2-.1.2 0 0 0 0-.1 0l-.3-.2v1.4l-1.1-.7v2.1z" fill="#e9e7fc"/></g></g></g><g><g><g><path d="m17.7 26.6 1.9-1.1v-2.1l-1.9 1.1z" fill="#e9e7fc"/></g></g></g><g><g><g><path d="m17.7 24.5 1.9-1.1-.8-.4-1.9 1.1z" fill="#fff"/></g></g></g><g><g enable-background="new"><g><g><g><path d="m20.6 30.2c-.3-.4-.6-.8-1.1-1.2l-.1.2 1.1 1.2z" fill="#df3260"/></g></g></g><g><g><g><path d="m21.7 29.6-1.1-1.2-1 .6 1.1 1.2c.2 0 .6-.3 1-.6z" fill="#e93565"/></g></g></g><g><g><g><path d="m20.6 30.2-.1.2 1-.6.2-.2z" fill="#cc104a"/></g></g></g></g></g><g><g><g><path d="m19.1 24.8c0 .2-.2.5-.4.6-.1.1-.3.1-.3 0 0 0 0-.1 0-.2 0-.2.2-.5.4-.6.1-.1.2-.1.3 0z" fill="#4c5c75"/></g></g></g></g></g></g><g><g><g><path d="m25.4 34.7-9.4 5.2v4.8l9.4-5.2z" fill="#e3e7f0"/></g><g><path d="m25.1 37.6v1.7l-8.8 4.9v-1.6z" fill="#4c5c75"/></g><g><path d="m16.7 42.8 8-4.4v.6l-8 4.4z" fill="#b0b8cf"/></g></g><g><path d="m16.7 41.1 8-4.4v.6l-8 4.4z" fill="#4c5c75"/></g><g><path d="m23.1 36.5v.6l1.6-.9v-.6z" fill="#e93565"/></g></g><g><g><g><g><g><path d="m28.3 36.9.3-1.9z" fill="#f8f9fe"/></g></g></g><g><g><g><path d="m29.1 39.4 1.8-1v-2l-1.8 1z" fill="#f3f1fc"/></g></g></g><g><g><g><path d="m30.4 37.8c0 .3-.2.6-.4.7s-.3.1-.4 0c0 0 0-.1 0-.2 0-.3.2-.6.4-.7.1-.1.2-.1.3 0 .1 0 .1 0 .1.2z" fill="#4c5c75"/></g></g></g><g><g><g><path d="m30.2 38.1 1.8-1.1v-1.3l-1.8 1z" fill="#e9e7fc"/></g></g></g><g><g><g><path d="m30.4 36.7 1.8-1c.1 0 .1-.2.1-.3 0-.3-.2-.6-.4-.7l-1.8 1c.2.1.4.5.4.7.1.2 0 .3-.1.3z" fill="#f3f1fc"/></g></g></g><g><g><g><path d="m30.6 36.6 1.4-.8c.1 0 .1-.2.1-.3 0-.3-.2-.6-.4-.7l-1.4.8c.2.1.4.5.4.7s0 .3-.1.3z" fill="#f45170"/></g></g></g><g><g><g><path d="m30.2 35.7 1.8-1.1v-1.3l-1.8 1z" fill="#e9e7fc"/></g></g><g><g><path d="m31.7 34v-.3l-1.2.7v.3z" fill="#4c5c75"/></g></g><g><g><path d="m31.7 34.5v-.3l-1.2.7v.3z" fill="#4c5c75"/></g></g></g><g><g><g><path d="m30.2 34.3 1.8-1-1.1-.6-1.8 1z" fill="#f8f9fe"/></g></g></g><g><g><g><path d="m28.3 39 .7.4v-2l1.1.6v-1.3c.2.1.4 0 .4-.3s-.2-.6-.4-.7v-1.3l-1.1-.6v-2l-.7-.4v2 3.6z" fill="#dedffb"/></g><g><path d="m28.5 38.9v-1.6-4-1.6l.4.2v2l1.1.6v1.3h.1c.2.1.3.4.3.6 0 .1 0 .2-.1.2 0 0 0 0-.1 0l-.2-.2v1.3l-1.1-.6v2z" fill="#e9e7fc"/></g></g></g><g><g><g><path d="m29.1 33.7 1.8-1v-2l-1.8 1z" fill="#e9e7fc"/></g></g></g><g><g><g><path d="m29.1 31.7 1.8-1-.7-.5-1.8 1.1z" fill="#fff"/></g></g></g><g><g><g><path d="m30.4 32c0 .2-.2.5-.3.6s-.3.1-.3 0c0 0 0-.1 0-.2 0-.2.2-.5.4-.6.1-.1.2-.1.3 0-.1 0-.1.1-.1.2z" fill="#4c5c75"/></g></g></g></g></g><g><g><g><g><g><path d="m26.5 38 .3-2z" fill="#f8f9fe"/></g></g></g><g><g><g><path d="m27.3 40.5 1.8-1.1v-2l-1.8 1.1z" fill="#f3f1fc"/></g></g></g><g><g><g><path d="m28.6 38.8c0 .3-.2.6-.4.7s-.3.1-.4 0c0 0 0-.1 0-.2 0-.3.2-.6.4-.7.1-.1.2-.1.3 0 0 0 .1.1.1.2z" fill="#4c5c75"/></g></g></g><g><g><g><path d="m28.4 39.1 1.8-1v-1.4l-1.8 1.1z" fill="#e9e7fc"/></g></g></g><g><g><g><path d="m28.6 37.8 1.8-1c.1 0 .1-.2.1-.3 0-.3-.2-.6-.4-.7l-1.8 1c.2.1.4.5.4.7.1.1 0 .2-.1.3z" fill="#f3f1fc"/></g></g></g><g><g><g><path d="m28.8 37.7 1.4-.8c.1 0 .1-.2.1-.3 0-.3-.2-.6-.4-.7l-1.4.8c.2.1.4.5.4.7 0 .1 0 .2-.1.3z" fill="#f45170"/></g></g></g><g><g><g><path d="m28.4 36.7 1.8-1v-1.4l-1.8 1.1z" fill="#e9e7fc"/></g></g><g><g><path d="m29.9 35v-.3l-1.2.7v.3z" fill="#4c5c75"/></g></g><g><g><path d="m29.9 35.6v-.3l-1.2.7v.3z" fill="#4c5c75"/></g></g></g><g><g><g><path d="m28.4 35.4 1.8-1.1-1.1-.6-1.8 1.1z" fill="#f8f9fe"/></g></g></g><g><g><g><path d="m26.5 40 .7.4v-2l1.1.6v-1.3c.2.1.4 0 .4-.3s-.2-.6-.4-.7v-1.3l-1.1-.6v-2l-.7-.4v2 3.6z" fill="#dedffb"/></g><g><path d="m26.7 39.9v-1.6-4-1.6l.4.2v2l1.1.6v1.3h.1c.2.1.3.4.3.6 0 .1 0 .2-.1.2 0 0 0 0-.1 0l-.3-.1v1.3l-1.1-.6v2z" fill="#e9e7fc"/></g></g></g><g><g><g><path d="m27.3 34.8 1.8-1.1v-2l-1.8 1.1z" fill="#e9e7fc"/></g></g></g><g><g><g><path d="m27.3 32.8 1.8-1.1-.7-.4-1.8 1z" fill="#fff"/></g></g></g><g><g enable-background="new"><g><g enable-background="new"><g><g><g><path d="m31.1 37.6-.2.2-.9.6-1-1.2.1-.2 1-.5z" fill="#cc104a"/></g></g></g></g></g><g><g><g><path d="m30.1 38.2-1-1.2-.2.2 1.1 1.2z" fill="#df3260"/></g></g></g><g><g><g><path d="m31.1 37.6-1.1-1.1-.9.5 1 1.2z" fill="#e93565"/></g></g></g><g><g><g><path d="m30.1 38.2-.1.2.9-.6.2-.2z" fill="#cc104a"/></g></g></g></g></g><g><g><g><path d="m28.6 33c0 .2-.2.5-.3.6s-.3.1-.3 0c0 0 0-.1 0-.2 0-.2.2-.5.4-.6.1-.1.2-.1.3 0-.1.1-.1.1-.1.2z" fill="#4c5c75"/></g></g></g></g></g><g><g enable-background="new"><g><g><path d="m33.3 11.8-.1 28 17.9 10.4c.3-11.3.5-22.7.1-28-3-2.7-10.5-6.6-17.9-10.4zm16.8 35.4-14.7-8.5.1-24.3 14.7 8.5z" fill="#1d2943"/></g><g><g><g><path d="m35.4 14.4v24.3l-1 .5.1-25.4z" fill="#111d33"/></g><g><path d="m50.1 47.2v1l-15.7-9 1-.5z" fill="#4c5c75"/></g></g></g></g></g></g><g opacity=".5"><path d="m35.4 14.4v24.3l14.7 8.5v-24.3z" fill="#6bb4f9"/></g></g><g><g enable-background="new"><g><g><path d="m33.7 15.7v2.6c0 .1 0 .1-.1.2-.2.1-.5.1-.7 0-.1-.1-.1-.1-.1-.2v-2.6c0 .1.1-.1.2 0 .2.1.4.1.6 0 .1-.1.1 0 .1 0z" fill="#9ea9c9"/></g></g><g><g><path d="m33.6 15.5c.2.1.2.3 0 .4s-.5.1-.7 0-.2-.3 0-.4.5-.1.7 0z" fill="#c9cee2"/></g></g></g></g><g><g enable-background="new"><g><g><path d="m33.7 25.5v2.6c0 .1 0 .1-.1.2-.2.1-.5.1-.7 0-.1-.1-.1-.1-.1-.2v-2.6c0 .1.1-.1.2-.1.2.1.4.1.6 0 .1 0 .1.2.1.1z" fill="#9ea9c9"/></g></g><g><g><path d="m33.6 25.3c.2.1.2.3 0 .4s-.5.1-.7 0-.2-.3 0-.4.5-.1.7 0z" fill="#c9cee2"/></g></g></g></g><g><g enable-background="new"><g><g><path d="m33.7 35.7v2.6c0 .1 0 .1-.1.2-.2.1-.5.1-.7 0-.1-.1-.1-.1-.1-.2v-2.6c0 .1.1 0 .2.1.2.1.4 0 .6-.1.1-.1.1 0 .1 0z" fill="#9ea9c9"/></g></g><g><g><path d="m33.6 35.5c.2.1.2.3 0 .4s-.5.1-.7 0-.2-.3 0-.4.5-.1.7 0z" fill="#c9cee2"/></g></g></g></g><g><g enable-background="new"><g><g><g><path d="m31.9 37.1c-.2-.4-.6-.8-1-1.2l-.1.2 1 1.2z" fill="#df3260"/></g></g></g><g><g><g><path d="m32.9 36.6-1-1.2-1 .6 1 1.2c.2-.1.6-.3 1-.6z" fill="#e93565"/></g></g></g><g><g><g><path d="m31.9 37.1-.1.3.9-.6.2-.2z" fill="#cc104a"/></g></g></g></g></g></g><g><path d="m40.5 29.4c-1 0-1.7.8-1.7 1.8 0-1-.8-1.8-1.7-1.8 1 0 1.7-.8 1.7-1.8 0 1 .7 1.8 1.7 1.8z" fill="#f8f9fe"/></g></g></g><g><g><path d="m33.3 11.8.8-.4 17.9 10.4-.7.4z" fill="#4c5c75"/></g></g><g><g><path d="m51.3 22.2.7-.4-.1 28-.7.4z" fill="#111d33"/></g></g></g></svg>