<svg id="Layer_1" enable-background="new 0 0 74 74"  xmlns="http://www.w3.org/2000/svg"><g><g><path d="m9.41 19.16h55.17v35.68h-55.17z" fill="#e2e3e7"/></g><g><path d="m64.59 55.34h-55.18c-.28 0-.5-.22-.5-.5v-35.68c0-.28.22-.5.5-.5h55.17c.28 0 .5.22.5.5v35.68c.01.28-.22.5-.49.5zm-54.68-1h54.17v-34.68h-54.17z"/></g><g><path d="m46.2 55.34h-18.4c-.28 0-.5-.22-.5-.5v-35.68c0-.28.22-.5.5-.5h18.4c.28 0 .5.22.5.5v35.68c0 .28-.23.5-.5.5zm-17.9-1h17.4v-34.68h-17.4z"/></g><g><path d="m9.41 5.5h55.17v13.66h-55.17z" fill="#c6c6c6"/></g><g><path d="m64.59 19.66h-55.18c-.28 0-.5-.22-.5-.5v-13.66c0-.28.22-.5.5-.5h55.17c.28 0 .5.22.5.5v13.66c.01.27-.22.5-.49.5zm-54.68-1h54.17v-12.66h-54.17z"/></g><g><path d="m9.41 54.84h55.17v13.66h-55.17z" fill="#c6c6c6"/></g><g><path d="m37 69c-.28 0-.5-.22-.5-.5v-13.66c0-.28.22-.5.5-.5s.5.22.5.5v13.66c0 .28-.22.5-.5.5z"/></g><g><path d="m55.39 69c-.28 0-.5-.22-.5-.5v-13.66c0-.28.22-.5.5-.5s.5.22.5.5v13.66c0 .28-.22.5-.5.5z"/></g><g><path d="m18.61 69c-.28 0-.5-.22-.5-.5v-13.66c0-.28.22-.5.5-.5s.5.22.5.5v13.66c0 .28-.22.5-.5.5z"/></g><g><path d="m37 19.66c-.28 0-.5-.22-.5-.5v-13.66c0-.28.22-.5.5-.5s.5.22.5.5v13.66c0 .27-.22.5-.5.5z"/></g><g><path d="m55.39 19.66c-.28 0-.5-.22-.5-.5v-13.66c0-.28.22-.5.5-.5s.5.22.5.5v13.66c0 .27-.22.5-.5.5z"/></g><g><path d="m18.61 19.66c-.28 0-.5-.22-.5-.5v-13.66c0-.28.22-.5.5-.5s.5.22.5.5v13.66c0 .27-.22.5-.5.5z"/></g><g><path d="m64.59 69h-55.18c-.28 0-.5-.22-.5-.5v-13.66c0-.28.22-.5.5-.5h55.17c.28 0 .5.22.5.5v13.66c.01.28-.22.5-.49.5zm-54.68-1h54.17v-12.66h-54.17z"/></g><g><g><path d="m15.88 29.03h5.47v15.93h-5.47z" fill="#333"/></g><g><path d="m21.34 45.47h-5.47c-.28 0-.5-.22-.5-.5v-15.94c0-.28.22-.5.5-.5h5.47c.28 0 .5.22.5.5v15.93c0 .28-.22.51-.5.51zm-4.96-1h4.47v-14.94h-4.47z"/></g><g><path d="m15.88 33.7h5.47v4.06h-5.47z" fill="#f66"/></g><g><path d="m21.34 38.26h-5.47c-.28 0-.5-.22-.5-.5v-4.06c0-.28.22-.5.5-.5h5.47c.28 0 .5.22.5.5v4.06c0 .28-.22.5-.5.5zm-4.96-1h4.47v-3.06h-4.47z"/></g><g><path d="m13.77 37.76h9.68v3.17h-9.68z" fill="#f66"/></g><g><path d="m23.45 41.42h-9.68c-.28 0-.5-.22-.5-.5v-3.17c0-.28.22-.5.5-.5h9.68c.28 0 .5.22.5.5v3.17c0 .28-.22.5-.5.5zm-9.18-1h8.68v-2.17h-8.68z"/></g></g><g><g><path d="m52.66 29.03h5.47v15.93h-5.47z" fill="#333"/></g><g><path d="m58.12 45.47h-5.47c-.28 0-.5-.22-.5-.5v-15.94c0-.28.22-.5.5-.5h5.47c.28 0 .5.22.5.5v15.93c0 .28-.22.51-.5.51zm-4.96-1h4.47v-14.94h-4.47z"/></g><g><path d="m52.66 33.7h5.47v4.06h-5.47z" fill="#f66"/></g><g><path d="m58.12 38.26h-5.47c-.28 0-.5-.22-.5-.5v-4.06c0-.28.22-.5.5-.5h5.47c.28 0 .5.22.5.5v4.06c0 .28-.22.5-.5.5zm-4.96-1h4.47v-3.06h-4.47z"/></g><g><path d="m50.55 37.76h9.68v3.17h-9.68z" fill="#f66"/></g><g><path d="m60.23 41.42h-9.68c-.28 0-.5-.22-.5-.5v-3.17c0-.28.22-.5.5-.5h9.68c.28 0 .5.22.5.5v3.17c0 .28-.22.5-.5.5zm-9.18-1h8.68v-2.17h-8.68z"/></g></g><g><g><path d="m34.27 29.03h5.47v15.93h-5.47z" fill="#333"/></g><g><path d="m39.73 45.47h-5.46c-.28 0-.5-.22-.5-.5v-15.94c0-.28.22-.5.5-.5h5.46c.28 0 .5.22.5.5v15.93c0 .28-.22.51-.5.51zm-4.96-1h4.46v-14.94h-4.46z"/></g><g><path d="m34.27 33.7h5.47v4.06h-5.47z" fill="#f66"/></g><g><path d="m39.73 38.26h-5.46c-.28 0-.5-.22-.5-.5v-4.06c0-.28.22-.5.5-.5h5.46c.28 0 .5.22.5.5v4.06c0 .28-.22.5-.5.5zm-4.96-1h4.46v-3.06h-4.46z"/></g><g><path d="m32.16 37.76h9.68v3.17h-9.68z" fill="#f66"/></g><g><path d="m41.84 41.42h-9.68c-.28 0-.5-.22-.5-.5v-3.17c0-.28.22-.5.5-.5h9.68c.28 0 .5.22.5.5v3.17c0 .28-.22.5-.5.5zm-9.18-1h8.68v-2.17h-8.68z"/></g></g><g><g><circle cx="55.39" cy="12.33" fill="#333" r="2.5"/></g><g><path d="m55.39 15.33c-1.65 0-3-1.35-3-3s1.35-3 3-3 3 1.35 3 3-1.35 3-3 3zm0-5c-1.1 0-2 .9-2 2s.9 2 2 2 2-.9 2-2-.9-2-2-2z"/></g></g><g><g><circle cx="37" cy="12.33" fill="#333" r="2.5"/></g><g><path d="m37 15.33c-1.65 0-3-1.35-3-3s1.35-3 3-3 3 1.35 3 3-1.35 3-3 3zm0-5c-1.1 0-2 .9-2 2s.9 2 2 2 2-.9 2-2-.9-2-2-2z"/></g></g><g><g><circle cx="18.61" cy="12.33" fill="#333" r="2.5"/></g><g><path d="m18.61 15.33c-1.65 0-3-1.35-3-3s1.35-3 3-3 3 1.35 3 3-1.35 3-3 3zm0-5c-1.1 0-2 .9-2 2s.9 2 2 2 2-.9 2-2-.9-2-2-2z"/></g></g><g><g><circle cx="55.39" cy="61.67" fill="#333" r="2.5"/></g><g><path d="m55.39 64.67c-1.65 0-3-1.35-3-3s1.35-3 3-3 3 1.35 3 3-1.35 3-3 3zm0-5c-1.1 0-2 .9-2 2s.9 2 2 2 2-.9 2-2-.9-2-2-2z"/></g></g><g><g><circle cx="37" cy="61.67" fill="#333" r="2.5"/></g><g><path d="m37 64.67c-1.65 0-3-1.35-3-3s1.35-3 3-3 3 1.35 3 3-1.35 3-3 3zm0-5c-1.1 0-2 .9-2 2s.9 2 2 2 2-.9 2-2-.9-2-2-2z"/></g></g><g><g><circle cx="18.61" cy="61.67" fill="#333" r="2.5"/></g><g><path d="m18.61 64.67c-1.65 0-3-1.35-3-3s1.35-3 3-3 3 1.35 3 3-1.35 3-3 3zm0-5c-1.1 0-2 .9-2 2s.9 2 2 2 2-.9 2-2-.9-2-2-2z"/></g></g></g></svg>