<svg enable-background="new 0 0 32 32"  xmlns="http://www.w3.org/2000/svg"><g id="_x31_9"><path d="m23 2h-14c-.5527 0-1 .4473-1 1v14c0 .5527.4473 1 1 1h14c.5527 0 1-.4473 1-1v-14c0-.5527-.4473-1-1-1zm-5.168 8.5547-2 3c-.1924.2891-.5097.4453-.833.4453-.1904 0-.3828-.0547-.5537-.168-.46-.3066-.584-.9268-.2773-1.3867l.9638-1.4453h-.1318c-.3691 0-.708-.2031-.8818-.5283s-.1543-.7197.0498-1.0264l2-3c.3057-.459.9248-.584 1.3867-.2773.46.3066.584.9268.2773 1.3867l-.9638 1.4453h.1318c.3691 0 .708.2031.8818.5283s.1543.7197-.0498 1.0264z"/><path d="m13 30c-.5527 0-1-.4473-1-1v-3c0-.5527.4473-1 1-1s1 .4473 1 1v3c0 .5527-.4473 1-1 1z"/><path d="m19 30c-.5527 0-1-.4473-1-1v-3c0-.5527.4473-1 1-1s1 .4473 1 1v3c0 .5527-.4473 1-1 1z"/><path d="m10 19v4c0 .5527.4473 1 1 1h10c.5527 0 1-.4473 1-1v-4z"/><path d="m18 26h2c.5527 0 1-.4473 1-1h-4c0 .5527.4473 1 1 1z"/><path d="m12 26h2c.5527 0 1-.4473 1-1h-4c0 .5527.4473 1 1 1z"/></g></svg>