<?xml version="1.0" encoding="UTF-8" standalone="no"?>
<!-- Created with Inkscape (http://www.inkscape.org/) -->
<svg xmlns="http://www.w3.org/2000/svg" xmlns:svg="http://www.w3.org/2000/svg" version="1.1" id="svg3195" >
  <defs id="defs3199">
    <clipPath clipPathUnits="userSpaceOnUse" id="clipPath3211">
      <path d="M 0,512 H 512 V 0 H 0 Z" id="path3209"/>
    </clipPath>
  </defs>
  <mask id="custom"><rect id="bg" x="0" y="0" width="100%" height="100%" fill="white"/><g transform="matrix(1.3333333,0,0,-1.3333333,0,682.66667)"><path transform="matrix(1,0,0,1,141,256)" d="M 0,0 C 0,63.513 51.487,115 115,115 178.513,115 230,63.513 230,0 230,-63.513 178.513,-115 115,-115 51.487,-115 0,-63.513 0,0" style="fill:#ffffff;fill-opacity:1;fill-rule:nonzero;stroke:none" id="path3215"/><path transform="matrix(1,0,0,1,141,256)" d="M 0,0 C 0,63.513 51.487,115 115,115 178.513,115 230,63.513 230,0 230,-63.513 178.513,-115 115,-115 51.487,-115 0,-63.513 0,0 Z" style="fill:none;stroke:#000000;stroke-width:30;stroke-linecap:round;stroke-linejoin:round;stroke-miterlimit:10;stroke-dasharray:none;stroke-opacity:1" id="path3219"/><path transform="matrix(1,0,0,1,344.9541,82.2607)" d="M 0,0 H -177.908" style="fill:none;stroke:#000000;stroke-width:30;stroke-linecap:round;stroke-linejoin:round;stroke-miterlimit:10;stroke-dasharray:none;stroke-opacity:1" id="path3225"/><path transform="matrix(1,0,0,1,167.0459,429.7393)" d="M 0,0 H 177.908" style="fill:none;stroke:#000000;stroke-width:30;stroke-linecap:round;stroke-linejoin:round;stroke-miterlimit:10;stroke-dasharray:none;stroke-opacity:1" id="path3231"/><path transform="matrix(1,0,0,1,337.3174,337.3174)" d="M 0,0 -162.635,-162.635" style="fill:#ffffff;fill-opacity:1;fill-rule:nonzero;stroke:#000000;stroke-width:30;stroke-linecap:round;stroke-linejoin:round;stroke-miterlimit:10;stroke-dasharray:none;stroke-opacity:1" id="path3235"/><path transform="matrix(1,0,0,1,337.3174,174.6826)" d="M 0,0 -162.635,162.635" style="fill:#ffffff;fill-opacity:1;fill-rule:nonzero;stroke:#000000;stroke-width:30;stroke-linecap:round;stroke-linejoin:round;stroke-miterlimit:10;stroke-dasharray:none;stroke-opacity:1" id="path3239"/><path transform="matrix(1,0,0,1,226,256)" d="M 0,0 C 0,16.568 13.432,30 30,30 46.568,30 60,16.568 60,0 60,-16.568 46.568,-30 30,-30 13.432,-30 0,-16.568 0,0" style="fill:#ffffff;fill-opacity:1;fill-rule:nonzero;stroke:none" id="path3243"/><path transform="matrix(1,0,0,1,226,256)" d="M 0,0 C 0,16.568 13.432,30 30,30 46.568,30 60,16.568 60,0 60,-16.568 46.568,-30 30,-30 13.432,-30 0,-16.568 0,0 Z" style="fill:none;stroke:#000000;stroke-width:30;stroke-linecap:round;stroke-linejoin:round;stroke-miterlimit:10;stroke-dasharray:none;stroke-opacity:1" id="path3247"/></g></mask><g mask="url(#custom)"><g id="g3201" transform="matrix(1.3333333,0,0,-1.3333333,0,682.66667)">
    <path d="M 188.424,448.899 H 323.576 V 63.099 H 188.424 Z" style="fill:#000000;fill-opacity:1;fill-rule:nonzero;stroke:#000000;stroke-width:30;stroke-linecap:round;stroke-linejoin:round;stroke-miterlimit:10;stroke-dasharray:none;stroke-opacity:1" id="path3203"/>
    <g id="g3205">
      <g id="g3207" clip-path="url(#clipPath3211)">
        <g id="g3213" transform="translate(141,256)">
          <path d="M 0,0 C 0,63.513 51.487,115 115,115 178.513,115 230,63.513 230,0 230,-63.513 178.513,-115 115,-115 51.487,-115 0,-63.513 0,0" style="fill:#000000;fill-opacity:1;fill-rule:nonzero;stroke:none" id="path3215"/>
        </g>
        <g id="g3217" transform="translate(141,256)">
          <path d="M 0,0 C 0,63.513 51.487,115 115,115 178.513,115 230,63.513 230,0 230,-63.513 178.513,-115 115,-115 51.487,-115 0,-63.513 0,0 Z" style="fill:none;stroke:#ffffff;stroke-width:30;stroke-linecap:round;stroke-linejoin:round;stroke-miterlimit:10;stroke-dasharray:none;stroke-opacity:1" id="path3219"/>
        </g>
        <path d="M 167.046,15.001 H 344.954 V 52.259 H 167.046 Z" style="fill:#000000;fill-opacity:1;fill-rule:nonzero;stroke:#000000;stroke-width:30;stroke-linecap:round;stroke-linejoin:round;stroke-miterlimit:10;stroke-dasharray:none;stroke-opacity:1" id="path3221"/>
        <g id="g3223" transform="translate(344.9541,82.2607)">
          <path d="M 0,0 H -177.908" style="fill:none;stroke:#ffffff;stroke-width:30;stroke-linecap:round;stroke-linejoin:round;stroke-miterlimit:10;stroke-dasharray:none;stroke-opacity:1" id="path3225"/>
        </g>
        <path d="m 167.046,459.741 h 177.908 v 37.258 H 167.046 Z" style="fill:#000000;fill-opacity:1;fill-rule:nonzero;stroke:#000000;stroke-width:30;stroke-linecap:round;stroke-linejoin:round;stroke-miterlimit:10;stroke-dasharray:none;stroke-opacity:1" id="path3227"/>
        <g id="g3229" transform="translate(167.0459,429.7393)">
          <path d="M 0,0 H 177.908" style="fill:none;stroke:#ffffff;stroke-width:30;stroke-linecap:round;stroke-linejoin:round;stroke-miterlimit:10;stroke-dasharray:none;stroke-opacity:1" id="path3231"/>
        </g>
        <g id="g3233" transform="translate(337.3174,337.3174)">
          <path d="M 0,0 -162.635,-162.635" style="fill:#000000;fill-opacity:1;fill-rule:nonzero;stroke:#ffffff;stroke-width:30;stroke-linecap:round;stroke-linejoin:round;stroke-miterlimit:10;stroke-dasharray:none;stroke-opacity:1" id="path3235"/>
        </g>
        <g id="g3237" transform="translate(337.3174,174.6826)">
          <path d="M 0,0 -162.635,162.635" style="fill:#000000;fill-opacity:1;fill-rule:nonzero;stroke:#ffffff;stroke-width:30;stroke-linecap:round;stroke-linejoin:round;stroke-miterlimit:10;stroke-dasharray:none;stroke-opacity:1" id="path3239"/>
        </g>
        <g id="g3241" transform="translate(226,256)">
          <path d="M 0,0 C 0,16.568 13.432,30 30,30 46.568,30 60,16.568 60,0 60,-16.568 46.568,-30 30,-30 13.432,-30 0,-16.568 0,0" style="fill:#000000;fill-opacity:1;fill-rule:nonzero;stroke:none" id="path3243"/>
        </g>
        <g id="g3245" transform="translate(226,256)">
          <path d="M 0,0 C 0,16.568 13.432,30 30,30 46.568,30 60,16.568 60,0 60,-16.568 46.568,-30 30,-30 13.432,-30 0,-16.568 0,0 Z" style="fill:none;stroke:#ffffff;stroke-width:30;stroke-linecap:round;stroke-linejoin:round;stroke-miterlimit:10;stroke-dasharray:none;stroke-opacity:1" id="path3247"/>
        </g>
      </g>
    </g>
  </g></g>
</svg>
