<svg id="Smooth" enable-background="new 0 0 128 128"  xmlns="http://www.w3.org/2000/svg" xmlns:xlink="http://www.w3.org/1999/xlink"><linearGradient id="lg1"><stop offset="0" stop-color="#50a6d0"/><stop offset="1" stop-color="#198bc2"/></linearGradient><linearGradient id="SVGID_1_" gradientUnits="userSpaceOnUse" x1="-72.25" x2="-36.584" xlink:href="#lg1" y1="88.68" y2="91.68"/><linearGradient id="SVGID_2_" gradientUnits="userSpaceOnUse" x1="29.908" x2="50.742" y1="90.045" y2="89.878"><stop offset=".1197" stop-color="#9dc7ef"/><stop offset="1" stop-color="#65b2e0"/></linearGradient><linearGradient id="SVGID_3_" gradientUnits="userSpaceOnUse" x1="-69.954" x2="-34.287" xlink:href="#lg1" y1="61.373" y2="64.373"/><linearGradient id="lg2"><stop offset="0" stop-color="#db464e"/><stop offset="1" stop-color="#c62e37"/></linearGradient><linearGradient id="SVGID_4_" gradientUnits="userSpaceOnUse" x1="70.743" x2="71.743" xlink:href="#lg2" y1="49.457" y2="49.624"/><linearGradient id="SVGID_5_" gradientUnits="userSpaceOnUse" x1="98.925" x2="100.05" y1="39.509" y2="21.884"><stop offset="0" stop-color="#eff0f0"/><stop offset="1" stop-color="#e4e5e6"/></linearGradient><linearGradient id="lg3"><stop offset="0" stop-color="#58595b"/><stop offset="1" stop-color="#414042"/></linearGradient><linearGradient id="SVGID_6_" gradientUnits="userSpaceOnUse" x1="96.655" x2="96.988" xlink:href="#lg3" y1="32.585" y2="34.918"/><linearGradient id="SVGID_7_" gradientUnits="userSpaceOnUse" x1="93.295" x2="93.628" xlink:href="#lg3" y1="33.065" y2="35.398"/><linearGradient id="SVGID_8_" gradientUnits="userSpaceOnUse" x1="83.215" x2="83.548" xlink:href="#lg3" y1="34.505" y2="36.838"/><linearGradient id="SVGID_9_" gradientUnits="userSpaceOnUse" x1="106.735" x2="107.068" xlink:href="#lg3" y1="31.145" y2="33.478"/><linearGradient id="SVGID_10_" gradientUnits="userSpaceOnUse" x1="94.975" x2="95.308" xlink:href="#lg2" y1="32.825" y2="35.158"/><linearGradient id="SVGID_11_" gradientUnits="userSpaceOnUse" x1="93.463" x2="93.963" y1="22.238" y2="25.738"><stop offset="0" stop-color="#6c6f73"/><stop offset="1" stop-color="#56585b"/></linearGradient><linearGradient id="SVGID_12_" gradientUnits="userSpaceOnUse" x1="192.522" x2="255.286" xlink:href="#lg1" y1="45.534" y2="41.051"/><linearGradient id="SVGID_13_" gradientUnits="userSpaceOnUse" x1="166.41" x2="217.744" xlink:href="#lg1" y1="24.078" y2="20.411"/><linearGradient id="SVGID_14_" gradientUnits="userSpaceOnUse" x1="646.974" x2="841.419" xlink:href="#lg1" y1="73.359" y2="59.47"/><linearGradient id="lg4"><stop offset="0" stop-color="#198bc2"/><stop offset="1" stop-color="#126399"/></linearGradient><linearGradient id="SVGID_15_" gradientUnits="userSpaceOnUse" x1="-65.691" x2="-32.3" xlink:href="#lg4" y1="106.362" y2="109.171"/><linearGradient id="SVGID_16_" gradientUnits="userSpaceOnUse" x1="-63.454" x2="-30.063" xlink:href="#lg4" y1="102.766" y2="105.574"/><linearGradient id="SVGID_17_" gradientUnits="userSpaceOnUse" x1="-38.212" x2="-11.374" xlink:href="#lg4" y1="82.739" y2="84.997"/><linearGradient id="SVGID_18_" gradientUnits="userSpaceOnUse" x1="-34.63" x2="-7.792" xlink:href="#lg4" y1="23.041" y2="25.298"/><linearGradient id="SVGID_19_" gradientUnits="userSpaceOnUse" x1="-51.168" x2="-21.906" xlink:href="#lg4" y1="28.182" y2="30.643"/><linearGradient id="lg5"><stop offset="0" stop-color="#babcbe"/><stop offset="1" stop-color="#808083"/></linearGradient><linearGradient id="SVGID_20_" gradientUnits="userSpaceOnUse" x1="17.07" x2="16.737" xlink:href="#lg5" y1="60.407" y2="72.741"/><linearGradient id="SVGID_21_" gradientUnits="userSpaceOnUse" x1="-71.965" x2="-36.299" xlink:href="#lg1" y1="97.182" y2="100.182"/><linearGradient id="SVGID_22_" gradientUnits="userSpaceOnUse" x1="18" x2="30" xlink:href="#lg2" y1="92" y2="92"/><linearGradient id="SVGID_23_" gradientUnits="userSpaceOnUse" x1="2" x2="14" xlink:href="#lg2" y1="92" y2="92"/><linearGradient id="SVGID_24_" gradientUnits="userSpaceOnUse" x1="12" x2="20" xlink:href="#lg2" y1="92" y2="92"/><linearGradient id="SVGID_25_" gradientUnits="userSpaceOnUse" x1="114.728" x2="114.394" xlink:href="#lg5" y1="63.074" y2="75.407"/><linearGradient id="SVGID_26_" gradientUnits="userSpaceOnUse" x1="-71.091" x2="-35.424" xlink:href="#lg1" y1="74.891" y2="77.891"/><linearGradient id="SVGID_27_" gradientTransform="matrix(0 1 -1 0 763 -221)" gradientUnits="userSpaceOnUse" x1="313" x2="325" xlink:href="#lg2" y1="641" y2="641"/><linearGradient id="SVGID_28_" gradientTransform="matrix(0 1 -1 0 763 -221)" gradientUnits="userSpaceOnUse" x1="297" x2="309" xlink:href="#lg2" y1="641" y2="641"/><linearGradient id="SVGID_29_" gradientTransform="matrix(0 1 -1 0 763 -221)" gradientUnits="userSpaceOnUse" x1="307" x2="315" xlink:href="#lg2" y1="641" y2="641"/><g><path d="m93 98h10v10h-10z" fill="url(#SVGID_1_)"/><path d="m103 98h-10c-1.657 0-3-1.343-3-3v-11c0-1.657 1.343-3 3-3h10c1.657 0 3 1.343 3 3v11c0 1.657-1.343 3-3 3z" fill="url(#SVGID_2_)"/><path d="m93 70h10v11h-10z" fill="url(#SVGID_3_)"/><circle cx="98" cy="54" fill="url(#SVGID_4_)" r="18"/><circle cx="98" cy="54" fill="url(#SVGID_5_)" r="14"/><path d="m98 45c-.553 0-1-.448-1-1v-4c0-.552.447-1 1-1s1 .448 1 1v4c0 .552-.447 1-1 1z" fill="url(#SVGID_6_)"/><path d="m98 69c-.553 0-1-.448-1-1v-4c0-.552.447-1 1-1s1 .448 1 1v4c0 .552-.447 1-1 1z" fill="url(#SVGID_7_)"/><path d="m88 55h-4c-.553 0-1-.448-1-1s.447-1 1-1h4c.553 0 1 .448 1 1s-.447 1-1 1z" fill="url(#SVGID_8_)"/><path d="m112 55h-4c-.553 0-1-.448-1-1s.447-1 1-1h4c.553 0 1 .448 1 1s-.447 1-1 1z" fill="url(#SVGID_9_)"/><path d="m103 60c-.256 0-.512-.098-.707-.293l-10-10c-.391-.391-.391-1.023 0-1.414s1.023-.391 1.414 0l10 10c.391.391.391 1.023 0 1.414-.195.195-.451.293-.707.293z" fill="url(#SVGID_10_)"/><circle cx="98" cy="54" fill="url(#SVGID_11_)" r="3"/><path d="m53 108v-106h14v106z" fill="url(#SVGID_12_)"/><path d="m25 50v-33c0-8.284-6.716-15-15-15h-8v14h7c1.105 0 2 .895 2 2v33c0 8.284 6.716 15 15 15h27v-14h-26c-1.105 0-2-.895-2-2z" fill="url(#SVGID_13_)"/><path d="m2 108h124v14h-124z" fill="url(#SVGID_14_)"/><path d="m40 107.915v14.17c0 1.053-.862 1.915-1.915 1.915h-2.17c-1.053 0-1.915-.862-1.915-1.915v-14.17c0-1.053.862-1.915 1.915-1.915h2.17c1.053 0 1.915.862 1.915 1.915z" fill="url(#SVGID_15_)"/><path d="m85 107.915v14.17c0 1.053-.862 1.915-1.915 1.915h-2.17c-1.053 0-1.915-.862-1.915-1.915v-14.17c0-1.053.862-1.915 1.915-1.915h2.17c1.053 0 1.915.862 1.915 1.915z" fill="url(#SVGID_16_)"/><path d="m52.915 88h14.17c1.053 0 1.915.862 1.915 1.915v2.17c0 1.053-.862 1.915-1.915 1.915h-14.17c-1.053 0-1.915-.862-1.915-1.915v-2.17c0-1.053.862-1.915 1.915-1.915z" fill="url(#SVGID_17_)"/><path d="m52.915 28h14.17c1.053 0 1.915.862 1.915 1.915v2.17c0 1.053-.862 1.915-1.915 1.915h-14.17c-1.053 0-1.915-.862-1.915-1.915v-2.17c0-1.053.862-1.915 1.915-1.915z" fill="url(#SVGID_18_)"/><path d="m10.826 31h14.349c1.003 0 1.825.822 1.825 1.826v2.349c0 1.003-.822 1.825-1.826 1.825h-14.348c-1.004 0-1.826-.822-1.826-1.826v-2.349c0-1.003.822-1.825 1.826-1.825z" fill="url(#SVGID_19_)"/><path d="m19 92v16h-6v-16z" fill="url(#SVGID_20_)"/><path d="m21 108h-10v-5c0-1.1.9-2 2-2h6c1.1 0 2 .9 2 2z" fill="url(#SVGID_21_)"/><path d="m27 89-9 1v4l9 1c1.657 0 3-1.343 3-3s-1.343-3-3-3z" fill="url(#SVGID_22_)"/><path d="m5 89 9 1v4l-9 1c-1.657 0-3-1.343-3-3s1.343-3 3-3z" fill="url(#SVGID_23_)"/><circle cx="16" cy="92" fill="url(#SVGID_24_)" r="4"/><path d="m106 87h16v6h-16z" fill="url(#SVGID_25_)"/><path d="m106 95v-10h5c1.1 0 2 .9 2 2v6c0 1.1-.9 2-2 2z" fill="url(#SVGID_26_)"/><path d="m125 101-1-9h-4l-1 9c0 1.657 1.343 3 3 3s3-1.343 3-3z" fill="url(#SVGID_27_)"/><path d="m125 79-1 9h-4l-1-9c0-1.657 1.343-3 3-3s3 1.343 3 3z" fill="url(#SVGID_28_)"/><circle cx="122" cy="90" fill="url(#SVGID_29_)" r="4"/></g></svg>