<?xml version="1.0" encoding="iso-8859-1"?>
<!-- Generator: Adobe Illustrator 19.0.0, SVG Export Plug-In . SVG Version: 6.00 Build 0)  -->
<svg version="1.1" id="Capa_1" xmlns="http://www.w3.org/2000/svg" xmlns:xlink="http://www.w3.org/1999/xlink" x="0px" y="0px"
	 viewBox="0 0 511.975 511.975" style="enable-background:new 0 0 511.975 511.975;" xml:space="preserve">
<g>
	
		<rect x="74.977" y="74.977" transform="matrix(-0.7071 0.7071 -0.7071 -0.7071 618.0084 255.9875)" style="fill:#CC4B4C;" width="362.021" height="362.021"/>
	
		<rect x="110.271" y="110.287" transform="matrix(0.7071 -0.7071 0.7071 0.7071 -106.0385 255.9754)" style="fill:#E6E7E8;" width="291.4" height="291.4"/>
	<circle style="fill:#95A5A5;" cx="255.979" cy="317.781" r="52.966"/>
	<path style="fill:#E57E25;" d="M370.738,223.855c0,0-17.655,0-26.483,42.637c-8.828,42.725-35.31,51.288-35.31,51.288
		c0-29.252-23.713-52.966-52.966-52.966s-52.966,23.713-52.966,52.966c0,0-26.483-8.828-35.31-52.966
		c-8.828-44.138-26.483-44.138-26.483-44.138s22.687-10.77,54.731,6.886c3.43-19.867,2.83-40.221-1.766-59.851
		c14.812,2.383,28.028,10.663,36.634,22.952c11.053-25.229,33.546-43.618,60.469-49.434c0,0-17.655,17.655-8.828,35.31
		c2.976,5.789,5.002,12.018,6.003,18.45c16.485-11.545,38.071-12.809,55.79-3.266c0,0-29.219,12.888-27.807,38.577
		C348.227,213.438,370.738,223.855,370.738,223.855z"/>
</g>
<g>
</g>
<g>
</g>
<g>
</g>
<g>
</g>
<g>
</g>
<g>
</g>
<g>
</g>
<g>
</g>
<g>
</g>
<g>
</g>
<g>
</g>
<g>
</g>
<g>
</g>
<g>
</g>
<g>
</g>
</svg>
