<?xml version="1.0" encoding="iso-8859-1"?>
<!-- Generator: Adobe Illustrator 19.0.0, SVG Export Plug-In . SVG Version: 6.00 Build 0)  -->
<svg version="1.1" id="Capa_1" xmlns="http://www.w3.org/2000/svg" xmlns:xlink="http://www.w3.org/1999/xlink" x="0px" y="0px"
	 viewBox="0 0 480 480" style="enable-background:new 0 0 480 480;" xml:space="preserve">
<g>
	<g>
		<g>
			<path d="M172.132,172.124c-37.483,37.498-37.47,98.282,0.027,135.765c37.487,37.472,98.25,37.472,135.737,0
				c37.438-37.523,37.438-98.269,0-135.792C270.398,134.614,209.614,134.626,172.132,172.124z M290.64,178.04l-34.488,34.488
				c-9.919-6.048-22.385-6.048-32.304,0L189.36,178.04C218.839,153.996,261.161,153.996,290.64,178.04z M256,239.992
				c0,8.837-7.163,16-16,16s-16-7.163-16-16s7.163-16,16-16S256,231.156,256,239.992z M178.048,189.352l34.488,34.488
				c-6.048,9.919-6.048,22.385,0,32.304l-34.488,34.488C154.016,261.149,154.016,218.836,178.048,189.352z M189.36,301.944
				l34.488-34.488c9.919,6.048,22.385,6.048,32.304,0l34.488,34.488C261.157,325.976,218.843,325.976,189.36,301.944z
				 M301.952,290.632l-34.488-34.488c6.048-9.919,6.048-22.385,0-32.304l34.488-34.488
				C325.984,218.836,325.984,261.149,301.952,290.632z"/>
			<path d="M448,151.992v-16h-48v32h-54.232c-1.528-2.28-3.144-4.544-4.904-6.76c-43.466-55.7-123.856-65.618-179.556-22.151
				c-8.245,6.434-15.669,13.854-22.108,22.095c-1.8,2.264-3.424,4.552-4.944,6.816H80v-32H32v16H0v176h32v16h48v-32h54.232
				c1.528,2.28,3.144,4.552,4.904,6.76c43.458,55.707,123.846,65.636,179.553,22.179c8.256-6.441,15.69-13.87,22.135-22.123
				c1.8-2.264,3.424-4.552,4.944-6.816H400v32h48v-16h32v-176H448z M32,311.992H16v-144h16V311.992z M64,327.992H48v-176h16V327.992
				z M112.736,253.024c0.096,0.896,0.176,1.792,0.288,2.68c0.504,4.188,1.22,8.348,2.144,12.464
				c0.144,0.664,0.328,1.312,0.488,1.968c0.944,3.888,2.064,7.717,3.36,11.488c0.168,0.488,0.304,0.984,0.48,1.472
				c1.457,4.032,3.12,7.987,4.984,11.848c0.16,0.344,0.272,0.704,0.44,1.048l-44.92,0v-112h44.92
				c-0.192,0.384-0.312,0.8-0.496,1.176c-1.821,3.785-3.45,7.659-4.88,11.608c-0.216,0.608-0.392,1.224-0.608,1.832
				c-1.248,3.653-2.331,7.363-3.248,11.128c-0.168,0.712-0.368,1.408-0.528,2.12c-0.92,4.088-1.6,8.232-2.136,12.408
				c-0.112,0.904-0.192,1.808-0.288,2.712C111.755,235.631,111.755,244.369,112.736,253.024z M351.688,248.256
				c-1.333,18.323-7.194,36.028-17.056,51.528l-0.16,0.256c-1.89,3.081-3.966,6.044-6.216,8.872
				c-21.149,27.266-53.749,43.179-88.256,43.08c-34.529,0.095-67.148-15.841-88.296-43.136c-2.326-2.914-4.463-5.974-6.4-9.16
				c-11.339-17.846-17.343-38.56-17.304-59.704c0-2.768,0.112-5.52,0.312-8.264c1.333-18.323,7.194-36.028,17.056-51.528l0.16-0.256
				c1.89-3.081,3.966-6.044,6.216-8.872c38.027-48.741,108.367-57.427,157.108-19.4c7.257,5.661,13.787,12.196,19.444,19.456
				c2.236,2.805,4.299,5.744,6.176,8.8l0.216,0.344c11.345,17.85,17.351,38.57,17.312,59.72
				C352,242.76,351.888,245.512,351.688,248.256z M400,295.992h-44.92c0.192-0.384,0.312-0.8,0.496-1.176
				c1.821-3.785,3.45-7.659,4.88-11.608c0.216-0.608,0.392-1.224,0.608-1.832c1.248-3.659,2.331-7.368,3.248-11.128
				c0.168-0.712,0.368-1.408,0.528-2.12c0.92-4.088,1.6-8.232,2.136-12.408c0.112-0.904,0.192-1.808,0.288-2.712
				c0.981-8.652,0.981-17.388,0-26.04c-0.096-0.896-0.176-1.8-0.288-2.696c-0.502-4.169-1.215-8.311-2.136-12.408
				c-0.152-0.712-0.352-1.408-0.528-2.112c-0.917-3.781-2.008-7.515-3.272-11.2c-0.192-0.584-0.36-1.168-0.568-1.744
				c-1.424-4-3.08-7.832-4.896-11.64c-0.184-0.384-0.304-0.8-0.496-1.176H400V295.992z M432,327.992h-16v-176h16V327.992z
				 M464,311.992h-16v-144h16V311.992z"/>
		</g>
	</g>
</g>
<g>
</g>
<g>
</g>
<g>
</g>
<g>
</g>
<g>
</g>
<g>
</g>
<g>
</g>
<g>
</g>
<g>
</g>
<g>
</g>
<g>
</g>
<g>
</g>
<g>
</g>
<g>
</g>
<g>
</g>
</svg>
