<svg id="Artboard_30"  xmlns="http://www.w3.org/2000/svg" data-name="Artboard 30"><path d="m34 16h26v43h-26z" fill="#dfdfe0"/><path d="m60 59v-39h-16.31a6.69 6.69 0 0 0 -6.69 6.69v32.31z" fill="#ececec"/><path d="m37 26h20v16h-20z" fill="#66c2ed"/><path d="m40 42v-3.5a3.5 3.5 0 0 1 3.5-3.5 3.5 3.5 0 0 1 3.5 3.5v3.5z" fill="#77787c"/><path d="m56 39h1v-13h-16.709a16 16 0 0 0 15.709 13z" fill="#76d8ff"/><path d="m46 12h14a2 2 0 0 1 2 2 2 2 0 0 1 -2 2h-56a2 2 0 0 1 -2-2 2 2 0 0 1 2-2z" fill="#77787c"/><rect fill="#ececec" height="14" rx="2" width="29" x="17" y="2"/><g opacity=".5"><path d="m44 2h-3a2 2 0 0 1 2 2v10a2 2 0 0 1 -2 2h3a2 2 0 0 0 2-2v-10a2 2 0 0 0 -2-2z" fill="#b7b7b7"/></g><path d="m44 17h-25a3 3 0 0 1 -3-3v-10a3 3 0 0 1 3-3h25a3 3 0 0 1 3 3v10a3 3 0 0 1 -3 3zm-25-14a1 1 0 0 0 -1 1v10a1 1 0 0 0 1 1h25a1 1 0 0 0 1-1v-10a1 1 0 0 0 -1-1z" fill="#b53c33"/><path d="m20.21 54h-2.384v-2h2.384a2.673 2.673 0 0 0 2.053-.969 3.137 3.137 0 0 0 .707-2.468l-2.421-7.8 1.9-.617.5 1.544 1.951 6.359a1.258 1.258 0 0 1 .032.138 5.133 5.133 0 0 1 -1.153 4.143 4.707 4.707 0 0 1 -3.569 1.67z" fill="#2b2c2c"/><path d="m5 56v-23a4 4 0 0 1 4-4h6a4 4 0 0 1 4 4v23z" fill="#b53c33"/><path d="m19 33a4 4 0 0 0 -4-4h-6a3.974 3.974 0 0 0 -.892.108 3.974 3.974 0 0 0 -.108.892v15.011a7.989 7.989 0 0 0 7.989 7.989h3.011z" fill="#db4b40"/><path d="m5 59h-.5a1.5 1.5 0 0 1 -1.5-1.5 1.5 1.5 0 0 1 1.5-1.5h15a1.5 1.5 0 0 1 1.5 1.5 1.5 1.5 0 0 1 -1.5 1.5z" fill="#aeafb2"/><path d="m10 32h4a2 2 0 0 1 2 2v4a0 0 0 0 1 0 0h-8a0 0 0 0 1 0 0v-4a2 2 0 0 1 2-2z" fill="#76d8ff"/><path d="m14 32h-2a2 2 0 0 1 2 2v4h2v-4a2 2 0 0 0 -2-2z" fill="#66c2ed"/><path d="m15 41h2v2h-2z" fill="#882d26"/><path d="m10 41h4v2h-4z" fill="#882d26"/><path d="m7 41h2v2h-2z" fill="#882d26"/><path d="m19 35h1.85a2.088 2.088 0 0 1 1.877 1.29l1.049 2.333a2.333 2.333 0 0 1 -1.876 3.377h-2.9z" fill="#ccc"/><path d="m11 16h3v13h-3z" fill="#ccc"/><rect fill="#494949" height="3" rx="1.5" width="60" x="2" y="59"/><g fill="#b53c33"><path d="m32 4a1 1 0 0 0 -.949.684l-2.684 8.051a1 1 0 0 0 .633 1.265 1 1 0 0 0 1.265-.633l.456-1.367h2.558l.456 1.367a1 1 0 0 0 1.265.633 1 1 0 0 0 .633-1.265l-2.684-8.051a1 1 0 0 0 -.949-.684zm-.613 6 .613-1.838.613 1.838z"/><path d="m40 8a1 1 0 1 1 1-1h2a3 3 0 1 0 -3 3 1 1 0 1 1 -1 1h-2a3 3 0 1 0 3-3z"/><path d="m23.5 4a3.5 3.5 0 0 0 -3.5 3.5v3a3.5 3.5 0 0 0 7 0v-.5a1 1 0 0 0 -1-1h-3v2h1.915a1.5 1.5 0 0 1 -2.915-.5v-3a1.5 1.5 0 0 1 3 0v.5h2v-.5a3.5 3.5 0 0 0 -3.5-3.5z"/></g><path d="m14 29v-12h-.109a1.891 1.891 0 0 0 -1.891 1.891v10.109z" fill="#e0e0e0"/></svg>