<svg id="Capa_1" enable-background="new 0 0 512 512" xmlns="http://www.w3.org/2000/svg"><g><g><g><path d="m437.52 373.88c13.679-21.045 23.621-44.436 29.305-68.851h-68.353c-20.588 59.868-77.775 101.591-142.482 101.591h-.34c-65.98-.143-122.55-42.495-142.895-101.591h-67.58c5.684 24.415 15.626 47.807 29.305 68.851l-20.71 20.71c-5.853 5.832-5.873 15.336-.01 21.22l42.43 42.43c5.877 5.856 15.381 5.85 21.22-.01l20.71-20.71c22.2 14.43 47.01 24.71 72.88 30.21v29.27c0 8.28 6.72 15 15 15h60c8.28 0 15-6.72 15-15v-29.27c25.87-5.5 50.68-15.78 72.88-30.21l20.71 20.71c5.906 5.906 15.387 5.823 21.22.01l42.43-42.43c5.86-5.881 5.846-15.385-.01-21.22z" fill="#766d78"/></g><path d="m437.52 373.88c13.679-21.045 23.621-44.436 29.305-68.851h-68.353c-20.588 59.868-77.775 101.591-142.482 101.591h-.34v105.38h30.35c8.28 0 15-6.72 15-15v-29.27c25.87-5.5 50.68-15.78 72.88-30.21l20.71 20.71c5.885 5.885 15.365 5.844 21.22.01l42.43-42.43c5.863-5.884 5.843-15.388-.01-21.22z" fill="#554e56"/></g><g><g><path d="m482.43 251.13v32.55c0 8.28-6.72 15-15 15h-171.77c-4.69 0-9.12-2.2-11.95-5.94-6.64-8.76-16.74-13.78-27.71-13.78s-21.07 5.02-27.71 13.78c-2.83 3.74-7.26 5.94-11.95 5.94h-171.77c-8.28 0-15-6.72-15-15v-32.55c0-54.87 19.88-107.8 55.97-149.04 13.12-15 28.05-28.08 44.34-39.01 4.13-2.78 16.62 7.24 16.62 7.24s6.25-20.8 11.51-23.33c18.29-8.79 37.77-15.13 57.95-18.73h80.08c20.18 3.6 39.66 9.94 57.95 18.74 4.66 2.23 10.22 26.71 10.22 26.71s13.22-13.78 17.91-10.63c16.29 10.93 31.22 24.01 44.34 39.01 36.09 41.24 55.97 94.17 55.97 149.04z" fill="#fff161"/></g><path d="m482.43 251.13v32.55c0 8.28-6.72 15-15 15h-171.77c-4.69 0-9.12-2.2-11.95-5.94-6.64-8.76-16.74-13.78-27.71-13.78v-250.7h40.04c20.18 3.6 39.66 9.94 57.95 18.74 4.66 2.23 10.22 26.71 10.22 26.71s13.22-13.78 17.91-10.63c16.29 10.93 31.22 24.01 44.34 39.01 36.09 41.24 55.97 94.17 55.97 149.04z" fill="#fc0"/><g><path d="m301 39.83v89.92c0 22.74-18.51 41.25-41.25 41.25h-7.5c-22.74 0-41.25-18.51-41.25-41.25v-89.92c0-21.96 17.87-39.83 39.83-39.83h10.34c21.96 0 39.83 17.87 39.83 39.83z" fill="#fc0"/></g><g><path d="m155.98 161c-7.41 0-13.85-5.48-14.85-13.03l-11.25-84.89c8.99-6.04 18.39-11.41 28.13-16.09l12.86 97.04c1.187 8.944-5.762 16.97-14.89 16.97z" fill="#fc0"/></g><g><path d="m382.12 63.08-11.25 84.89c-1.093 8.256-8.681 13.994-16.84 12.9-8.21-1.09-13.99-8.63-12.9-16.84l12.86-97.03c9.74 4.67 19.14 10.04 28.13 16.08z" fill="#ff8756"/></g><g><path d="m214.612 243.68h-169.652c-24.79 0-44.96 20.17-44.96 44.96v20.04c0 8.28 6.72 15 15 15h199.612z" fill="#fc0"/></g><g><path d="m467.04 243.68h-169.78v80h199.74c8.28 0 15-6.72 15-15v-20.04c0-24.79-20.17-44.96-44.96-44.96z" fill="#ff8756"/></g><path d="m259.75 171h-3.75v-171h5.17c21.96 0 39.83 17.87 39.83 39.83v89.92c0 22.74-18.51 41.25-41.25 41.25z" fill="#ff8756"/><g><g><path d="m309.04 283.68c0 11.66-3.71 22.72-10.73 32-10.14 13.38-25.56 21.04-42.31 21.04s-32.17-7.66-42.3-21.03c-7.03-9.29-10.74-20.35-10.74-32.01s3.71-22.72 10.73-32c10.14-13.38 25.56-21.04 42.31-21.04s32.17 7.66 42.3 21.03c7.03 9.29 10.74 20.35 10.74 32.01z" fill="#f4f4f7"/></g><path d="m309.04 283.68c0 11.66-3.71 22.72-10.73 32-10.14 13.38-25.56 21.04-42.31 21.04v-106.08c16.75 0 32.17 7.66 42.3 21.03 7.03 9.29 10.74 20.35 10.74 32.01z" fill="#e5eaee"/><g><path d="m256 218.96c-36.242 0-64.72 29.368-64.72 64.72 0 35.249 28.381 64.72 64.72 64.72 36.243 0 64.72-29.368 64.72-64.72 0-35.25-28.382-64.72-64.72-64.72zm0 99.44c-19.455 0-34.72-15.747-34.72-34.72 0-19.006 15.297-34.72 34.72-34.72 19.455 0 34.72 15.746 34.72 34.72 0 19.006-15.297 34.72-34.72 34.72z" fill="#766d78"/></g><path d="m320.72 283.68c0 35.277-28.406 64.72-64.72 64.72v-30c19.417 0 34.72-15.708 34.72-34.72 0-18.961-15.254-34.72-34.72-34.72v-30c36.314 0 64.72 29.445 64.72 64.72z" fill="#554e56"/></g></g></g></svg>