<svg id="Capa_1" enable-background="new 0 0 512.029 512.029"  xmlns="http://www.w3.org/2000/svg"><path d="m368.862 233.361h.438c48.646-.228 88.148-39.879 88.148-88.585 0-26.741-14.465-48.714-31.971-72.603l-56.615-72.173-56.616 72.173c-17.505 23.887-31.971 45.859-31.971 72.602 0 48.846 39.74 88.586 88.587 88.586z"/><path d="m368.876 263.362-.531-.002c-65.153-.278-118.07-53.368-118.07-118.586 0-16.16 3.653-30.607 9.487-44.101l-32.902-41.947-115.912 147.765-.294.389c-29.549 40.301-56.072 80.788-56.072 132.868 0 94.769 76.915 171.911 171.6 172.278l.702.003c94.983 0 172.258-77.284 172.258-172.279 0-28.456-7.926-53.449-19.931-76.843-3.408.295-6.853.455-10.335.455z"/></svg>