<svg  xmlns="http://www.w3.org/2000/svg"><path d="m508.03125 245.246094-240.738281-240.777344c-5.960938-5.957031-15.625-5.957031-21.585938 0l-240.738281 240.777344c-5.957031 5.960937-5.957031 15.625 0 21.585937l240.605469 240.640625c6.03125 6.035156 15.816406 6.035156 21.851562 0l240.601563-240.640625c5.960937-5.960937 5.960937-15.625.003906-21.585937zm0 0" fill="#ffb545"/><path d="m508.03125 266.832031c5.957031-5.960937 5.957031-15.625 0-21.585937l-240.738281-240.777344c-5.960938-5.957031-15.625-5.957031-21.585938 0l-11.058593 11.0625 240.464843 240.46875-240.503906 240.503906 10.964844 10.96875c6.035156 6.035156 15.816406 6.035156 21.851562 0zm0 0" fill="#ff983b"/><g fill="#ff6344"><path d="m199.972656 189.011719c12.453125-1.382813 22.429688-11.472657 23.691406-23.9375 1.496094-14.785157-8.988281-27.449219-22.914062-29.445313-3.386719-.488281-6.464844-2.246094-8.597656-4.914062-.554688-.691406-1.027344-1.421875-1.421875-2.175782-.902344-1.722656-2.601563-2.886718-4.515625-3.222656-2.617188-.453125-5.21875.761719-6.617188 3.023438-5.972656 9.664062-9.472656 21.015625-9.609375 33.179687-.007812.25-.011719.5-.011719.75 0 15.878907 13.753907 28.546875 29.996094 26.742188zm0 0"/><path d="m369.171875 298.410156c-1.863281-.570312-3.902344-.296875-5.488281.835938-.691406.492187-1.441406.929687-2.25 1.296875-2.476563 1.128906-5.222656 1.460937-7.875 1 .53125-4.132813.808594-8.351563.808594-12.632813 0-1.019531-.019532-2.03125-.050782-3.042968-1.015625-66.320313-34.988281-124.640626-86.289062-159.28125-4.941406-3.339844-11.597656-.210938-12.382813 5.703124-3.980469 29.871094-21.601562 56.519532-48.101562 71.863282-15.730469 9.101562-28.6875 22.460937-37.304688 38.496094-3.171875-2.042969-6.800781-3.4375-10.699219-3.996094-3.386718-.488282-6.460937-2.246094-8.597656-4.917969-.550781-.6875-1.023437-1.417969-1.417968-2.171875-.90625-1.722656-2.601563-2.886719-4.519532-3.222656-2.617187-.457032-5.214844.761718-6.613281 3.023437-5.976563 9.660157-9.472656 21.019531-9.613281 33.179688-.003906.25-.007813.5-.007813.75 0 14.242187 11.0625 25.890625 25.0625 26.84375-4.121093 2.019531-8.074219 4.324219-11.824219 6.90625-3.152343 2.171875-4.722656 6.003906-3.878906 9.742187.617188 2.738282 2.414063 5.097656 4.960938 6.273438 1.117187.515625 2.199218 1.148437 3.234375 1.894531 3.996093 2.882813 6.746093 7.1875 7.6875 12.027344 3.355469 17.25 18.042969 30.199219 35.683593 31.273437 17.207032 16.132813 40.199219 26.164063 65.410157 26.515625 30.96875.429688 58.691406-13.53125 76.917969-35.617187 13.023437 5.804687 28.445312.421875 34.953124-12.441406.113282-.222657.222657-.449219.332032-.671876 5.367187-10.914062 7.371094-22.628906 6.402344-33.949218-.230469-2.644532-2-4.90625-4.539063-5.679688zm0 0"/><path d="m359.140625 177.652344c0 4.265625-3.460937 7.726562-7.726563 7.726562-4.269531 0-7.726562-3.460937-7.726562-7.726562 0-4.269532 3.457031-7.726563 7.726562-7.726563 4.265626 0 7.726563 3.457031 7.726563 7.726563zm0 0"/><path d="m379.746094 276.546875c0 4.269531-3.457032 7.726563-7.726563 7.726563-4.265625 0-7.726562-3.457032-7.726562-7.726563 0-4.265625 3.460937-7.726563 7.726562-7.726563 4.269531 0 7.726563 3.460938 7.726563 7.726563zm0 0"/><path d="m109.324219 266.246094c0 8.535156-6.917969 15.453125-15.449219 15.453125-8.535156 0-15.453125-6.917969-15.453125-15.453125s6.917969-15.453125 15.453125-15.453125c8.53125 0 15.449219 6.917969 15.449219 15.453125zm0 0"/><path d="m408.078125 225.046875c0 8.535156-6.917969 15.453125-15.453125 15.453125s-15.453125-6.917969-15.453125-15.453125 6.917969-15.453125 15.453125-15.453125 15.453125 6.917969 15.453125 15.453125zm0 0"/></g><path d="m210.828125 337.707031c12.789063 11.992188 29.132813 18.167969 45.671875 18.167969 29.453125 0 62.644531-29.070312 66.40625-58.28125.761719-5.914062.519531-10.222656.507812-11.253906-.597656-39.042969-15.0625-76.152344-40.019531-105.109375-3.519531-4.085938-9.984375-3.429688-12.632812 1.265625-11.226563 19.878906-27.652344 36.773437-47.734375 48.402344-10.816406 6.261718-19.65625 15.382812-25.566406 26.378906-12.863282 23.941406-6.460938 61.84375 13.367187 80.429687zm0 0" fill="#ffcf5d"/></svg>