<?xml version="1.0" encoding="iso-8859-1"?>
<!-- Generator: Adobe Illustrator 19.0.0, SVG Export Plug-In . SVG Version: 6.00 Build 0)  -->
<svg version="1.1" id="Capa_1" xmlns="http://www.w3.org/2000/svg" xmlns:xlink="http://www.w3.org/1999/xlink" x="0px" y="0px"
	 viewBox="0 0 496 496" style="enable-background:new 0 0 496 496;" xml:space="preserve">
<polyline style="fill:#91AAB4;" points="256,120 256,168 336,168 336,120 "/>
<path d="M336,176h-80c-4.8,0-8-3.2-8-8v-48h16v40h64v-40h16v48C344,172.8,340.8,176,336,176z"/>
<polyline style="fill:#91AAB4;" points="232,264 184,264 184,184 232,184 "/>
<path d="M232,272h-48c-4.8,0-8-3.2-8-8v-80c0-4.8,3.2-8,8-8h48v16h-40v64h40V272z"/>
<polyline style="fill:#91AAB4;" points="360,264 408,264 408,184 360,184 "/>
<path d="M408,272h-48v-16h40v-64h-40v-16h48c4.8,0,8,3.2,8,8v80C416,268.8,412.8,272,408,272z"/>
<path style="fill:#91AAB4;" d="M152,184h-48c-44,0-80,36-80,80l0,0v80h80v-64c0-8.8,7.2-16,16-16h32V184z"/>
<path d="M104,352H24c-4.8,0-8-3.2-8-8v-80c0-48.8,39.2-88,88-88h48c4.8,0,8,3.2,8,8v80c0,4.8-3.2,8-8,8h-32c-4.8,0-8,3.2-8,8v64
	C112,348.8,108.8,352,104,352z M32,336h64v-56c0-13.6,10.4-24,24-24h24v-64h-40c-40,0-72,32-72,72V336z"/>
<rect x="144" y="160" width="16" height="128"/>
<rect x="176" y="160" width="16" height="128"/>
<rect x="232" y="112" width="128" height="16"/>
<rect x="232" y="80" width="128" height="16"/>
<rect x="400" y="160" width="16" height="128"/>
<rect x="432" y="160" width="16" height="128"/>
<rect x="440" y="184" style="fill:#91AAB4;" width="48" height="80"/>
<path d="M488,272h-48c-4.8,0-8-3.2-8-8v-80c0-4.8,3.2-8,8-8h48c4.8,0,8,3.2,8,8v80C496,268.8,492.8,272,488,272z M448,256h32v-64
	h-32V256z"/>
<rect x="8" y="344" style="fill:#7D828C;" width="112" height="32"/>
<path d="M120,384H8c-4.8,0-8-3.2-8-8v-32c0-4.8,3.2-8,8-8h112c4.8,0,8,3.2,8,8v32C128,380.8,124.8,384,120,384z M16,368h96v-16H16
	V368z"/>
<path style="fill:#91AAB4;" d="M92,447.2c5.6,7.2,5.6,17.6,0.8,24.8c-10.4,16-32,20-48,9.6c-4-2.4-7.2-5.6-9.6-9.6
	c-4.8-8-4-17.6,0.8-24.8L64,408L92,447.2z"/>
<path d="M64,496c-14.4,0-28-7.2-35.2-19.2c-6.4-10.4-6.4-24,1.6-33.6l28-39.2c3.2-4,8-4,12-1.6c0.8,0.8,0.8,0.8,1.6,1.6l28,39.2
	c7.2,10.4,8,23.2,1.6,33.6C92,488.8,78.4,496,64,496z M64,421.6L43.2,452c-3.2,4.8-4,11.2-0.8,16c4.8,8,12.8,12,21.6,12
	s16.8-4,21.6-12c3.2-4.8,2.4-11.2-0.8-16l0,0L64,421.6z"/>
<path style="fill:#7D828C;" d="M200,8h192c8.8,0,16,7.2,16,16l0,0c0,8.8-7.2,16-16,16H200c-8.8,0-16-7.2-16-16l0,0
	C184,15.2,191.2,8,200,8z"/>
<path d="M392,48H200c-13.6,0-24-10.4-24-24s10.4-24,24-24h192c13.6,0,24,10.4,24,24S405.6,48,392,48z M200,16c-4.8,0-8,3.2-8,8
	s3.2,8,8,8h192c4.8,0,8-3.2,8-8s-3.2-8-8-8H200z"/>
<circle style="fill:#7D828C;" cx="296" cy="224" r="72"/>
<path d="M296,304c-44,0-80-36-80-80s36-80,80-80s80,36,80,80S340,304,296,304z M296,160c-35.2,0-64,28.8-64,64s28.8,64,64,64
	s64-28.8,64-64S331.2,160,296,160z"/>
<circle style="fill:#A4A5A6;" cx="296" cy="224" r="40"/>
<path d="M296,272c-26.4,0-48-21.6-48-48s21.6-48,48-48s48,21.6,48,48S322.4,272,296,272z M296,192c-17.6,0-32,14.4-32,32
	s14.4,32,32,32s32-14.4,32-32S313.6,192,296,192z"/>
<rect x="224" y="216" width="32" height="16"/>
<rect x="336" y="216" width="32" height="16"/>
<rect x="256.013" y="35.2" transform="matrix(-0.8321 0.5547 -0.5547 -0.8321 519.19 -29.1886)" width="16.001" height="57.602"/>
<rect x="299.193" y="55.984" transform="matrix(-0.5547 0.8321 -0.8321 -0.5547 563.165 -173.4372)" width="57.602" height="16.001"/>
<g>
</g>
<g>
</g>
<g>
</g>
<g>
</g>
<g>
</g>
<g>
</g>
<g>
</g>
<g>
</g>
<g>
</g>
<g>
</g>
<g>
</g>
<g>
</g>
<g>
</g>
<g>
</g>
<g>
</g>
</svg>
