<svg id="Layer_1" enable-background="new 0 0 512 512" xmlns="http://www.w3.org/2000/svg"><path clip-rule="evenodd" d="m16 487.861h181.124v-30.543c0-8.758-7.165-15.922-15.922-15.922h-149.282c-8.758 0-15.92 7.165-15.92 15.922zm147.181-62.465-40.504-153.095c-11.038 8.385-24.807 13.363-39.735 13.363-18.529 0-35.272-7.669-47.225-20.005l8.832 159.737zm-15.012-197.115 141.186-125.991c-15.126-8.705-25.313-25.031-25.313-43.731 0-2.966.256-5.873.748-8.699l-171.215 105.153c31.255 5.084 55.122 32.21 55.122 64.898 0 2.835-.18 5.629-.528 8.37zm235.822-72.059c4.5-13.19 14.942-23.633 28.132-28.133l-49.053-56.095c-4.704 17.051-18.142 30.483-35.196 35.179zm-103.949-97.664c0-19.006 15.407-34.419 34.419-34.419 19.034 0 34.419 15.434 34.419 34.419 0 19.009-15.41 34.42-34.419 34.42-18.895 0-34.419-15.297-34.419-34.42zm34.42-12.919c-7.135 0-12.919 5.784-12.919 12.919s5.784 12.919 12.919 12.919 12.919-5.784 12.919-12.919c-.001-7.135-5.784-12.919-12.919-12.919zm-281.273 174.272c0-27.611 22.409-49.754 49.754-49.754 27.478 0 49.754 22.276 49.754 49.754s-22.276 49.754-49.754 49.754c-27.473 0-49.754-22.38-49.754-49.754zm49.754-20.073c11.086 0 20.073 8.987 20.073 20.073s-8.987 20.073-20.073 20.073-20.073-8.987-20.073-20.073 8.987-20.073 20.073-20.073zm313.77 174.116h33.022v40.509h33.244v-40.509h33.021v92.668c0 3.645-2.973 6.619-6.619 6.619h-86.049c-3.645 0-6.619-2.973-6.619-6.619zm-139.764 0h33.022v40.509h33.244v-40.509h33.021v92.668c0 3.646-2.973 6.619-6.619 6.619h-86.049c-3.646 0-6.619-2.973-6.619-6.619zm234.276-109.53c0 24.415-13.559 45.661-33.556 56.625v-57.552l-31.643-18.269-31.642 18.269v56.806c-19.269-11.164-32.232-32.007-32.232-55.879 0-35.642 28.894-64.536 64.536-64.536 16.072 0 29.102-13.03 29.102-29.102 0-16.073-13.03-29.102-29.102-29.102-.869 0-1.73.038-2.58.113-15.027 1.32-26.523 13.95-26.523 28.99 0 16.073 13.03 29.102 29.102 29.102 35.644-.001 64.538 28.893 64.538 64.535z" fill-rule="evenodd"/></svg>