<svg xmlns="http://www.w3.org/2000/svg"><g id="_x31_5"><path d="m29 14c.5527344 0 1-.4472656 1-1s-.4472656-1-1-1h-3v-1h3c.5527344 0 1-.4472656 1-1s-.4472656-1-1-1h-3c0-1.6542969-1.3457031-3-3-3v-3c0-.5527344-.4472656-1-1-1s-1 .4472656-1 1v3h-1v-3c0-.5527344-.4472656-1-1-1s-1 .4472656-1 1v3h-1v-3c0-.5527344-.4472656-1-1-1s-1 .4472656-1 1v3h-1v-3c0-.5527344-.4472656-1-1-1s-1 .4472656-1 1v3h-1v-3c0-.5527344-.4472656-1-1-1s-1 .4472656-1 1v3c-1.6542969 0-3 1.3457031-3 3h-3c-.5527344 0-1 .4472656-1 1s.4472656 1 1 1h3v1h-3c-.5527344 0-1 .4472656-1 1s.4472656 1 1 1h3v1h-3c-.5527344 0-1 .4472656-1 1s.4472656 1 1 1h3v1h-3c-.5527344 0-1 .4472656-1 1s.4472656 1 1 1h3v1h-3c-.5527344 0-1 .4472656-1 1s.4472656 1 1 1h3c0 1.6542969 1.3457031 3 3 3v3c0 .5527344.4472656 1 1 1s1-.4472656 1-1v-3h1v3c0 .5527344.4472656 1 1 1s1-.4472656 1-1v-3h1v3c0 .5527344.4472656 1 1 1s1-.4472656 1-1v-3h1v3c0 .5527344.4472656 1 1 1s1-.4472656 1-1v-3h1v3c0 .5527344.4472656 1 1 1s1-.4472656 1-1v-3c1.6542969 0 3-1.3457031 3-3h3c.5527344 0 1-.4472656 1-1s-.4472656-1-1-1h-3v-1h3c.5527344 0 1-.4472656 1-1s-.4472656-1-1-1h-3v-1h3c.5527344 0 1-.4472656 1-1s-.4472656-1-1-1h-3v-1zm-6.0673828 2c0 .2949219-.0205078.5917969-.0625.9003906l1.8779297 1.0761719c.1162109.0654297.2001953.1757813.2353516.3046875.0341797.1279297.015625.265625-.0517578.3808594l-2.1445313 3.6796875c-.1386719.2382813-.4433594.3183594-.6796875.1816406l-1.8847656-1.078125c-.4775391.3623047-1.0205078.6699219-1.5976563.9042969v2.1503906c0 .2763672-.2236328.5-.5.5h-4.25c-.2763672 0-.5-.2236328-.5-.5v-2.1503906c-.5771484-.234375-1.1201172-.5419922-1.5976563-.9042969l-1.8847656 1.078125c-.2373047.1347656-.5410156.0566406-.6796875-.1816406l-2.1445313-3.6796875c-.0673827-.1152344-.0859374-.2529297-.0517577-.3808594.0351563-.1289063.1191406-.2392578.2353516-.3046875l1.8779297-1.0761719c-.0419922-.3085938-.0625-.6054688-.0625-.9003906s.0205078-.5917969.0625-.9003906l-1.8779297-1.0761719c-.1162109-.0654297-.2001953-.1757813-.2353516-.3046875-.0341797-.1279297-.015625-.265625.0517578-.3808594l2.1445313-3.6796875c.1386719-.2373047.4443359-.3164063.6796875-.1816406l1.8847656 1.078125c.4775391-.3623047 1.0205078-.6699219 1.5976563-.9042969v-2.1503906c0-.2763672.2236328-.5.5-.5h4.25c.2763672 0 .5.2236328.5.5v2.1503906c.5771484.234375 1.1201172.5419922 1.5976563.9042969l1.8847656-1.078125c.2353516-.1367188.5400391-.0566406.6796875.1816406l2.1445313 3.6796875c.0673828.1152344.0859375.2529297.0517578.3808594-.0351563.1289063-.1191406.2392578-.2353516.3046875l-1.8779297 1.0761719c.0419921.3085937.0624999.6054687.0624999.9003906z"/><path d="m21.8291016 17.0732422c.0693359-.3789063.1035156-.7294922.1035156-1.0732422s-.0341797-.6943359-.1035156-1.0732422c-.0380859-.2080078.0595703-.4179688.2441406-.5234375l1.7412109-.9970703-1.6416016-2.8154297-1.7490234 1c-.1835938.1054688-.4121094.0839844-.5722656-.0527344-.5332031-.453125-1.1875-.8242188-1.8925781-1.0712891-.2001953-.0703124-.3339844-.2597655-.3339844-.4716796v-1.9951172h-3.25v1.9951172c0 .2119141-.1337891.4013672-.3339844.4716797-.7050781.2470703-1.359375.6181641-1.8925781 1.0712891-.1611328.1367188-.3896484.1582031-.5722656.0527344l-1.7490234-1-1.6416016 2.8154296 1.7412109.9970703c.1845703.1054688.2822266.3154297.2441406.5234375-.0693359.3789063-.1035156.7294922-.1035156 1.0732422s.0341797.6943359.1035156 1.0732422c.0380859.2080078-.0595703.4179688-.2441406.5234375l-1.7412109.9970703 1.6416016 2.8154297 1.7490234-1c.1826172-.1074219.4111328-.0849609.5722656.0527344.5332031.453125 1.1875.8242188 1.8925781 1.0712891.2001953.0703124.3339844.2597656.3339844.4716796v1.9951172h3.25v-1.9951172c0-.2119141.1337891-.4013672.3339844-.4716797.7050781-.2470703 1.359375-.6181641 1.8925781-1.0712891.1601563-.1376953.3886719-.1601563.5722656-.0527344l1.7490234 1 1.6416016-2.8154297-1.7412109-.9970703c-.1845703-.1054687-.2822266-.3154296-.2441406-.5234374zm-5.8291016 2.9267578c-2.2091675 0-4-1.7908936-4-4 0-2.2091675 1.7908325-4 4-4s4 1.7908325 4 4c0 2.2091064-1.7908325 4-4 4z"/><circle cx="16" cy="16" r="3"/></g></svg>