<svg id="Layer_1" xmlns="http://www.w3.org/2000/svg"><path d="m90 52.5v-5l-7.185-1.439c-.406-1.68-1.077-3.248-1.949-4.688l4.068-6.105-3.535-3.535-6.106 4.068c-1.438-.875-3.008-1.543-4.688-1.953l-1.438-7.184h-5l-1.439 7.184c-1.68.41-3.248 1.078-4.688 1.953l-6.106-4.068-3.535 3.535 4.069 6.104c-.873 1.438-1.543 3.01-1.95 4.689l-7.185 1.439v5l7.185 1.436c.407 1.683 1.077 3.252 1.95 4.69l-4.069 6.104 3.535 3.539 6.106-4.072c1.439.875 3.008 1.543 4.688 1.953l1.439 7.184h5l1.438-7.184c1.68-.41 3.249-1.078 4.688-1.953l6.106 4.072 3.535-3.539-4.068-6.104c.872-1.438 1.543-3.008 1.949-4.69zm-23.333 7.5c-5.524 0-10-4.476-10-10 0-5.523 4.476-10.004 10-10.004 5.523 0 10 4.48 10 10.004s-4.477 10-10 10z"/><path d="m46.667 30.072-3.533-15.322-3.537 3.535c-5.108-5.121-12.182-8.285-19.997-8.285h-9.6v6.666h9.6c5.782 0 11.214 2.254 15.283 6.336l-3.535 3.535z"/><path d="m90 81.667-13.333-8.334v5h-10c-7.826 0-14.909-3.17-20.036-8.297l-4.716 4.717c6.334 6.331 15.084 10.247 24.752 10.247h10v5z"/><path d="m38.213 48.398 5.12-3.432-1.326-3.199-6.098 1.207c-.646-.852-1.375-1.627-2.211-2.258l1.195-6.063-3.199-1.32-3.455 5.158c-1.042-.146-2.102-.191-3.172-.041l-3.43-5.121-3.2 1.324 1.206 6.098c-.854.648-1.629 1.377-2.262 2.213l-6.057-1.197-1.324 3.2 5.161 3.457c-.143 1.043-.189 2.104-.041 3.175l-5.12 3.427 1.325 3.203 6.098-1.205c.648.854 1.376 1.625 2.215 2.26l-1.2 6.055 3.202 1.328 3.453-5.16c1.043.144 2.104.192 3.178.043l3.426 5.117 3.199-1.328-1.204-6.091c.854-.651 1.628-1.38 2.261-2.217l6.057 1.198 1.324-3.203-5.16-3.454c.141-1.042.188-2.103.039-3.174zm-11.546 6.602c-2.761 0-5-2.243-5-5 0-2.764 2.239-5.004 5-5.004 2.76 0 5 2.24 5 5.004 0 2.757-2.24 5-5 5z"/></svg>