<?xml version="1.0" encoding="iso-8859-1"?>
<!-- Generator: Adobe Illustrator 19.0.0, SVG Export Plug-In . SVG Version: 6.00 Build 0)  -->
<svg xmlns="http://www.w3.org/2000/svg" xmlns:xlink="http://www.w3.org/1999/xlink" version="1.1" id="Capa_1" x="0px" y="0px" viewBox="0 0 512.024 512.024" style="enable-background:new 0 0 512.024 512.024;" xml:space="preserve" width="512" height="512">
<g>
	<path d="M357.802,392.31c-28.225,21.688-63.524,34.603-101.789,34.603s-73.564-12.915-101.789-34.603v119.714h203.578V392.31z"/>
	<path d="M392.154,372.405h-4.353v139.619h124.223v-19.749C512.024,426.179,458.251,372.405,392.154,372.405z"/>
	<path d="M124.223,372.405h-4.353C53.774,372.405,0,426.179,0,492.275v19.749h124.223V372.405z"/>
	<path d="M316.03,31.827v108.567h76.545c-2.629-24.412-11.658-47.44-26.545-67.304C352.911,55.585,335.58,41.382,316.03,31.827z"/>
	<path d="M145.994,73.092c-14.887,19.865-23.916,42.891-26.544,67.303h76.546V31.827C176.444,41.382,159.113,55.586,145.994,73.092z   "/>
	<path d="M256.012,396.913c75.756,0,137.388-61.632,137.388-137.388V237.92H118.625v21.605   C118.625,335.281,180.257,396.913,256.012,396.913z"/>
	<rect x="225.995" width="60.035" height="140.395"/>
	<rect x="84.862" y="170.395" width="342.301" height="37.526"/>
</g>















</svg>
