<svg id="Layer_3" xmlns="http://www.w3.org/2000/svg" data-name="Layer 3"><path d="m20 30.064v3.936l-10.41 3.47a11.1 11.1 0 0 0 -7.59 10.53v14h44v-14a11.1 11.1 0 0 0 -7.59-10.53l-10.41-3.47v-3.936z" fill="#317363"/><path d="m38.411 37.47-10.411-3.47v-3.936h-8v3.936l-10.411 3.47a11.1 11.1 0 0 0 -2.689 1.33 11.078 11.078 0 0 0 -1.9 6.2v14h41v-11a11.1 11.1 0 0 0 -7.589-10.53z" fill="#3e8e80"/><path d="m38 62v-24.667l-4-1.333v11h-20v-11l-4 1.333v24.667z" fill="#91989d"/><path d="m10 47h28v15h-28z" fill="#43525b"/><path d="m12 47h26v13h-26z" fill="#69737a"/><path d="m28 30.06v3.94l-4 4-4-4v-3.94z" fill="#f1b08d"/><path d="m20 31.678v2.322l4 4 4-4v-2.322a8.558 8.558 0 0 1 -4 .922 8.558 8.558 0 0 1 -4-.922z" fill="#f6d7c7"/><path d="m13 17.173v-7.173a8 8 0 0 1 8-8h6a4 4 0 0 1 4 4 4 4 0 0 1 4 4v7.173" fill="#43525b"/><path d="m35 10a4 4 0 0 0 -4-4 4 4 0 0 0 -4-4h-6a7.96 7.96 0 0 0 -4.565 1.435 7.96 7.96 0 0 0 -1.435 4.565v7.173h20z" fill="#69737a"/><path d="m62 54a8 8 0 1 1 -11-7.42v-29.74a8 8 0 0 1 -.11-14.79l.11-.05v7.42l3 2 3-2v-7.42a8.006 8.006 0 0 1 0 14.84v29.74a8.008 8.008 0 0 1 5 7.42z" fill="#91989d"/><path d="m57 46.58v-29.74a8.006 8.006 0 0 0 0-14.84v7.42l-3 2v50.58a8 8 0 0 0 3-15.42z" fill="#aab1b7"/><path d="m33 16v6a9 9 0 0 1 -9 9 9 9 0 0 1 -9-9v-6h5.615a7.954 7.954 0 0 0 7.385-5z" fill="#f1b08d"/><path d="m19 51h10v5l-5 2-5-2z" fill="#43525b"/><path d="m57 25.001h-6v-4.001h6z" fill="#daca44"/><path d="m57 42h-6v-4.001h6z" fill="#daca44"/><path d="m15 17h-1a3 3 0 0 0 -3 3 3 3 0 0 0 3 3h1.055" fill="#f1b08d"/><path d="m33 17h1a3 3 0 0 1 3 3 3 3 0 0 1 -3 3h-1.055" fill="#f1b08d"/><path d="m20 34 4 4-4 4-3.84-6.72" fill="#317363"/><path d="m28 34-4 4 4 4 3.84-6.72" fill="#317363"/><path d="m57 57-3 1-3-1-1-3 1-3 3-1 3 1 1 3z" fill="#f2f2f2"/><path d="m57 42h-3v-4.001h3z" fill="#fdf151"/><path d="m57 25h-3v-4.001h3z" fill="#fdf151"/><path d="m20.615 17h-5.615v5a9 9 0 0 0 18 0v-5l-5-5a7.954 7.954 0 0 1 -7.385 5z" fill="#f6d7c7"/></svg>