<svg id="Glyph" enable-background="new 0 0 32 32" xmlns="http://www.w3.org/2000/svg"><path id="XMLID_232_" d="m29.97 9.243-2.81 11.242c-.223.892-1.021 1.515-1.941 1.515h-17.329c-1.015 0-1.869-.76-1.986-1.768l-2.025-16.232h-1.379c-.829 0-1.5-.671-1.5-1.5s.671-1.5 1.5-1.5h2.687c.75 0 1.384.554 1.486 1.296l.782 5.704h21.545c.65 0 1.128.612.97 1.243z"/><path id="XMLID_240_" d="m7 27c0 1.654 1.346 3 3 3s3-1.346 3-3-1.346-3-3-3-3 1.346-3 3z"/><path id="XMLID_243_" d="m25 27c0-1.654-1.346-3-3-3s-3 1.346-3 3 1.346 3 3 3 3-1.346 3-3z"/></svg>