<svg id="Capa_1" enable-background="new 0 0 419.499 419.499"  xmlns="http://www.w3.org/2000/svg"><g><g><g><g><g><path clip-rule="evenodd" d="m228.58 161.522-64.74 64.74c.91 2.958 1.365 6.03 1.365 9.33v1.934l69.632-69.632c1.707-1.707 1.707-4.551 0-6.258-1.706-1.821-4.551-1.821-6.257-.114z" fill-rule="evenodd"/></g><g><path clip-rule="evenodd" d="m100.693 231.154h-96.256c-2.389 0-4.437 1.934-4.437 4.437s1.934 4.437 4.437 4.437h96.142c-.228-1.479-.341-2.958-.341-4.437s.228-2.958.455-4.437z" fill-rule="evenodd"/></g><g><path clip-rule="evenodd" d="m415.061 231.154h-96.142c.228 1.479.341 2.958.341 4.437s-.114 2.958-.341 4.437h96.142c2.389 0 4.437-1.934 4.437-4.437.001-2.503-2.047-4.437-4.437-4.437z" fill-rule="evenodd"/></g><g><path clip-rule="evenodd" d="m156.103 231.836c-2.048-12.857-14.222-21.618-27.079-19.456-12.857 2.048-21.618 14.222-19.456 27.079 2.048 12.857 14.222 21.618 27.079 19.456 12.743-2.161 21.504-14.222 19.456-27.079z" fill-rule="evenodd"/></g><g><path clip-rule="evenodd" d="m310.044 231.836c-2.048-12.857-14.222-21.618-27.079-19.456-12.857 2.048-21.618 14.222-19.456 27.079 2.048 12.857 14.222 21.618 27.079 19.456 12.857-2.161 21.504-14.222 19.456-27.079z" fill-rule="evenodd"/></g></g></g></g></g></svg>