<svg id="Shape_1" data-name="Shape 1" xmlns="http://www.w3.org/2000/svg" >
  <defs>
    <style>
      .cls-1, .cls-2 {
        fill: #020202;
      }

      .cls-2 {
        fill-rule: evenodd;
      }
    </style>
  </defs>
  <rect id="Rounded_Rectangle_6" data-name="Rounded Rectangle 6" class="cls-1" x="821" y="1510" width="379" height="47" rx="23.5" ry="23.5"/>
  <rect id="Rounded_Rectangle_6_copy" data-name="Rounded Rectangle 6 copy" class="cls-1" x="866" y="1581" width="293" height="47" rx="23.5" ry="23.5"/>
  <rect id="Rounded_Rectangle_6_copy_2" data-name="Rounded Rectangle 6 copy 2" class="cls-1" x="905" y="1645" width="215" height="47" rx="23.5" ry="23.5"/>
  <rect id="Rounded_Rectangle_7" data-name="Rounded Rectangle 7" class="cls-1" x="987" y="1377" width="49" height="163" rx="24.5" ry="24.5"/>
  <path class="cls-2" d="M1012.45,853.094c46.98,0,85.06,39.4,85.06,88s-38.08,88-85.06,88-85.063-39.4-85.063-88S965.471,853.094,1012.45,853.094Z"/>
  <path id="Rounded_Rectangle_5" data-name="Rounded Rectangle 5" class="cls-2" d="M990.552,1005.62h43.8a4.5,4.5,0,0,1,4.5,4.5v331.26a4.5,4.5,0,0,1-4.5,4.5h-43.8a4.5,4.5,0,0,1-4.5-4.5V1010.12A4.5,4.5,0,0,1,990.552,1005.62Z"/>
  <path class="cls-2" d="M581.265,630.168l93.864,199.46,46.931-70.4,123.2,117.329L727.927,636.035,686.861,712.3Z"/>
  <path class="cls-2" d="M1009.52,436.575l-88,205.326,93.86-17.6-5.86,181.86,87.99-258.124-76.26,17.6Z"/>
  <path class="cls-2" d="M1179.65,876.56l123.19-228.792,41.07,76.264,87.99-93.864L1349.77,835.5l-41.06-70.4Z"/>
</svg>
