<svg id="Icons"  xmlns="http://www.w3.org/2000/svg"><path d="m30 56a25.956 25.956 0 0 1 -20-9.407v9.407a2 2 0 0 0 2 2h36a2 2 0 0 0 2-2v-9.407a25.956 25.956 0 0 1 -20 9.407z"/><path d="m28 18h4v4h-4z"/><path d="m16 18h4v4h-4z"/><path d="m34 18h4v4h-4z"/><path d="m40 18h4.001v4h-4.001z"/><path d="m22 18h4v4h-4z"/><path d="m11.352 31.341a.929.929 0 0 0 -.241.726 19 19 0 0 0 37.778 0 .928.928 0 0 0 -.241-.725 1.021 1.021 0 0 0 -.761-.342h-35.774a1.021 1.021 0 0 0 -.761.341zm14.816 8.1 4-6a1 1 0 0 1 1.664 1.11l-2.964 4.449h4.132a1 1 0 0 1 .832 1.555l-4 6a1 1 0 1 1 -1.664-1.11l2.964-4.445h-4.132a1 1 0 0 1 -.832-1.555z"/><path d="m30 6a24 24 0 1 0 24 24 24.028 24.028 0 0 0 -24-24zm-16 12a2 2 0 0 1 2-2h28a2 2 0 0 1 2 2v4a2 2 0 0 1 -2 2h-28a2 2 0 0 1 -2-2zm36.137 12.005a2.944 2.944 0 0 1 .74 2.277 21 21 0 0 1 -41.754 0 2.945 2.945 0 0 1 .74-2.278 3.029 3.029 0 0 1 2.25-1h35.774a3.029 3.029 0 0 1 2.25 1.001z"/><path d="m10 4v9.407a25.964 25.964 0 0 1 40 0v-9.407a2 2 0 0 0 -2-2h-36a2 2 0 0 0 -2 2z"/></svg>