<svg clip-rule="evenodd" fill-rule="evenodd"  image-rendering="optimizeQuality" shape-rendering="geometricPrecision" text-rendering="geometricPrecision"  xmlns="http://www.w3.org/2000/svg"><g id="Layer_x0020_1"><g><path d="m236 102h-39v10h39zm-50 34h-1c-19 0-36 16-35 35l4 92h204l4-92c1-19-16-35-35-35zm-13-22v-24c0-6 5-11 11-12v-45c0-29 35-44 55-23 7 6 10 14 10 23v45c6 1 11 6 11 12v22h67c32 0 61 27 59 60l-13 302c-1 21-17 38-38 38h-158c-21 0-37-17-38-37l-13-303c-1-28 20-53 47-58zm-18 173 8 187c0 8 6 14 14 14h158c8 0 14-6 14-15l8-186zm187-47h-172c-7 0-12-6-12-12v-65c0-7 5-12 12-12h172c7 0 12 5 12 12v65c0 6-5 12-12 12zm-160-24h148v-41h-148zm74 210c-1 0-2 0-4 0l-25 27c-5 6-15 5-19-2l-28-49c-4-7-1-16 7-18l36-9c1-2 2-4 4-6l-11-35c-2-8 4-16 12-16h56c8 0 14 8 12 16l-11 35c2 2 3 4 4 6l36 9c8 2 11 11 7 18l-28 49c-4 7-14 8-19 2l-25-27c-1 0-3 0-4 0zm-26-11c-4-4-7-9-9-15l-13 4 13 21zm18-60c5-1 11-1 16 0l4-13h-24zm43 45c-2 6-5 11-9 15l9 10 13-21zm-35-22c-16 0-16 24 0 24s16-24 0-24zm-31-300v-45c0-11-17-12-17 0v45z"/></g><path d="m330 175h-148v41h148z" fill="#48e1ff"/><path d="m342 240h-172c-7 0-12-6-12-12v-65c0-7 5-12 12-12h172c7 0 12 5 12 12v65c0 6-5 12-12 12zm-15-104h-141-1c-19 0-36 16-35 35l4 92h204l4-92c1-19-16-35-35-35z" fill="#7dd63e"/><path d="m357 287h-202l8 187c0 8 6 14 14 14h158c8 0 14-6 14-15zm-170 97 36-9c1-2 2-4 4-6l-11-35c-2-8 4-16 12-16h56c8 0 14 8 12 16l-11 35c2 2 3 4 4 6l36 9c8 2 11 11 7 18l-28 49c-4 7-14 8-19 2l-25-27c-1 0-3 0-4 0s-2 0-4 0l-25 27c-5 6-15 5-19-2l-28-49c-4-7-1-16 7-18z" fill="#7dd63e"/><g fill="#ffcf00"><path d="m268 342h-24l4 13c5-1 11-1 16 0z"/><path d="m256 378c-16 0-16 24 0 24s16-24 0-24z"/><path d="m291 400c-2 6-5 11-9 15l9 10 13-21z"/><path d="m230 415c-4-4-7-9-9-15l-13 4 13 21z"/></g><path d="m197 112h39v-10h-39z" fill="#999"/><path d="m208 78h17v-45c0-11-17-12-17 0z" fill="#f69e07"/></g></svg>