<svg clip-rule="evenodd" fill-rule="evenodd"  image-rendering="optimizeQuality" shape-rendering="geometricPrecision" text-rendering="geometricPrecision"  xmlns="http://www.w3.org/2000/svg"><g id="Layer_x0020_1"><g id="_491404552"><path id="_491405560" d="m4.94024 2.62417.00000394 2.8081c0 .0384764-.0310945.0694724-.0694567.0694646h-2.91494c-.0383622 0-.0694646-.0309882-.0694646-.0694567v-2.80811c0-.0383701.0310984-.0694646.0694646-.0694646h2.91494c.0383661 0 .0694528.0311024.0694528.0694646zm-3.46755 0v1.13793c0 .0383661-.0310906.0694685-.0694488.0694646-.038374 0-.0694646-.0310945-.0694646-.0694567l.00000394-1.13794c0-.0383701.0310866-.0694646.0694567-.0694646.0383661 0 .0694528.0311024.0694528.0694646zm-.563748-.442665v3.32674c0 .202244.16452.366736.366744.366736l4.27522-.00000787c.202236 0 .366732-.164484.366732-.36672v-3.32675h-5.0087zm4.44503 3.25077.00000787-1.13791c0-.0383543.0311063-.0694409.0694567-.0694409.0383543-.00000787.0694646.0310866.0694646.0694488l.00000394 1.1379c0 .0383543-.0311181.0694724-.0694606.0694646-.0383583 0-.0694724-.0311102-.0694724-.0694567zm.0694724-1.60071c-.0383583 0-.0694724-.0310945-.0694724-.0694567l.00000787-1.13794c0-.0383701.0311063-.0694646.0694567-.0694646.0383543 0 .0694646.0311024.0694646.0694646l.00000394 1.13793c0 .0383661-.0311181.0694685-.0694606.0694646zm-3.95076 1.6007c0 .0383543-.0310906.0694724-.0694488.0694646-.038374 0-.0694646-.0311102-.0694646-.0694567l.00000394-1.13791c0-.0383543.0310866-.0694409.0694567-.0694409.0383661-.00000787.0694528.0310866.0694528.0694488v1.1379z"/><path id="_491405296" d="m3.25247 3.6895-.177925.664035h.227445c.0196299 0 .0383346.00830315.0515039.0228583.0131693.0145433.0195709.0339961.0176142.0535197l-.0315906.315736.374232-.568579h-.222705c-.021563 0-.0419094-.0100079-.0550512-.0270945-.0131575-.0171063-.017622-.0393268-.0120866-.0601772l.106197-.400299h-.277634z"/><path id="_491405464" d="m2.67193 2.92719v.173795l.173795-.00000394c.0383622 0 .0694567.0310984.0694567.0694724.00000394.0383583-.0310984.0694528-.0694567.0694409h-.173791v.173807c0 .0383661-.0311063.0694724-.0694646.0694606-.0383622 0-.0694646-.0310945-.0694646-.0694528v-.173815h-.173799c-.0383622 0-.0694685-.0310748-.0694685-.0694409.00000394-.038374.0311024-.0694606.0694646-.0694606l.173803-.00000394v-.173799c0-.0383701.0310984-.0694646.0694606-.0694646s.0694646.0311063.0694646.0694646zm-.64661-.233555v2.66917h2.77602v-2.66917zm2.30129 1.15556c.0383622-.00000394.0694606.0310984.0694606.0694606v1.10106c0 .0383701-.0310984.0694685-.0694606.0694646-.0383583 0-.0694646-.0310945-.0694646-.0694567v-1.10107c0-.0383661.0311024-.0694567.0694646-.0694567zm-.483976.188957c.0255472 0 .0490197.0140157.0611417.0365039.0121181.0224724.0109252.0498071-.00312205.0711417l-.600335.912118c-.0131299.0199449-.0351693.0312795-.0580315.0312874-.00775197 0-.0155945-.00129921-.0232165-.00401181-.0301339-.0106969-.0490827-.0405709-.0458976-.0723701l.0520591-.520366h-.241197c-.0215984 0-.0419724-.0100394-.0551181-.0271772-.0131417-.0171339-.0175827-.0393976-.0119882-.0602598l.21515-.802953c.0081378-.030374.0356535-.0514764.0670906-.0514764l.421244-.00000787c.021563 0 .0419055.0100157.0550512.0271024.0131496.0170984.0176063.0393268.0120827.0601654l-.106205.400303h.261291zm-1.27314-.119496.00000394 1.10106c0 .0383701-.0311063.0694685-.0694606.0694646-.0383701 0-.0694606-.0310945-.0694606-.0694567l.00000394-1.10107c0-.0383661.0310866-.0694567.0694488-.0694567.0383661-.00000394.0694646.0310984.0694646.0694606zm1.89794-.687295h-.486504c-.038374 0-.0694646-.0310945-.0694646-.0694528.00000394-.0383661.0310866-.0694646.0694606-.0694646l.486508-.00000787c.038378 0 .0694606.0311063.0694606.0694724.00000394.0383583-.0310866.0694646-.0694606.0694528z"/><path id="_491405128" d="m5.01126.951673-.09193.408087h.61574l-.09197-.408087z"/><path id="_491405176" d="m3.20224 1.49868h-.786752c-.00101181.00002362-.0020315.00001968-.00305118 0h-.416906l-.0014252.00001181-.00111417-.00001181h-.786752c-.00101181.00002362-.0020315.00001968-.00305118 0h-.684303v.543902h5.78889v-.543902h-.684252c-.00113386.00002756-.00225984.00002756-.00338976 0h-.78648l-.00111417.00001181-.00118504-.00001181h-.417051c-.00113386.00002756-.00226378.00002756-.00338976 0h-.786504l-.00111811.00001181-.00118504-.00001181h-.417331l-.00142126.00001181-.00111417-.00001181z"/><path id="_491405728" d="m3.80203.951673-.09194.408087h.61571l-.09195-.408087z"/><path id="_491405104" d="m2.59279.951673-.09194.408087h.61571l-.09194-.408087z"/><path id="_491405248" d="m1.38354.951673-.09193.408087h.6157l-.09192-.408087z"/></g></g></svg>