<svg id="Capa_1" enable-background="new 0 0 512 512"  xmlns="http://www.w3.org/2000/svg"><g><g><path d="m255.958 55.215c-4.215 0-7.632-3.414-7.632-7.627v-39.961c0-4.212 3.417-7.627 7.632-7.627s7.632 3.414 7.632 7.627v39.962c0 4.212-3.417 7.626-7.632 7.626z" fill="#e6e2e6"/><path d="m111.458 55.215c-4.215 0-7.632-3.414-7.632-7.627v-39.961c0-4.212 3.417-7.627 7.632-7.627s7.632 3.414 7.632 7.627v39.962c0 4.212-3.417 7.626-7.632 7.626z" fill="#e6e2e6"/><path d="m400.458 55.215c-4.216 0-7.632-3.414-7.632-7.627v-39.961c0-4.212 3.417-7.627 7.632-7.627s7.632 3.414 7.632 7.627v39.962c0 4.212-3.417 7.626-7.632 7.626z" fill="#e6e2e6"/><g fill="#545454"><path d="m377.466 37.263h45.983c4.887 0 9.221 3.136 10.745 7.776l8.101 24.651c1.081 3.288-1.371 6.671-4.834 6.671h-74.007c-3.463 0-5.915-3.383-4.834-6.671l8.101-24.651c1.525-4.64 5.859-7.776 10.745-7.776z"/><path d="m377.462 76.36h45.987c4.887 0 9.22 3.136 10.745 7.775l8.101 24.65c1.081 3.288-1.371 6.671-4.834 6.671h-74.007c-3.463 0-5.915-3.383-4.834-6.671l8.102-24.655c1.524-4.636 5.856-7.77 10.74-7.77z"/><path d="m377.462 115.457h45.987c4.887 0 9.22 3.136 10.745 7.776l8.101 24.651c1.081 3.288-1.371 6.671-4.834 6.671h-74.007c-3.463 0-5.915-3.383-4.834-6.671l8.102-24.655c1.524-4.638 5.856-7.772 10.74-7.772z"/><path d="m278.953 37.263h-45.987c-4.887 0-9.221 3.136-10.745 7.776l-8.101 24.651c-1.081 3.288 1.371 6.671 4.834 6.671h74.007c3.463 0 5.915-3.383 4.834-6.671l-8.103-24.655c-1.523-4.638-5.855-7.772-10.739-7.772z"/><path d="m278.949 76.36h-45.983c-4.887 0-9.22 3.136-10.745 7.775l-8.101 24.65c-1.081 3.288 1.371 6.671 4.834 6.671h74.007c3.463 0 5.915-3.383 4.834-6.671l-8.101-24.651c-1.524-4.638-5.858-7.774-10.745-7.774z"/><path d="m278.953 115.457h-45.987c-4.887 0-9.22 3.136-10.745 7.776l-8.101 24.651c-1.081 3.288 1.371 6.671 4.834 6.671h74.007c3.463 0 5.915-3.383 4.834-6.671l-8.103-24.655c-1.523-4.638-5.855-7.772-10.739-7.772z"/><path d="m134.454 37.263h-45.987c-4.887 0-9.221 3.136-10.745 7.776l-8.102 24.65c-1.081 3.288 1.371 6.671 4.834 6.671h74.007c3.463 0 5.915-3.383 4.834-6.671l-8.102-24.655c-1.524-4.637-5.855-7.771-10.739-7.771z"/></g><path d="m73.443 58.056-3.823 11.633c-1.081 3.288 1.371 6.671 4.834 6.671h74.007c3.463 0 5.915-3.383 4.834-6.671l-3.823-11.633z" fill="#494949"/><path d="m134.454 76.36h-45.987c-4.887 0-9.221 3.136-10.745 7.775l-8.101 24.65c-1.081 3.288 1.371 6.671 4.834 6.671h74.007c3.463 0 5.915-3.383 4.834-6.671l-8.102-24.655c-1.525-4.636-5.856-7.77-10.74-7.77z" fill="#545454"/><path d="m73.443 97.153-3.823 11.633c-1.081 3.288 1.371 6.671 4.834 6.671h74.007c3.463 0 5.915-3.383 4.834-6.671l-3.823-11.633z" fill="#494949"/><path d="m134.449 115.457h-45.982c-4.887 0-9.221 3.136-10.745 7.776l-8.101 24.651c-1.081 3.288 1.371 6.671 4.834 6.671h74.007c3.463 0 5.915-3.383 4.834-6.671l-8.101-24.651c-1.525-4.64-5.859-7.776-10.746-7.776z" fill="#545454"/><path d="m73.443 136.249-3.823 11.633c-1.081 3.288 1.371 6.671 4.834 6.671h74.007c3.463 0 5.915-3.383 4.834-6.671l-3.823-11.633z" fill="#494949"/><path d="m217.943 58.056-3.823 11.633c-1.081 3.288 1.371 6.671 4.834 6.671h74.007c3.463 0 5.915-3.383 4.834-6.671l-3.823-11.633z" fill="#494949"/><path d="m217.943 97.153-3.823 11.633c-1.081 3.288 1.371 6.671 4.834 6.671h74.007c3.463 0 5.915-3.383 4.834-6.671l-3.823-11.633z" fill="#494949"/><path d="m217.943 136.249-3.823 11.633c-1.081 3.288 1.371 6.671 4.834 6.671h74.007c3.463 0 5.915-3.383 4.834-6.671l-3.823-11.633z" fill="#494949"/><path d="m362.443 58.056-3.823 11.633c-1.081 3.288 1.371 6.671 4.834 6.671h74.007c3.463 0 5.915-3.383 4.834-6.671l-3.823-11.633z" fill="#494949"/><path d="m362.443 97.153-3.823 11.633c-1.081 3.288 1.371 6.671 4.834 6.671h74.007c3.463 0 5.915-3.383 4.834-6.671l-3.823-11.633z" fill="#494949"/><path d="m362.443 136.249-3.823 11.633c-1.081 3.288 1.371 6.671 4.834 6.671h74.007c3.463 0 5.915-3.383 4.834-6.671l-3.823-11.633z" fill="#494949"/><path d="m235.782 154.553h40.352v35.076h-40.352z" fill="#545454"/><path d="m91.282 154.553h40.352v35.076h-40.352z" fill="#545454"/><path d="m380.282 154.553h40.352v35.076h-40.352z" fill="#545454" transform="matrix(-1 0 0 -1 800.915 344.183)"/><path d="m25.843 234.253h460.314v233.123h-460.314z" fill="#545454"/><path d="m25.843 234.253h460.314v18.304h-460.314z" fill="#494949"/><path d="m255.958 263.69c-4.215 0-7.632-3.414-7.632-7.627v-25.802c0-4.213 3.417-7.627 7.632-7.627s7.632 3.414 7.632 7.627v25.802c0 4.213-3.417 7.627-7.632 7.627z" fill="#e6e2e6"/><path d="m111.458 263.69c-4.215 0-7.632-3.414-7.632-7.627v-25.802c0-4.213 3.417-7.627 7.632-7.627s7.632 3.414 7.632 7.627v25.802c0 4.213-3.417 7.627-7.632 7.627z" fill="#e6e2e6"/><path d="m400.458 263.69c-4.216 0-7.632-3.414-7.632-7.627v-25.802c0-4.213 3.417-7.627 7.632-7.627s7.632 3.414 7.632 7.627v25.802c0 4.213-3.417 7.627-7.632 7.627z" fill="#e6e2e6"/><path d="m501.831 234.253h-491.662c-5.616 0-10.169-4.553-10.169-10.169v-24.285c0-5.616 4.553-10.169 10.169-10.169h491.661c5.616 0 10.169 4.553 10.169 10.169v24.285c.001 5.616-4.552 10.169-10.168 10.169z" fill="#a8a7a8"/><path d="m501.827 215.949h-491.654c-5.618 0-10.173-4.551-10.173-10.166v18.304c0 5.615 4.555 10.166 10.173 10.166h491.654c5.618 0 10.173-4.551 10.173-10.166v-18.304c0 5.615-4.555 10.166-10.173 10.166z" fill="#818181"/><path d="m501.831 512h-491.662c-5.616 0-10.169-4.553-10.169-10.169v-24.285c0-5.616 4.553-10.169 10.169-10.169h491.661c5.616 0 10.169 4.553 10.169 10.169v24.285c.001 5.616-4.552 10.169-10.168 10.169z" fill="#a8a7a8"/><path d="m501.827 493.696h-491.654c-5.618 0-10.173-4.551-10.173-10.166v18.304c0 5.615 4.555 10.166 10.173 10.166h491.654c5.618 0 10.173-4.551 10.173-10.166v-18.304c0 5.615-4.555 10.166-10.173 10.166z" fill="#818181"/><path d="m333.768 409.003-64.849-108.987c-5.843-9.821-20.079-9.821-25.923 0l-64.849 108.987c-5.972 10.037 1.271 22.75 12.961 22.75h129.698c11.692 0 18.934-12.713 12.962-22.75z" fill="#f6e266"/><path d="m332.848 407.456c-2.679 3.568-6.935 5.993-12.041 5.993h-129.698c-5.106 0-9.362-2.425-12.041-5.993l-.92 1.547c-5.972 10.038 1.271 22.75 12.961 22.75h129.698c11.691 0 18.934-12.712 12.961-22.75z" fill="#ffc239"/><path d="m235.782 172.091h40.352v17.538h-40.352z" fill="#494949"/><path d="m91.282 172.091h40.352v17.538h-40.352z" fill="#494949"/><path d="m380.282 172.091h40.352v17.538h-40.352z" fill="#494949"/></g><g><path d="m254.347 340.184-19.771 31.087c-1.497 2.353-1.592 5.334-.248 7.778 1.343 2.444 3.912 3.962 6.702 3.962h10.495l-12.304 19.347c-2.266 3.561-1.212 8.284 2.352 10.548 3.03 2.005 8.108 1.433 10.555-2.351l19.771-31.086c1.497-2.353 1.591-5.334.248-7.778s-3.912-3.962-6.702-3.962h-10.495l12.305-19.348c2.265-3.561 1.212-8.284-2.353-10.548-3.563-2.265-8.289-1.211-10.555 2.351z" fill="#dd636e"/></g></g></svg>