<svg id="Capa_1" enable-background="new 0 0 512 512"  xmlns="http://www.w3.org/2000/svg"><g><path d="m386.208 0h-260.416c-37.55 0-67.991 30.441-67.991 67.991v189.22c0 26.852 15.57 50.061 38.171 61.11v133.615c0 33.172 26.891 60.063 60.063 60.063h199.93c33.172 0 60.063-26.891 60.063-60.063v-133.615c22.601-11.049 38.171-34.258 38.171-61.11v-189.22c0-37.55-30.441-67.991-67.991-67.991z" fill="#ffe07d"/><path d="m210.131 511.998h-54.095c-33.169 0-60.064-26.885-60.064-60.064v-133.613c-22.6-11.042-38.169-34.253-38.169-61.106v-189.223c0-37.548 30.442-67.99 67.99-67.99h54.095c-37.558 0-67.99 30.442-67.99 67.99v189.224c0 26.853 15.569 50.064 38.169 61.106v133.612c0 33.179 26.885 60.064 60.064 60.064z" fill="#ffd064"/><path d="m125.792 201.402c-14.273 0-25.885-11.612-25.885-25.885v-107.526c0-14.273 11.612-25.885 25.885-25.885h260.416c14.273 0 25.885 11.612 25.885 25.885v107.526c0 14.273-11.612 25.885-25.885 25.885z" fill="#b1e4f9"/><path d="m160.751 201.402h-34.958c-14.274 0-25.885-11.611-25.885-25.885v-107.527c0-14.274 11.611-25.884 25.885-25.884h34.958c-14.274 0-25.884 11.611-25.884 25.884v107.528c0 14.274 11.61 25.884 25.884 25.884z" fill="#90d8f9"/><g fill="#4e5959"><path d="m299.048 321.963-24.402 42.278c-5.489-3.173-11.851-4.994-18.642-4.994-6.783 0-13.145 1.821-18.634 4.986l-24.411-42.27c12.667-7.326 27.361-11.521 43.044-11.521 15.684-.001 30.379 4.194 43.045 11.521z"/><path d="m237.362 428.803-24.403 42.261c-13.062-7.549-23.957-18.444-31.515-31.498-7.326-12.675-11.521-27.37-11.521-43.053h48.805c0 6.791 1.821 13.161 4.978 18.642 3.289 5.654 8.003 10.368 13.656 13.648z"/><path d="m342.077 396.514c0 15.683-4.195 30.378-11.521 43.053-7.557 13.054-18.452 23.949-31.515 31.498l-24.394-42.261c5.653-3.272 10.359-7.994 13.631-13.648 3.173-5.48 4.994-11.851 4.994-18.642z"/><circle cx="256" cy="396.522" r="22.337"/></g><g><g><path d="m302.712 170.602c-4.267 0-7.726-3.459-7.726-7.726v-74.518h-9.853c-4.267 0-7.726-3.459-7.726-7.726s3.459-7.726 7.726-7.726h17.579c4.267 0 7.726 3.459 7.726 7.726v82.244c0 4.267-3.459 7.726-7.726 7.726z" fill="#90d8f9"/></g><g><path d="m351.449 171.026c-15.698 0-16.846-.383-17.896-.733-2.579-.86-4.506-2.808-5.287-5.345-1.348-4.383.559-6.88 5.657-13.555 4.183-5.478 11.97-15.674 25.017-34.314 3.891-5.56 6.401-10.543 7.463-14.818l.284-2.224c-.231-7.142-6.114-12.882-13.311-12.882-6.351 0-11.848 4.512-13.068 10.728-.823 4.187-4.885 6.914-9.07 6.093-4.187-.822-6.915-4.883-6.093-9.07 2.641-13.445 14.514-23.203 28.231-23.203 15.864 0 28.771 12.906 28.771 28.771 0 .327-.021.654-.062.979l-.406 3.181c-.033.258-.078.513-.137.766-1.458 6.288-4.803 13.199-9.941 20.54-9.877 14.112-16.791 23.464-21.431 29.615 7.832.001 18.052-.067 27.64-.188 4.249-.047 7.769 3.362 7.823 7.629.053 4.267-3.362 7.769-7.629 7.823-11.761.146-20.31.207-26.555.207z" fill="#90d8f9"/></g><g><path d="m236.742 172.28c-17.374 0-31.509-14.135-31.509-31.509v-38.035c0-17.374 14.135-31.509 31.509-31.509s31.509 14.135 31.509 31.509v38.035c0 17.374-14.134 31.509-31.509 31.509zm0-85.6c-8.854 0-16.056 7.203-16.056 16.056v38.035c0 8.854 7.203 16.056 16.056 16.056 8.854 0 16.056-7.203 16.056-16.056v-38.035c.001-8.853-7.202-16.056-16.056-16.056z" fill="#90d8f9"/></g></g><g><g><path d="m167.929 232.878h-29.998c-9.589 0-17.362 7.773-17.362 17.362 0 9.589 7.773 17.362 17.362 17.362h29.998c9.589 0 17.362-7.773 17.362-17.362 0-9.589-7.773-17.362-17.362-17.362z" fill="#dd636e"/><path d="m147.023 262.514c3.137 3.148 7.484 5.084 12.274 5.084h-21.369c-4.79 0-9.137-1.937-12.274-5.084-3.147-3.137-5.084-7.484-5.084-12.274 0-9.59 7.769-17.369 17.358-17.369h21.369c-9.59 0-17.358 7.779-17.358 17.369 0 4.79 1.937 9.137 5.084 12.274z" fill="#da4a54"/></g><g><path d="m270.999 232.878h-29.998c-9.589 0-17.362 7.773-17.362 17.362 0 9.589 7.773 17.362 17.362 17.362h29.998c9.589 0 17.362-7.773 17.362-17.362-.001-9.589-7.774-17.362-17.362-17.362z" fill="#dd636e"/><path d="m250.092 262.514c3.137 3.148 7.484 5.084 12.274 5.084h-21.369c-4.79 0-9.137-1.937-12.274-5.084-3.147-3.137-5.084-7.484-5.084-12.274 0-9.59 7.769-17.369 17.358-17.369h21.369c-9.59 0-17.358 7.779-17.358 17.369 0 4.79 1.937 9.137 5.084 12.274z" fill="#da4a54"/></g><g><path d="m374.068 232.878h-29.997c-9.589 0-17.362 7.773-17.362 17.362 0 9.589 7.773 17.362 17.362 17.362h29.997c9.589 0 17.362-7.773 17.362-17.362 0-9.589-7.773-17.362-17.362-17.362z" fill="#dd636e"/><path d="m353.162 262.514c3.137 3.148 7.484 5.084 12.274 5.084h-21.369c-4.79 0-9.137-1.937-12.274-5.084-3.147-3.137-5.084-7.484-5.084-12.274 0-9.59 7.769-17.369 17.358-17.369h21.369c-9.59 0-17.358 7.779-17.358 17.369 0 4.79 1.937 9.137 5.084 12.274z" fill="#da4a54"/></g></g><g fill="#4e5959"><g><path d="m367.474 326.048h-31.971c-4.267 0-7.726-3.459-7.726-7.726s3.459-7.726 7.726-7.726h31.971c4.267 0 7.726 3.459 7.726 7.726.001 4.267-3.459 7.726-7.726 7.726z"/><path d="m367.474 350.117h-31.971c-4.267 0-7.726-3.459-7.726-7.726s3.459-7.726 7.726-7.726h31.971c4.267 0 7.726 3.459 7.726 7.726.001 4.266-3.459 7.726-7.726 7.726z"/><path d="m367.474 374.185h-31.971c-4.267 0-7.726-3.459-7.726-7.726s3.459-7.726 7.726-7.726h31.971c4.267 0 7.726 3.459 7.726 7.726.001 4.267-3.459 7.726-7.726 7.726z"/></g><g><path d="m176.496 326.048h-31.971c-4.267 0-7.726-3.459-7.726-7.726s3.459-7.726 7.726-7.726h31.971c4.267 0 7.726 3.459 7.726 7.726.001 4.267-3.458 7.726-7.726 7.726z"/><path d="m176.496 350.117h-31.971c-4.267 0-7.726-3.459-7.726-7.726s3.459-7.726 7.726-7.726h31.971c4.267 0 7.726 3.459 7.726 7.726.001 4.266-3.458 7.726-7.726 7.726z"/><path d="m176.496 374.185h-31.971c-4.267 0-7.726-3.459-7.726-7.726s3.459-7.726 7.726-7.726h31.971c4.267 0 7.726 3.459 7.726 7.726.001 4.267-3.458 7.726-7.726 7.726z"/></g></g><path d="m386.208 209.128h-260.416c-18.533 0-33.611-15.078-33.611-33.612v-107.526c0-18.533 15.078-33.611 33.611-33.611h260.417c18.533 0 33.611 15.078 33.611 33.611v107.526c-.001 18.534-15.079 33.612-33.612 33.612zm-260.416-159.296c-10.013 0-18.158 8.146-18.158 18.158v107.526c0 10.013 8.146 18.159 18.158 18.159h260.417c10.013 0 18.158-8.146 18.158-18.159v-107.526c0-10.013-8.146-18.158-18.158-18.158z" fill="#ffd064"/></g></svg>