<svg enable-background="new 0 0 512 512"  xmlns="http://www.w3.org/2000/svg"><g id="_x31_9_Dosimeter"><g><g><path d="m402.743 146.77v318.418c0 16.985-13.769 30.755-30.755 30.755h-232.004c-16.985 0-30.755-13.769-30.755-30.755v-318.418c0-81.052 65.705-146.757 146.757-146.757 81.052 0 146.757 65.706 146.757 146.757z" fill="#ffce29"/></g><g><g opacity=".4"><path d="m122.818 393.418v35.066c0 4.512 3.658 8.17 8.17 8.17 4.512 0 8.17-3.658 8.17-8.17v-35.066c0-4.512-3.658-8.17-8.17-8.17-4.512 0-8.17 3.658-8.17 8.17z" fill="#fff"/></g></g><g opacity=".08"><path d="m402.77 146.797v318.404c0 16.993-13.78 30.718-30.773 30.718h-22.984c16.939 0 30.718-13.725 30.718-30.718v-318.404c0-77.797-60.172-140.607-135.237-146.294 3.758-.327 7.625-.49 11.492-.49 81.005 0 146.784 65.629 146.784 146.784z"/></g><g><path d="m345.79 490.151v11.584c0 5.662-4.59 10.252-10.252 10.252h-159.104c-5.662 0-10.252-4.59-10.252-10.252v-11.584c0-5.662 4.59-10.252 10.252-10.252h159.105c5.662 0 10.251 4.59 10.251 10.252z" fill="#5b5b5b"/></g><g><path d="m373.277 146.901v126.643c0 7.09-4.593 13.459-11.402 15.436-69.15 20.085-142.626 20.085-211.776 0-6.809-1.978-11.402-8.346-11.402-15.436v-126.643c0-7.09 4.593-13.459 11.402-15.436 69.15-20.085 142.626-20.085 211.776 0 6.808 1.977 11.402 8.346 11.402 15.436z" fill="#5b5b5b"/></g><g><path d="m351.507 159.892v100.661c0 5.662-4.59 10.252-10.252 10.252h-170.537c-5.662 0-10.252-4.59-10.252-10.252v-100.661c0-5.662 4.59-10.252 10.252-10.252h170.538c5.661.001 10.251 4.59 10.251 10.252z" fill="#66d5f2"/></g><g><path d="m301.765 391.972c0 25.268-20.491 45.798-45.798 45.798-25.268 0-45.758-20.53-45.758-45.798 0-25.307 20.491-45.798 45.758-45.798 25.307 0 45.798 20.49 45.798 45.798z" fill="#f2b816"/></g><g><path d="m285.59 391.972c0 16.34-13.251 29.617-29.617 29.617-16.34 0-29.591-13.276-29.591-29.617 0-16.366 13.251-29.617 29.591-29.617 16.366 0 29.617 13.251 29.617 29.617z" fill="#5b5b5b"/></g></g></g></svg>