<?xml version="1.0" encoding="iso-8859-1"?>
<!-- Generator: Adobe Illustrator 19.0.0, SVG Export Plug-In . SVG Version: 6.00 Build 0)  -->
<svg xmlns="http://www.w3.org/2000/svg" xmlns:xlink="http://www.w3.org/1999/xlink" version="1.1" id="Capa_1" x="0px" y="0px" viewBox="0 0 512 512" style="enable-background:new 0 0 512 512;" xml:space="preserve">
<g>
	<path style="fill:#5D5360;" d="M107.355,346.839v140.387c0,13.682,11.092,24.774,24.774,24.774h247.742   c13.682,0,24.774-11.092,24.774-24.774V346.839H107.355z"/>
	<path style="fill:#4B3F4E;" d="M132.129,495.484c-4.561,0-8.258-3.698-8.258-8.258V346.839h-16.516v140.387   c0,13.682,11.092,24.774,24.774,24.774h247.742c10.771,0,19.954-6.916,23.367-16.516H132.129z"/>
	<path style="fill:#9B959D;" d="M412.903,363.355H99.097c-13.682,0-24.774-11.092-24.774-24.774V24.774   C74.323,11.092,85.414,0,99.097,0h313.806c13.682,0,24.774,11.092,24.774,24.774v313.806   C437.677,352.263,426.586,363.355,412.903,363.355z"/>
	<path style="fill:#ECEAEC;" d="M396.387,280.774H115.613c-4.561,0-8.258-3.697-8.258-8.258V74.323c0-4.561,3.697-8.258,8.258-8.258   h280.774c4.561,0,8.258,3.697,8.258,8.258v198.194C404.645,277.077,400.948,280.774,396.387,280.774z"/>
	<path style="fill:#5D5360;" d="M363.355,156.903h-214.71c-4.561,0-8.258-3.697-8.258-8.258v-24.774   c0-4.561,3.697-8.258,8.258-8.258h214.71c4.561,0,8.258,3.697,8.258,8.258v24.774C371.613,153.206,367.916,156.903,363.355,156.903   z"/>
	<path style="fill:#FF8086;" d="M156.903,206.452h-8.258c-4.565,0-8.258-3.694-8.258-8.258c0-4.565,3.694-8.258,8.258-8.258h8.258   c4.565,0,8.258,3.694,8.258,8.258C165.161,202.758,161.468,206.452,156.903,206.452z"/>
	<path style="fill:#FFD064;" d="M198.194,206.452h-8.258c-4.565,0-8.258-3.694-8.258-8.258c0-4.565,3.694-8.258,8.258-8.258h8.258   c4.565,0,8.258,3.694,8.258,8.258C206.452,202.758,202.758,206.452,198.194,206.452z"/>
	<path style="fill:#857E87;" d="M239.484,206.452h-8.258c-4.565,0-8.258-3.694-8.258-8.258c0-4.565,3.694-8.258,8.258-8.258h8.258   c4.565,0,8.258,3.694,8.258,8.258C247.742,202.758,244.048,206.452,239.484,206.452z"/>
	<path style="fill:#857E87;" d="M256,462.452c-4.565,0-8.258-3.694-8.258-8.258v-24.774c0-4.565,3.694-8.258,8.258-8.258   s8.258,3.694,8.258,8.258v24.774C264.258,458.758,260.565,462.452,256,462.452z"/>
	<path style="fill:#FFD064;" d="M329.492,251.871c-1.806,0-3.629-0.589-5.153-1.806c-3.556-2.855-4.137-8.048-1.29-11.613   l9.089-11.355h-12.548c-3.177,0-6.065-1.823-7.444-4.677c-1.371-2.863-0.992-6.258,0.992-8.742l19.815-24.774   c2.855-3.54,8.048-4.137,11.613-1.29c3.556,2.855,4.137,8.048,1.29,11.613l-9.089,11.355h12.548c3.177,0,6.065,1.823,7.444,4.677   c1.371,2.863,0.992,6.258-0.992,8.742l-19.815,24.774C334.315,250.806,331.919,251.871,329.492,251.871z"/>
	<path style="fill:#857E87;" d="M107.355,346.839c-9.122,0-16.516-7.395-16.516-16.516V1.4c-9.6,3.413-16.516,12.603-16.516,23.374   v313.806c0,13.682,11.092,24.774,24.774,24.774h313.806c10.771,0,19.955-6.916,23.367-16.516H107.355z"/>
	<circle style="fill:#C8C5C9;" cx="404.645" cy="33.032" r="8.258"/>
	<circle style="fill:#C8C5C9;" cx="107.355" cy="330.323" r="8.258"/>
	<circle style="fill:#C8C5C9;" cx="404.645" cy="330.323" r="8.258"/>
	<circle style="fill:#C8C5C9;" cx="107.355" cy="33.032" r="8.258"/>
	<path style="fill:#DAD8DB;" d="M173.419,264.258c-27.365,0-49.548-22.184-49.548-49.548V66.065h-8.258   c-4.561,0-8.258,3.697-8.258,8.258v198.194c0,4.561,3.697,8.258,8.258,8.258h280.774c4.561,0,8.258-3.697,8.258-8.258v-8.258   H173.419z"/>
	<path style="fill:#4B3F4E;" d="M371.613,140.387H140.387v8.258c0,4.561,3.697,8.258,8.258,8.258h214.71   c4.561,0,8.258-3.697,8.258-8.258V140.387z"/>
	<rect x="338.581" y="115.613" style="fill:#4B3F4E;" width="16.516" height="41.29"/>
	<rect x="305.548" y="115.613" style="fill:#4B3F4E;" width="16.516" height="41.29"/>
	<rect x="272.516" y="115.613" style="fill:#4B3F4E;" width="16.516" height="41.29"/>
	<rect x="239.484" y="115.613" style="fill:#4B3F4E;" width="16.516" height="41.29"/>
	<rect x="206.452" y="115.613" style="fill:#4B3F4E;" width="16.516" height="41.29"/>
	<rect x="173.419" y="115.613" style="fill:#4B3F4E;" width="16.516" height="41.29"/>
	<path style="fill:#4B3F4E;" d="M148.645,115.613h8.258v41.29h-8.258c-4.561,0-8.258-3.697-8.258-8.258v-24.774   C140.387,119.31,144.084,115.613,148.645,115.613z"/>
	<path style="fill:#FF8086;" d="M363.355,156.903h-8.258v-41.29h8.258c4.561,0,8.258,3.697,8.258,8.258v24.774   C371.613,153.206,367.916,156.903,363.355,156.903z"/>
	<path style="fill:#E5646E;" d="M363.355,156.903h-8.258v-16.516h16.516v8.258C371.613,153.206,367.916,156.903,363.355,156.903z"/>
	<rect x="107.355" y="388.129" style="fill:#4B3F4E;" width="297.29" height="16.516"/>
	<circle style="fill:#DAD8DB;" cx="256" cy="462.452" r="16.516"/>
</g>















</svg>
