<svg id="Layer_1" enable-background="new 0 0 256 256"  xmlns="http://www.w3.org/2000/svg"><g><g><path d="m188.116 28h-120.242c-6.674 0-12.084 5.41-12.084 12.085v175.831c0 6.674 5.41 12.084 12.084 12.084h120.242c6.674 0 12.085-5.41 12.085-12.085v-175.83c0-6.675-5.411-12.085-12.085-12.085z" fill="#afafaf"/></g><g><path d="m188.347 218.646h-101.94c-1.381 0-2.5-1.119-2.5-2.5s1.119-2.5 2.5-2.5h99.439v-173.562c0-1.381 1.119-2.5 2.5-2.5s2.5 1.119 2.5 2.5v176.061c.001 1.381-1.118 2.501-2.499 2.501zm-111.94 0h-8.533c-1.381 0-2.5-1.119-2.5-2.5s1.119-2.5 2.5-2.5h8.533c1.381 0 2.5 1.119 2.5 2.5s-1.119 2.5-2.5 2.5z" fill="#efefef"/></g><g><path d="m163.732 117.731h-33.127l17.285-60.123c.665-2.32-2.44-3.777-3.798-1.775l-53.588 79.126c-.955 1.407.057 3.31 1.754 3.31h33.127l-17.285 60.123c-.665 2.32 2.44 3.777 3.798 1.775l53.588-79.126c.955-1.408-.057-3.31-1.754-3.31z" fill="#f0c020"/></g><g fill="#7c7b7a"><path d="m35.858 58.28c-1.657 0-3 1.343-3 3v23.938c0 1.657 1.343 3 3 3h19.932v-29.938z"/><path d="m35.858 113.031c-1.657 0-3 1.343-3 3v23.938c0 1.657 1.343 3 3 3h19.932v-29.938z"/><path d="m35.858 167.782c-1.657 0-3 1.343-3 3v23.938c0 1.657 1.343 3 3 3h19.932v-29.938z"/></g><g><g><path d="m4.62 64.135h28.238v18.228h-28.238z" fill="#fc5d3d"/></g><g><path d="m4.62 118.886h28.238v18.228h-28.238z" fill="#fc5d3d"/></g><g><path d="m4.62 173.637h28.238v18.228h-28.238z" fill="#fc5d3d"/></g></g><path d="m220.132 167.782h-19.931v29.938h19.931c1.657 0 3-1.343 3-3v-23.938c0-1.657-1.343-3-3-3z" fill="#7c7b7a"/><path d="m223.132 173.637h28.238v18.229h-28.238z" fill="#72c1e8"/><path d="m220.132 113.031h-19.931v29.938h19.931c1.657 0 3-1.343 3-3v-23.938c0-1.657-1.343-3-3-3z" fill="#7c7b7a"/><path d="m223.132 118.886h28.238v18.229h-28.238z" fill="#72c1e8"/><path d="m220.132 58.28h-19.931v29.938h19.931c1.657 0 3-1.343 3-3v-23.938c0-1.657-1.343-3-3-3z" fill="#7c7b7a"/><path d="m223.132 64.135h28.238v18.229h-28.238z" fill="#72c1e8"/><g><path d="m116.685 168.54c1.451.395 2.745-.492 3.091-1.71.38-1.33-.391-2.72-1.711-3.1-1.3-.37-2.72.42-3.09 1.71-.38 1.33.379 2.72 1.71 3.1z"/><path d="m142.015 54.44-53.58 79.12c-2.07 2.988.091 7.181 3.82 7.21h29.81l-4.329 15.06c-.381 1.33.38 2.71 1.71 3.1 1.3.38 2.72-.43 3.09-1.72l5.25-18.25c.462-1.577-.713-3.19-2.4-3.19h-32.41l51.86-76.57-16.63 57.84c-.469 1.601.747 3.19 2.399 3.19h32.41l-51.859 76.57 5.859-20.36c.38-1.345-.396-2.71-1.71-3.1-1.31-.37-2.729.43-3.1 1.72l-6.51 22.64c-1.441 5.276 5.471 8.077 8.27 3.88l53.59-79.14c2.087-3.048-.144-7.181-3.819-7.21h-29.811l16.37-56.93c1.412-5.287-5.521-8.082-8.28-3.86z"/><circle cx="98.115" cy="28" r="2.5"/><path d="m220.135 90.72c3.03 0 5.49-2.47 5.5-5.5v-.36h25.74c1.37 0 2.5-1.12 2.5-2.5s-1.13-2.5-2.5-2.5h-25.74v-13.23h25.74c1.37 0 2.5-1.12 2.5-2.5 0-1.37-1.13-2.5-2.5-2.5h-25.74v-.35c-.01-3.03-2.47-5.5-5.5-5.5h-17.439v-15.7c0-8.04-6.54-14.58-14.58-14.58h-80c-1.38 0-2.5 1.12-2.5 2.5s1.12 2.5 2.5 2.5h80c5.279.01 9.58 4.31 9.58 9.58v175.84c0 5.27-4.301 9.57-9.58 9.58h-120.241c-5.28-.01-9.58-4.31-9.59-9.58 0-18.317 0-153.835 0-175.84.01-5.27 4.31-9.57 9.59-9.58h20.24c1.38 0 2.5-1.12 2.5-2.5 0-1.37-1.11-2.49-2.48-2.5-.01 0-.01 0-.02 0h-20.24c-8.04 0-14.58 6.54-14.59 14.58v15.7h-17.431c-3.029 0-5.5 2.47-5.5 5.5v.35h-25.739c-1.37 0-2.49 1.13-2.49 2.51 0 1.37 1.12 2.49 2.49 2.49h25.739v13.23h-25.739c-1.37 0-2.49 1.13-2.49 2.5 0 1.38 1.12 2.5 2.49 2.5h25.739v.36c0 3.03 2.471 5.5 5.5 5.5h17.431v19.81h-17.431c-3.029 0-5.5 2.47-5.5 5.5v.36h-25.739c-1.37 0-2.49 1.12-2.49 2.5 0 1.37 1.12 2.5 2.49 2.5h25.739v13.22h-25.739c-1.37 0-2.49 1.13-2.49 2.5 0 1.38 1.12 2.51 2.49 2.51.01 0 .01-.01.02-.01h25.72v.36c0 3.03 2.471 5.5 5.5 5.5h17.431v19.81h-17.432c-3.029 0-5.5 2.47-5.5 5.5v.36h-25.739c-1.37 0-2.49 1.12-2.49 2.5s1.12 2.5 2.49 2.5h25.739v13.22h-25.739c-1.37 0-2.49 1.13-2.49 2.51 0 1.37 1.12 2.49 2.49 2.49h25.739v.36c0 3.03 2.471 5.5 5.5 5.5h17.431v15.7c.01 8.04 6.55 14.58 14.59 14.58h120.24c8.04 0 14.58-6.54 14.58-14.58v-15.7h17.439c3.03 0 5.49-2.47 5.5-5.5v-.35h25.74c1.37 0 2.5-1.13 2.5-2.5 0-1.38-1.12-2.5-2.49-2.5l-.01-.01h-25.74v-13.22h25.74c1.37 0 2.5-1.12 2.5-2.5s-1.13-2.5-2.5-2.5h-25.74v-.36c-.01-3.03-2.47-5.5-5.5-5.5h-17.439v-19.81h17.439c3.03 0 5.49-2.47 5.5-5.5v-.36h25.74c1.37 0 2.5-1.12 2.5-2.5 0-1.37-1.13-2.5-2.5-2.5h-25.74v-13.22h25.74c1.37 0 2.5-1.13 2.5-2.5 0-1.38-1.13-2.5-2.5-2.5h-25.74c0-3.754-2.729-5.86-5.5-5.86h-17.439v-19.81zm-184.281-5c-.27 0-.5-.23-.5-.5 0-4.97 0-18.461 0-23.94 0-.28.23-.5.5-.5h17.431v24.94zm0 54.75c-.27 0-.5-.23-.5-.5 0-4.97 0-18.461 0-23.94 0-.27.23-.5.5-.5h17.431v24.94zm0 54.75c-.27 0-.5-.22-.5-.5 0-4.425 0-15.345 0-23.94 0-.27.23-.5.5-.5h17.431v24.94zm184.281-134.44c.271 0 .5.22.5.5v23.94c0 .27-.229.5-.5.5h-17.439v-24.94zm0 109.5c.271 0 .5.23.5.5v23.94c0 .27-.229.5-.5.5h-17.439v-24.94zm0-54.75c.271 0 .5.23.5.5v23.94c0 .28-.229.5-.5.5h-17.439v-24.94z"/></g></g></svg>