<svg id="Capa_1" enable-background="new 0 0 511.934 511.934"  xmlns="http://www.w3.org/2000/svg"><g><path d="m343.565 17.688c-55.664-23.584-119.531-23.584-175.195 0l11.719 27.627c48.223-20.449 103.535-20.449 151.758 0z"/><path d="m191.792 72.927 11.689 27.627c33.281-14.092 71.689-14.092 104.971 0l11.689-27.627c-40.693-17.256-87.655-17.256-128.349 0z"/><circle cx="255.967" cy="405.934" r="15"/><path d="m150.967 405.934c0 57.891 47.109 106 105 106s105-48.109 105-106v-266.81c-43.68-14.425-77.318-19.189-105-19.189-27.594 0-61.458 4.81-105 19.189zm120-225h30v30h-30zm0 60h30v30h-30zm0 60h30v30h-30zm-60-120h30v30h-30zm0 60h30v30h-30zm0 60h30v30h-30zm45 60c24.814 0 45 20.186 45 45s-20.186 45-45 45-45-20.186-45-45 20.186-45 45-45z"/></g></svg>