<svg id="Capa_1" enable-background="new 0 0 497 497" xmlns="http://www.w3.org/2000/svg"><g><path d="m341.176 470.98c-6.292-5.813-10.176-13.766-10.176-22.332v-126.148h-60v126.148l29.576 48.352h30c8.077 0 15.027-6.207 15.406-14.275.22-4.645-1.676-8.854-4.806-11.745z" fill="#61628c"/><path d="m315.983 482.725c.219-4.646-1.677-8.854-4.807-11.745-6.292-5.813-10.176-13.766-10.176-22.332v-126.148h-135v126.148c0 8.566-3.884 16.519-10.176 22.332-3.13 2.892-5.025 7.1-4.807 11.745.38 8.068 7.33 14.275 15.406 14.275h134.153c8.077 0 15.027-6.207 15.407-14.275z" fill="#6f71b0"/><path d="m248.5 262.5 52.5 90c0-16.569 13.431-30 30-30v-60z" fill="#ffea70"/><path d="m166 262.5v60c16.569 0 30 13.431 30 30v96.148h105v-186.148z" fill="#fff89c"/><path d="m361 292.5h-225c-33.137 0-60-26.863-60-60v-172.5c0-33.137 26.863-60 60-60h225c33.137 0 60 26.863 60 60v172.5c0 33.137-26.863 60-60 60z" fill="#61628c"/><path d="m361 30h-30v232.5h30c16.542 0 30-13.458 30-30v-172.5c0-16.542-13.458-30-30-30z" fill="#ffd072"/><path d="m361 232.5v-30l-90-71.25 90-71.25c0-16.542-13.458-30-30-30h-195c-16.542 0-30 13.458-30 30v172.5c0 16.542 13.458 30 30 30h195c16.542 0 30-13.458 30-30z" fill="#ffea70"/><path d="m361 60v142.5h-30l-60-71.25 60-71.25z" fill="#6f71b0"/><path d="m136 60h195v142.5h-195z" fill="#787fcc"/><circle cx="248.5" cy="345" fill="#ff6363" r="22.5"/><path d="m271 142.5v-30c0-12.427-10.074-22.5-22.5-22.5s-22.5 10.073-22.5 22.5v30c-16.569 0-30 13.431-30 30h105c0-16.569-13.431-30-30-30z" fill="#aafaf5"/></g></svg>