<svg id="icons" enable-background="new 0 0 64 64"  xmlns="http://www.w3.org/2000/svg"><path d="m57.99 7h-45.98-.02l-6-6h46z" fill="#ccd1d9"/><path d="m12.01 7v56h-.02l-6-6v-56l6 6z" fill="#aab2bd"/><path d="m58.01 17v4h-.01-3-2v-4h2 3z" fill="#f5f7fa"/><path d="m58.01 49v4h-.01-3-2v-4h2 3z" fill="#f5f7fa"/><path d="m58.01 21v28h-.01-3v-28h3z" fill="#e6e9ed"/><path d="m36 19 10.01 18.02h-20.02z" fill="#ffce54"/><path d="m18 35.5c0 .83.67 1.5 1.5 1.5s1.5-.67 1.5-1.5-.67-1.5-1.5-1.5-1.5.67-1.5 1.5zm37-14.5v28h-2v4h2v7h-39.99v-49.99h39.99v6.99h-2v4zm-8.99 16.02-10.01-18.02-10.01 18.02z" fill="#e6e9ed"/><circle cx="19.5" cy="35.5" fill="#ccd1d9" r="1.5"/><path d="m58.01 7v10h-.01-3v-6.99h-39.99v49.99h39.99v-7h3 .01v10h-46v-56h45.98z" fill="#e6e9ed"/><path d="m58.01 64.003h-46c-.553 0-1-.447-1-1v-55.999c0-.553.447-1 1-1h46c.553 0 1 .447 1 1v55.999c0 .553-.447 1-1 1zm-45-2h44v-53.999h-44z"/><path d="m58.01 64.003h-46c-.553 0-1-.447-1-1v-55.999c0-.553.447-1 1-1h46c.553 0 1 .447 1 1v55.999c0 .553-.447 1-1 1zm-45-2h44v-53.999h-44z"/><path d="m58.01 64.003h-46c-.553 0-1-.447-1-1v-55.999c0-.553.447-1 1-1h46c.553 0 1 .447 1 1v55.999c0 .553-.447 1-1 1zm-45-2h44v-53.999h-44z"/><path d="m55.008 61h-39.994c-.553 0-1-.447-1-1v-49.993c0-.553.447-1 1-1h39.994c.553 0 1 .447 1 1s-.447 1-1 1h-38.994v47.993h38.994c.553 0 1 .447 1 1s-.447 1-1 1z"/><path d="m5.99 57.996c-.553 0-1-.447-1-1v-55.999c0-.553.447-1 1-1h46c.553 0 1 .447 1 1s-.447 1-1 1h-45v54.999c0 .553-.447 1-1 1z"/><path d="m11.996 64.002c-.256 0-.512-.098-.707-.293l-6.006-6.006c-.391-.391-.391-1.023 0-1.414s1.023-.391 1.414 0l6.006 6.006c.391.391.391 1.023 0 1.414-.195.195-.451.293-.707.293z"/><path d="m11.996 8.003c-.256 0-.512-.098-.707-.293l-6.006-6.006c-.391-.391-.391-1.023 0-1.414s1.023-.391 1.414 0l6.006 6.006c.391.391.391 1.023 0 1.414-.195.195-.451.293-.707.293z"/><path d="m57.996 8.003c-.256 0-.512-.098-.707-.293l-6.006-6.006c-.391-.391-.391-1.023 0-1.414s1.023-.391 1.414 0l6.006 6.006c.391.391.391 1.023 0 1.414-.195.195-.451.293-.707.293z"/><path d="m46.037 38.019c-.005 0-.013 0-.02 0h-20.02c-.354 0-.683-.188-.862-.493-.18-.305-.184-.683-.012-.992l10.01-18.018c.352-.635 1.396-.635 1.748 0l9.924 17.863c.145.173.231.396.231.64.001.552-.446 1-.999 1zm-18.34-2h16.621l-8.311-14.958z"/><path d="m34.007 32.003c-.19 0-.383-.055-.554-.168-.46-.307-.584-.927-.277-1.387l2-3c.305-.46.925-.584 1.387-.277.46.307.584.927.277 1.387l-2 3c-.193.289-.51.445-.833.445z"/><path d="m37.008 32.003h-3c-.553 0-1-.447-1-1s.447-1 1-1h3c.553 0 1 .447 1 1s-.447 1-1 1z"/><path d="m35.007 35.003c-.19 0-.383-.055-.554-.168-.46-.307-.584-.927-.277-1.387l2-3c.306-.46.925-.583 1.387-.277.46.307.584.927.277 1.387l-2 3c-.193.289-.51.445-.833.445z"/><path d="m46.018 44.007h-20.02c-.553 0-1-.447-1-1s.447-1 1-1h20.02c.553 0 1 .447 1 1s-.448 1-1 1z"/><path d="m46.018 47.006h-20.02c-.553 0-1-.447-1-1s.447-1 1-1h20.02c.553 0 1 .447 1 1s-.448 1-1 1z"/><path d="m46.018 50.005h-20.02c-.553 0-1-.447-1-1s.447-1 1-1h20.02c.553 0 1 .447 1 1s-.448 1-1 1z"/><path d="m58.008 18.003h-5c-.553 0-1-.447-1-1s.447-1 1-1h5c.553 0 1 .447 1 1s-.447 1-1 1z"/><path d="m58.008 22.003h-5c-.553 0-1-.447-1-1s.447-1 1-1h5c.553 0 1 .447 1 1s-.447 1-1 1z"/><path d="m53.008 22.003c-.553 0-1-.447-1-1v-4c0-.553.447-1 1-1s1 .447 1 1v4c0 .553-.447 1-1 1z"/><path d="m55.008 18.003c-.553 0-1-.447-1-1v-6.996c0-.553.447-1 1-1s1 .447 1 1v6.996c0 .553-.447 1-1 1z"/><path d="m58.008 54.004h-5c-.553 0-1-.447-1-1s.447-1 1-1h5c.553 0 1 .447 1 1s-.447 1-1 1z"/><path d="m58.008 50.004h-5c-.553 0-1-.447-1-1s.447-1 1-1h5c.553 0 1 .447 1 1s-.447 1-1 1z"/><path d="m53.008 54.004c-.553 0-1-.447-1-1v-4c0-.553.447-1 1-1s1 .447 1 1v4c0 .553-.447 1-1 1z"/><path d="m55.008 61c-.553 0-1-.447-1-1v-6.996c0-.553.447-1 1-1s1 .447 1 1v6.996c0 .553-.447 1-1 1z"/><path d="m55.008 50.004c-.553 0-1-.447-1-1v-28.001c0-.553.447-1 1-1s1 .447 1 1v28.001c0 .553-.447 1-1 1z"/><path d="m19.506 38.003c-1.379 0-2.5-1.121-2.5-2.5s1.121-2.5 2.5-2.5 2.5 1.121 2.5 2.5-1.121 2.5-2.5 2.5zm0-3c-.275 0-.5.225-.5.5s.225.5.5.5.5-.225.5-.5-.225-.5-.5-.5z"/></svg>